<?xml version="1.0" encoding="utf-8"?>
<!-- Generator: Adobe Illustrator 27.4.1, SVG Export Plug-In . SVG Version: 6.00 Build 0)  -->
<svg version="1.1" id="Layer_1" xmlns="http://www.w3.org/2000/svg" xmlns:xlink="http://www.w3.org/1999/xlink" x="0px" y="0px"
	 viewBox="0 0 2112.1 2112.1" style="enable-background:new 0 0 2112.1 2112.1;" xml:space="preserve">
<style type="text/css">
	.st0{fill:#323232;}
</style>
<g>
	<path class="st0" d="M1615.1,1476.5c1.7-5.2,3-8.4,3.9-11.8c5.2-20.2,10.4-40.4,15.2-60.6c1.4-6,4-10.6,9.8-12.7
		c9.4-3.3,19.5,4,18.7,14.2c-0.7,8.8-2.6,17.7-4.8,26.3c-8.8,33.6-18,67.1-27.2,100.6c-2.8,10.1-10.3,14.7-19.3,11.8
		c-20.7-6.8-41.6-13.2-62-20.9c-19.2-7.2-37.8-15.8-56.7-23.9c-2.4-1-4.8-2.3-7-3.7c-7.2-4.8-9.3-12-5.6-18.9
		c3.9-7.2,11.6-9.9,19.4-6.4c15.7,6.9,31.2,14.4,47.2,20.9c12.5,5.1,25.5,9.2,38.3,13.6c2.4,0.8,4.9,1.2,9,2.2
		c-1.2-4.6-1.8-8.1-3.1-11.3c-9.3-23.5-21.6-45.4-37.3-65.3c-66.2-83.7-150.5-141.3-251.4-175.2c-50-16.8-101.1-28.8-153-37.8
		c-63.6-11-127.2-21.6-190.9-31.9c-90.1-14.6-172.2-48.9-247.7-99.3c-17.6-11.7-34.2-25.1-49.9-39.3
		C592.4,985.5,536,914.2,490.4,834c-35.5-62.4-66.6-126.5-89.5-194.5c-0.6-1.8-1.5-3.6-2.5-5.7c-2.3,7-0.9,330.2,1.1,538.9
		c1.7,179.8,2.1,359.6,3,540.5c5.5,0.2,10.3,0.7,15.1,0.7c226.9-0.2,453.8-0.4,680.7-0.6c197.1-0.2,394.2-0.2,591.3-0.3
		c3.3,0,6.6-0.2,9.9,0.1c8.3,0.7,14.5,7.4,14.2,15.1c-0.3,7.5-6,13.2-14.2,14c-3.3,0.3-6.6,0.1-9.9,0.1
		c-426.3,0.2-852.6,0.3-1278.8,0.5c-6.6,0-13.3,0.2-19.8,0.4c-11.3,0.4-17.1-5.1-17.4-16.6c-0.1-4.3,0-8.6,0-12.9
		c-1.5-278.5-3-557.1-4.5-835.7c-0.6-110.6-0.9-221.3-2.2-331.9c-0.3-24.1,0.8-48.1,0.1-72.2c-0.7-24.1-0.5-48.3-0.6-72.5
		c0-3-0.1-6,0.4-8.9c1.2-7,6.9-11.4,14-11.4c7.2,0,12.6,4.5,13.8,11.7c0.4,2.6,0.4,5.3,0.4,7.9c0.4,38.1,0.9,76.2,0.8,114.3
		c0,11.8,1.6,23,5.4,34c15.3,44.4,29.7,89.2,46,133.2c14.5,39.1,34,76.1,54.1,112.7c43.2,78.5,94.6,150.9,159.4,213.2
		c76.2,73.2,166.7,120,269.6,142.1c49.1,10.6,98.9,17.8,148.6,26c69.5,11.6,139,23.1,206.7,43.5c62.5,18.8,122,44.2,175,83
		c46.7,34.2,89.7,72.4,123.2,120.2c9.8,14,17.7,29.5,26.4,44.3C1611.6,1469.6,1612.8,1472.1,1615.1,1476.5L1615.1,1476.5z"/>
	<path class="st0" d="M966.8,573.6c-2.5-18-3-35.1,1.3-52.1c6-23.4,18.2-43.2,34.9-60.4c28.4-29.2,63.4-47.2,101.6-60
		c40.1-13.5,78.3-7.5,115.8,9.2c17.7,7.8,33.6,18.3,49.1,30.8c2.3-1.4,4.6-2.6,6.7-4c5.2-3.6,10.4-7.1,15.4-10.9
		c22.8-17.4,48.3-26,77.2-27.7c36.4-2.1,72,0.2,107.4,8.6c29.5,7,54.6,21.6,76.1,42.8c26.9,26.6,44.9,58.7,58.4,93.7
		c5.7,14.8,10.5,30,15.9,44.9c2.4,6.5,5.3,12.9,7.7,19.3c1.7,4.7,4.9,7.7,9.4,9.5c24.5,10.3,43.4,27.7,59.1,48.7
		c34.4,46.2,47.3,98.4,41.9,155.4c-2.2,23.6-8.2,46.2-18.5,67.6c-15.3,31.7-38.4,55.9-69.8,72.2c-44.2,23-91.1,37.3-140,45.6
		c-54.4,9.2-109.3,11.5-164.3,11.1c-63.9-0.4-127.9-1.1-191.7-3.7c-48.6-2-97.1-6.9-145.5-11.3c-11.8-1.1-23.3-4.7-34.8-7.9
		c-23.7-6.5-46.2-16.1-68.3-26.8c-39.1-19-69.9-46.4-94.2-82.8c-23.8-35.7-31.3-73.7-26.4-115.3c2.2-18.9,7.5-37,15.1-54.3
		c18.7-42.7,45.9-78.9,82.8-107.4c21.5-16.6,45.1-28.8,72.3-33.2C963,575.1,964.6,574.3,966.8,573.6L966.8,573.6z M1292.8,987.5v1.5
		c27.1,0,54.3,0.2,81.5,0c44.1-0.5,88-2.6,131.6-9.5c46.4-7.4,90.7-21.4,132.9-41.9c35.7-17.3,58.5-45.7,70.2-83.3
		c11.4-36.5,10.7-73.4,0.4-109.7c-12.7-44.5-36.1-81.5-80-102.1c-0.9-0.4-1.7-1-2.6-1.5c-9.7-5.3-16.2-12.9-20-23.6
		c-9.2-25.5-18.9-50.9-29-76c-8.8-21.9-20.2-42.4-35.7-60.4c-16.7-19.5-36.7-34.6-61.3-42.3c-40.8-12.7-82.4-15.2-124.7-9.7
		c-15.5,2-29.3,7.6-41.9,16.8c-7.7,5.7-15.7,11-23.5,16.6c-18.5,13.2-25.4,13.2-43-1.6c-19.4-16.3-41.7-26.7-65.8-33.6
		c-20.4-5.9-41.2-7.3-61.6-0.3c-15.3,5.2-30.6,10.8-45.2,17.7c-22.1,10.4-41.6,24.6-57.3,43.5c-21.8,26.3-29.1,55.8-19.8,89.1
		c5,17.8-0.9,26.4-19.6,26c-19.5-0.5-36.5,5.9-52.3,15.8c-47.9,29.8-82,71.2-99,124.9c-14.3,45.2-12.2,88.8,17.4,129.4
		c22.2,30.5,48.4,55,83.1,70.1c14.8,6.5,29.9,12.3,45,18.4c19.2,7.7,38.9,12.8,59.6,14.1c17.2,1,34.3,3,51.5,4
		c41.9,2.6,83.9,5.6,125.9,7.3C1237.2,988.4,1265,987.5,1292.8,987.5L1292.8,987.5z"/>
	<path class="st0" d="M1472.3,740.1c-0.6,22.6-4.6,44.1-15.8,64c-21.1,37.6-59.9,53.6-99.8,48.8c-49.5-5.9-80.4-43.2-87.2-89.5
		c-3.2-21.9-2.4-43.7,4.1-64.9c24-78.6,108.2-87.6,153.5-55.3c24.3,17.3,37.5,41.4,42.4,70.3
		C1471.1,722.2,1471.4,731.2,1472.3,740.1L1472.3,740.1z M1430.5,739.9c0.2-14.4-2-28.4-8.3-41.4c-10.3-21.1-26.7-33.1-50.7-33.6
		c-24.4-0.5-42.3,10.6-52.6,32.1c-13.4,28-13.5,57.1-0.4,85.3c10.3,22.1,28.3,33.4,53.1,32.8c24.5-0.6,40.9-13,51-34.6
		C1428.6,767.6,1430.7,754,1430.5,739.9z"/>
	<path class="st0" d="M1161.4,854.2c-48.1-0.5-86.1-30.3-97.9-78c-6.4-25.9-6.3-52,1.4-77.6c21.2-70.5,91.8-86.3,140.5-63
		c9.7,4.6,18.1,12,26.6,18.8c5,4,8.2,9.6,5.7,16.7c-2.7,7.4-7.8,12.3-15.5,13.9c-7.1,1.5-13.8,0.5-19.8-4c-1.9-1.4-3.7-2.8-5.4-4.3
		c-20.9-17.9-63.4-18.8-83.9,14.8c-8,13.1-11.3,27.5-12.1,42.5c-0.8,16.1,1.1,31.8,8,46.5c16.9,36.3,58.5,46,89.8,21
		c2.3-1.9,4.7-3.7,7.3-5.2c8.2-4.5,18.1-3.6,25.1,2.2c9.2,7.6,10,17.2,1.8,25.8c-13.9,14.6-31,23.5-50.8,27.2
		C1175.3,852.9,1168.4,853.4,1161.4,854.2L1161.4,854.2z"/>
	<path class="st0" d="M1500,890.2c5.9,0,11.8-0.1,17.8,0c2.3,0,4.9,0,6.7,1.1c1.6,1,3.2,3.7,3,5.5c-0.2,1.7-2.2,4.1-4,4.7
		c-3.1,0.9-6.5,0.8-9.8,0.7c-9.5-0.4-19.1,1.3-28.6-1.3c-2.3-7.7,0.3-14.2,4.1-20c3.6-5.5,8.2-10.3,12.5-15.3
		c3.7-4.2,8.1-7.9,11.2-12.5c2.1-3,2.9-7.3,3.3-11c0.4-3.9-2-7-6.1-8c-4-1-8-0.8-10.5,3.3c-1.2,1.9-1.7,4.8-3.4,5.9
		c-2.2,1.5-5.5,2.5-7.8,1.9c-1.5-0.4-3.2-4.3-2.9-6.4c1.1-7.7,5.3-13.4,12.7-16.4c8.7-3.5,19.4-1.3,25.7,5.2
		c6.1,6.3,8,17.4,3.9,25.9c-2.1,4.4-5.3,8.3-8.6,12c-4.3,5-9.3,9.4-13.8,14.3c-2.4,2.6-4.4,5.4-6.5,8.2
		C1499.1,888.7,1499.5,889.5,1500,890.2L1500,890.2z"/>
</g>
</svg>
