<?xml version="1.0" encoding="utf-8"?>
<!-- Generator: Adobe Illustrator 27.3.1, SVG Export Plug-In . SVG Version: 6.00 Build 0)  -->
<svg version="1.1" id="Layer_1" xmlns="http://www.w3.org/2000/svg" xmlns:xlink="http://www.w3.org/1999/xlink" x="0px" y="0px"
	 viewBox="0 0 2471.8 2471.8" style="enable-background:new 0 0 2471.8 2471.8;" xml:space="preserve">
<style type="text/css">
	.st0{fill:#303030;}
</style>
<g>
	<path class="st0" d="M1488.5,1383.4c27.7,1.3,54.3,2.7,80.9,3.9c36,1.6,71.9,3,107.9,4.5c15.8,0.7,23.6,6.5,28.1,21.9
		c30.2,104.3,60.3,208.6,90.4,312.9c1.4,4.7,2.1,9.8,2.2,14.7c1.5,124.7,2.9,249.3,4.3,374c0.3,23.3-12,35.3-35.6,35.3
		c-348-0.3-696-0.7-1044-0.9c-6.1,0-12.4,1.3-18.4,3c-14.7,4.1-28.4-8.2-27.2-24.4c3.2-45.8,6.6-91.7,9.2-137.5
		c7.4-132.4,14.6-264.9,21.8-397.3c5-92.5,9.8-185,14.9-277.5c7-128.8,14.2-257.5,21.4-386.3c1.2-21.5,17.7-30,43.2-21.5
		c3.7-19.6,7.3-39.1,10.9-58.6c19-104.5,38.1-209,56.9-313.5c1.3-7.2,1.4-14.6,1.6-21.9c0.4-20,0.7-40,0.9-60
		c0.1-8.6,2.8-19.4-1.4-25.2c-3.1-4.3-15.2-2.1-23.3-2.9c-11.5-1.1-18.8-8.6-18.8-19.4c0-11.1,7.8-19,19.7-19.4
		c7.6-0.3,15.2,0,24.6,0c0-14.4-0.1-27.6,0-40.8c0.1-14.9,7.5-24,19.4-24.2c12.2-0.2,19.9,9.3,19.9,24.7c0,12.6,0,25.2,0,39.3
		c8.1,0,15.6-0.2,23.1,0c13.4,0.4,22.1,8.1,22.3,19.4c0.2,11.8-8.8,19.6-22.6,19.8c-7.3,0.1-14.6,0-22.3,0c-0.6,3-1.3,5.2-1.4,7.5
		c-1.7,48,0.2,95.4,9.7,143c21.2,105.4,39.7,211.4,59.2,317.2c0.8,4.2,1.7,8.5,2.5,12.5c1,0.3,1.7,0.7,2.1,0.5
		c21.3-10,38-1.1,41.1,22.6c6.3,47.5,12.2,95.1,18.4,142.7c11.7,90.5,23.4,181,35.1,271.5c1.8,14.2,3.7,28.4,5.3,42.6
		c0.6,6,2.8,8.9,9.4,8.4c8-0.5,16-0.4,24,0c6.1,0.3,8-2.3,8.5-8c7.3-80.3,14.8-160.6,22.3-240.8c6.7-72,13.3-144,20.2-215.9
		c2.2-23,21.3-29.4,35.3-18.5c2.5,2,5.9,2.8,9.9,4.7c4.9-26.4,9.7-51.8,14.3-77.2c18.4-100.9,37.5-201.7,54.4-302.8
		c4.5-26.7,1.9-54.5,2.5-81.8c0.2-8.6,0-17.2,0-26.8c-8.1,0-15.4,0.2-22.6,0c-12.7-0.5-20.7-8.3-20.6-19.7
		c0.1-11.5,8.2-19.1,20.8-19.5c23.4-0.7,23.4-0.7,23.5-24.7c0-6.7-0.1-13.3,0.2-20c0.4-11.9,8.2-19.7,19.3-19.8
		c11.1-0.1,19.3,7.5,19.7,19.5c0.5,11.6,0.4,23.3-0.2,35c-0.4,7.3,1.7,10.4,9.4,9.7c6.3-0.6,12.7-0.5,19,0.1
		c10.1,0.9,17,8.8,17.1,18.8c0.1,10-6.6,18.5-16.5,19.3c-9.2,0.8-18.5,0.2-28.8,0.2c-0.4,5-0.7,8.5-0.9,12
		c-3.5,54.6,3.7,108,14.3,161.6c19.6,98.6,36.9,197.7,55.2,296.6c0.7,3.9,1.6,7.8,2.7,12.5c2.8-1.4,5.2-2.4,7.4-3.6
		c15.1-8.3,29-1,31.3,15.9c8.3,60.4,16.8,120.7,25.5,181c12.9,88.7,26,177.3,39,265.9C1486.7,1372.6,1487.6,1377.6,1488.5,1383.4z
		 M1762.4,2110.5c0.2-3.2,0.5-5.8,0.5-8.5c-1.3-119.3-2.7-238.6-4.2-357.9c0-3.6-0.8-7.3-1.8-10.7c-28.1-97.6-56.4-195.1-84.4-292.7
		c-2.1-7.2-5.1-10.1-12.8-10.4c-57.6-2.2-115.2-4.8-172.8-7.4c-24.5-1.1-33.1,0.6-37.6-32.5c-15.3-112.2-32.4-224.1-48.9-336.1
		c-4.7-31.9-9.4-63.7-14.2-95.9c-26.3,12.4-33.6,8.4-38-19.8c-0.1-0.7-0.3-1.3-0.4-2c-14.5-78.2-29-156.5-43.5-234.7
		c-3.9-20.9-7.9-41.7-11.8-62.5c-2.9,4.1-3.8,8.2-4.5,12.3c-17.1,93.7-34.1,187.4-51.4,281c-6.1,32.8-11.7,35.7-44.7,24.9
		c-0.7,5-1.4,9.9-1.9,14.7c-6.3,67.7-12.6,135.3-18.9,203c-7.4,79.2-15,158.5-22.4,237.7c-1.3,13.8-7.8,20.4-21.8,20.4
		c-22,0-44-0.1-66-0.2c-18.2-0.1-24.2-5.4-26.7-23.8c-3.6-27.1-7.1-54.2-10.6-81.2c-12.4-96.1-24.8-192.2-37.3-288.3
		c-3.4-26.6-6.9-53.2-10.5-80.9c-3.7,2-6.3,3.4-8.9,4.6c-9.5,4.4-19.5,2-24.2-7.2c-4.2-8.2-8.1-16.9-9.8-25.9
		c-17.3-91.6-34-183.3-51-275c-1-5.5-2.5-10.9-3.7-16.3c-2,1.6-2.4,2.9-2.6,4.2c-15.9,87.1-31.7,174.3-47.9,261.3
		c-2.6,14-5.4,28.2-10.9,41.2c-5.6,13.3-16.4,15.7-29.9,9.9c-1.4-0.6-2.9-0.8-5.2-1.3c-21,385.5-42,770.2-63.1,1156
		C1067.5,2110.5,1414.3,2110.5,1762.4,2110.5z"/>
</g>
</svg>
