<?xml version="1.0" encoding="utf-8"?>
<!-- Generator: Adobe Illustrator 27.3.1, SVG Export Plug-In . SVG Version: 6.00 Build 0)  -->
<svg version="1.1" id="Layer_1" xmlns="http://www.w3.org/2000/svg" xmlns:xlink="http://www.w3.org/1999/xlink" x="0px" y="0px"
	 viewBox="0 0 2834.6 2834.6" style="enable-background:new 0 0 2834.6 2834.6;" xml:space="preserve">
<style type="text/css">
	.st0{fill:#30313D;}
</style>
<g>
	<path class="st0" d="M1427.7,261c15.5,0.2,24.9,11.1,35.2,20.3c68.2,60.8,136.3,121.5,204.5,182.3c2.5,2.2,5.1,4.3,7.3,6.8
		c6.5,7.5,6.4,18.2,0.1,25.6c-6.4,7.4-16.8,9.1-25.3,3.6c-3.6-2.3-6.8-5.4-10-8.3c-60-53.4-119.9-106.9-179.9-160.3
		c-2.6-2.3-5.3-4.6-10.1-8.8c0,6.2,0,9.7,0,13.2c0.2,173,0.5,345.9,0.6,518.9c0,8.1,2.4,11.8,10,15.5
		c75.5,36.6,150.9,73.4,225.8,111.1c28.5,14.4,56.4,30.2,83.2,47.5c17.7,11.5,33.2,26.5,49.1,40.6c3.3,2.9,5.8,8.6,6,13.1
		c5.2,102.8,10.6,205.5,14.9,308.3c4.4,104.5,8.4,209.1,11.1,313.7c3.5,134.7-0.6,269.2-13,403.4c-0.3,3.6-0.3,7.6-1.7,10.8
		c-6.6,15,1.4,21.7,13.3,29.4c144.3,94,288.2,188.6,432.3,283c3.5,2.3,7.2,4.5,12.9,8c-3.1-21.3-5.9-40.5-8.8-59.7
		c-10-66.5-20.1-133-30-199.5c-1.8-12.2,4.8-22,15.8-23.9c11.2-1.9,20.9,5.6,22.8,18.3c14.5,95.1,28.9,190.3,43.2,285.4
		c0.6,3.9,0.6,8,0.7,12c0.5,16.3-6.3,25.4-22.2,29.6c-92.3,24.6-184.6,49.2-276.9,73.8c-3.8,1-7.3,2.9-11,4.4c-2.7,0-5.3,0-8,0
		c-1.2-1.1-2.2-2.4-3.6-3.2c-8-4.5-12.5-11.1-11.2-20.4c1.4-9.7,7.9-14.8,17.1-17.3c31.2-8.2,62.4-16.6,93.6-24.9
		c48.3-12.8,96.5-25.6,144.8-38.4c2.8-0.8,5.6-1.8,10.3-3.3c-4-2.9-6.6-5-9.5-6.9c-147.4-96.6-294.8-193.2-442.1-290.1
		c-6.4-4.2-10.2-3.3-16.5,0.2c-43.8,24.6-87.8,49.1-132.2,72.6c-59.5,31.4-119.3,62.1-179.3,92.5c-22.7,11.5-47,19.1-72.8,19.6
		c-7.7,0.1-16.3-0.8-23-4.2c-81.6-40.8-162.9-82.2-244.3-123.3c-25.9-13.1-51.9-25.7-77.6-39.1c-11.5-6-23.1-12.3-33-20.4
		c-8.4-6.9-13.8-7-22.8-1c-145.5,95.6-291,190.9-436.5,286.2c-3,2-5.9,4.1-10.7,7.5c5.8,1.6,9.7,2.8,13.7,3.9
		c77.8,20.7,155.7,41.4,233.5,62.1c13.7,3.6,20.6,12,19,22.8c-1.9,12.9-13.4,19.3-28.1,15.4c-65-17.2-130-34.5-194.9-51.8
		c-28-7.4-56-14.9-83.9-22.4c-22.3-6-29.1-15.7-25.7-38.3c14.4-96.2,29-192.3,43.6-288.5c2.1-13.9,10.9-21.1,22.8-19.4
		c11.6,1.7,17.7,11.6,15.6,25.6c-12.4,83-24.9,166-37.3,249c-0.3,1.9-0.5,3.9-1.1,8.1c4.4-2.5,7.3-4.1,10.1-5.9
		c148.8-97.5,297.7-195,446.3-292.8c3.7-2.4,7.7-7.9,7.7-12c0.8-273.3,1.4-546.7,1.7-820c0.1-63.3-0.6-126.7-2-190
		c-0.4-15.7,5.8-25,18.4-32.3c43.2-25.1,86.2-50.6,129.4-75.7c74.4-43.1,148.8-85.9,223.3-128.9c3.7-2.2,7.3-5.3,11.4-6.2
		c16.5-3.7,17.9-14.4,17.9-29.3c-0.9-167.7-1-335.3-1.4-503c0-3.2,0-6.5,0-12.2c-4.7,3.8-7.7,6.1-10.5,8.6
		c-59.5,53.5-119,106.9-178.5,160.4c-2.5,2.2-4.9,4.6-7.6,6.4c-8.6,5.7-18.8,4.4-25.4-2.9s-6.6-18.8,0.1-26.5c2-2.2,4.3-4.2,6.5-6.2
		c71.4-64.2,142.7-128.4,214.3-192.4c4.8-4.3,11.1-6.9,16.7-10.2C1426.3,261,1427,261,1427.7,261z M1787.1,1118.4
		c-5.1,3.3-8.5,5.3-11.8,7.5c-106.4,69.8-212.8,139.7-319.4,209.2c-7.7,5-10.2,10.4-10.2,19.4c0.6,316,0.9,631.9,1.2,947.9
		c0,3.5,0,7,0,13.2c16.1-7,30.6-12.1,43.9-19.1c92.5-48.7,184.7-98.1,277.3-146.6c17.4-9.1,26.8-21.9,29.3-40.7
		c1.4-10.2,3.6-20.4,4-30.7c3.3-91.2,8.3-182.4,9-273.7c1.7-202.7-9.6-405.1-19.3-607.4C1790,1171.7,1788.6,1146.2,1787.1,1118.4z
		 M1407.7,2319c0-4.9,0-8.5,0-12c-0.3-318.3-0.5-636.6-0.6-955c0-7.9-2.3-12.4-9.4-16.5c-111.7-64.3-223.3-128.9-334.9-193.4
		c-3-1.7-6.1-3.2-10.8-5.6c0,5.5,0,9.1,0,12.6c0.3,131.7,1.1,263.3,0.9,395c-0.3,187-0.8,374-2.3,561c-0.2,22.7,7.7,35.2,27.2,45.1
		c108.3,55.2,216.2,111.2,324.2,166.9C1403.1,2317.5,1404.4,2317.8,1407.7,2319z M1070.7,1100.5c3.2,2.2,4.8,3.4,6.5,4.4
		c114.4,66.2,228.9,132.3,343.2,198.7c6.5,3.8,10.2,1.4,15.1-1.8c109.1-71.6,218.3-143.2,327.5-214.9c2.9-1.9,5.5-4,11.2-8.2
		c-24.4-15.3-45.8-30.8-68.9-42.9c-70.8-37-142.2-72.7-213.6-108.7c-17.8-9-36.2-16.9-54.4-25c-9.8-4.3-19-3.4-28.4,2.4
		c-25.2,15.6-50.6,30.9-76.3,45.7c-80,45.9-160.2,91.4-240.3,137.1C1085.4,1091.2,1078.8,1095.6,1070.7,1100.5z"/>
</g>
</svg>
