<?xml version="1.0" encoding="utf-8"?>
<!-- Generator: Adobe Illustrator 27.3.1, SVG Export Plug-In . SVG Version: 6.00 Build 0)  -->
<svg version="1.1" id="Layer_1" xmlns="http://www.w3.org/2000/svg" xmlns:xlink="http://www.w3.org/1999/xlink" x="0px" y="0px"
	 viewBox="0 0 396.9 396.9" style="enable-background:new 0 0 396.9 396.9;" xml:space="preserve">
<style type="text/css">
	.st0{fill-rule:evenodd;clip-rule:evenodd;fill:#30313D;}
</style>
<path class="st0" d="M192.1,10.9c3.5,0,7,1.4,9.5,4l101,101.8c0,0,0,0,0,0c21.8,22,36.7,50.1,42.7,80.6c6,30.5,2.9,62.2-8.9,91
	c-11.8,28.8-31.8,53.4-57.5,70.7c-25.7,17.3-55.8,26.5-86.7,26.5c-30.9,0-61-9.2-86.7-26.5c-25.7-17.3-45.7-41.9-57.5-70.7
	c-11.8-28.8-14.9-60.4-8.9-91c6-30.5,20.9-58.6,42.7-80.6c0,0,0,0,0,0L182.6,14.9C185.1,12.4,188.5,10.9,192.1,10.9z M192.1,43.5
	l-91.3,92.3c-18.1,18.2-30.4,41.5-35.4,66.8c-5,25.3-2.4,51.5,7.3,75.4c9.8,23.8,26.4,44.2,47.6,58.6c21.3,14.3,46.3,22,71.9,22
	c25.6,0,50.6-7.7,71.9-22c21.3-14.3,37.8-34.7,47.6-58.6c9.8-23.8,12.3-50.1,7.3-75.4c-5-25.3-17.3-48.5-35.4-66.8l0,0L192.1,43.5z"
	/>
</svg>
