<?xml version="1.0" encoding="utf-8"?>
<!-- Generator: Adobe Illustrator 27.3.1, SVG Export Plug-In . SVG Version: 6.00 Build 0)  -->
<svg version="1.1" id="Layer_1" xmlns="http://www.w3.org/2000/svg" xmlns:xlink="http://www.w3.org/1999/xlink" x="0px" y="0px"
	 viewBox="0 0 2834.6 2834.6" style="enable-background:new 0 0 2834.6 2834.6;" xml:space="preserve">
<style type="text/css">
	.st0{fill:#30313D;}
</style>
<g>
	<path class="st0" d="M566.7,1563c2-8.9,4.2-17.8,6.1-26.7c5.4-25.7,22.5-38.6,47.4-40c38.7-2.2,77.5-3.9,116.2-3.7
		c16.4,0.1,26.7-4.8,35.8-18.1c10-14.7,14.6-28.7,7.3-46.1c-12.2-29.3-22.9-59.3-35.2-88.6c-6.9-16.5-5.1-31.5,4-46.1
		c11.7-18.5,28.3-32,47.1-42.4c16.2-9,31.7-4.7,45.3,6.7c23.8,20.1,47.3,40.5,71.1,60.6c10.6,8.9,21.7,16.8,36.9,13.4
		c11.2-2.5,22.5-4.7,33.6-7.5c1.8-0.4,3.3-3.1,4.3-5c17.9-34.8,27.6-72.3,36.1-110.2c1.9-8.4,4.5-16.7,7-25
		c5.9-18.9,14.5-25.9,34.4-27.3c8.8-0.6,17.6,0.2,26.4-0.4c2-0.1,5.5-3.1,5.6-4.9c6.3-100.5,37.2-193.1,92.9-276.6
		c88.7-133,208-226.7,363.7-269.3c105.8-28.9,211.5-20.1,316.1,9.5c155.2,44,259.5,147.3,330.4,287.5
		c50.8,100.6,74.3,208.3,68.6,320.8c-10.9,213-115.7,363.7-308.4,453.7c-84.1,39.3-173,60.9-265.3,69.3
		c-60.8,5.5-121.1,2.3-180.9-10c-0.5-0.1-1,0.1-2.9,0.2c14.5,12.7,28,24.9,42.1,36.5c13.1,10.8,26.4,21.5,40.6,30.8
		c19.9,13,24.5,30.8,19.3,52.5c-2.8,11.8-5.5,23.7-9.2,35.2c-6.7,20.5-23.9,25.6-42.7,26.5c-38.9,1.8-77.9,2.8-116.8,4.6
		c-3.6,0.2-8.3,2.2-10.3,5c-10.8,14.8-21,30-31,45.3c-1.2,1.9-1.1,5.5-0.3,7.9c10.5,28,20.7,56.2,32.2,83.8
		c6.7,16.2,5.7,31.5-0.8,46.9c-8.9,21.2-24.2,37.4-42.6,50.5c-11.7,8.3-24.4,6.4-35.8-0.6c-12.9-8-24.8-17.4-37.2-26
		c-24.2-16.7-48.6-33.4-72.9-49.9c-1.2-0.8-3-0.8-4.5-0.7s-2.9,0.8-4.3,1.2c-48.3,15.5-37.6,5.6-56,53.6
		c-7.7,20.1-12.8,41.3-18.4,62.2c-7.7,28.9-17.2,37.8-47,41.4c-13.4,1.6-26.9,2.3-40.3,3c-16.2,0.8-26.8-7.2-34.8-21.3
		c-20.6-36.3-31.3-76.2-43.5-115.6c-1.3-4.1-4.8-8.8-8.5-10.5c-11.3-5.1-23.2-9.1-35-13.1c-1.5-0.5-4.2,0.8-5.8,1.9
		c-30.7,22.3-61.3,44.8-92,67.1c-5.4,3.9-10.7,8-16.4,11.4c-11.3,6.7-22.8,7.6-34.3-0.2c-11.3-7.6-22.8-15-34.2-22.5
		c-22.9-15.2-30.3-36.9-23.4-62.5c9-33.7,19.6-67,29.9-100.3c7.3-23.6-2.4-46.2-26.5-53c-18.5-5.2-38.3-7-57.6-8
		c-23.4-1.2-47-0.2-70.4,0.2c-16.3,0.2-29.8-5.5-36.1-20.8c-6.6-15.7-11.9-32.1-15.8-48.7c-3-13,2.7-24.6,13.1-33.2
		c28.7-23.6,57.1-47.6,86.5-70.3c20.4-15.7,20.4-38,22-59.8c0.3-4.4-4.9-10.2-9-13.7c-17-14.4-34.3-28.5-52.1-41.9
		c-13-9.8-26.9-18.4-40.5-27.6c-11.5-7.8-22.2-16.1-23.4-31.5C566.7,1569.6,566.7,1566.3,566.7,1563z M1695.9,627.8
		c0.6,4.2,1,6.6,1.3,9c1.6,16.7,4.1,33.3,4.3,50c0.1,10.3-8,15.3-18,15.5c-10.3,0.2-18.5-6.4-19.8-16.1c-2.1-14.8-4.8-29.7-5.5-44.6
		c-0.5-11.4-5.6-12.4-15.2-11.6c-81.4,6.8-156.1,33.3-224.4,77.1c-111,71.2-198.5,163.1-247.3,288.1c-19.8,50.7-30.3,103.3-36,157.1
		c-0.9,8.2,1.1,15.1,5.5,23.1c8.4,15,19.1,18.6,34.8,16.9c10.2-1.1,18.2,7.8,18.8,18c0.7,10.4-6.4,19-16.9,20.6
		c-3.7,0.5-7.5,0.9-12.2,1.5c5.7,20,11.1,39.7,17.2,59.2c1.8,5.8,4.5,12.3,8.9,16.2c21.5,19.1,51,19.7,73.4,1.9
		c27-21.4,53.8-43.1,80.6-64.9c18.2-14.8,34.6-16.9,53.1-2.7c15.6,12,29.6,26.2,43.4,40.3c14.9,15.2,16.5,33.3,8.2,52.7
		c-14.8,34.2-29.4,68.5-44,102.8c-0.8,1.8-2.1,4.3-1.5,5.5c8.1,15.1,14.2,31.3,33.7,36.9c37.4,10.8,75.5,6.3,113.3,7.1
		c16,0.3,29.3,4.9,38,17.8c9.1,13.6,17,28.2,24,43c5.8,12.3,5,25.4-3.1,36.6c-7.9,10.8-15.8,22.3-26.1,30.6
		c-21.8,17.5-44.9,33.4-67.8,49.4c-7.7,5.4-11.4,12.2-13.3,21.1c-1.2,5.7,0,7.7,5.7,9.1c58.1,14.6,117.1,17.1,176.6,12.8
		c1.1-0.1,3-3,2.9-4.5c-0.6-14.6-1.6-29.3-2.4-43.9c-0.7-12.3,7.2-21.9,18.4-22.4c12-0.6,20.6,7.7,21.2,20.2
		c0.7,13.5,1.2,27,2.5,40.4c0.2,1.9,4.3,5.2,6.2,5c65.7-9.5,129.1-27.7,190.2-53.5c179.9-75.9,283.9-208.8,302.5-405.1
		c1.6-17.4,0.2-35,0.2-52.4c-5.7,0.8-11.9,2.2-18.2,2.3c-10.4,0.2-17.1-5.3-19.2-15.4c-2.2-10.6,3.1-19.7,13.2-22.7
		c6.3-1.9,13.1-2.4,19.5-4.1c1.6-0.4,3.8-3.1,3.7-4.6c-4.9-57.9-16.9-114.2-37.5-168.5c-36.6-96.8-91.3-180.8-173.9-244.9
		c-71.5-55.4-152.9-86.9-242.1-98.7C1747.5,631.6,1722.1,630.2,1695.9,627.8z M701.4,1529.9c0,0.4,0,0.7,0,1.1
		c-21,1-42.1,0.7-62.8,3.2c-29.5,3.6-24-2.1-30.4,26.3c-0.7,3.3,2,9,4.9,11.3c31.8,24.4,64.5,47.7,95.9,72.5
		c19.6,15.5,25.3,36.9,21.8,61.8c-4.4,31.1-14.6,57.8-41.4,76.9c-23,16.4-44.1,35.6-66.8,52.4c-11.5,8.5-13.8,16.8-8.5,30
		c4.1,10.5,8,16.8,20.7,14.9c10.1-1.5,20.7-1.2,30.9-0.4c28.7,2.1,57.9,1.9,85.8,7.8c55,11.7,78.3,55.2,61.7,108.3
		c-9.4,30-18,60.2-27.2,90.2c-3.8,12.5-0.7,21.7,10.9,28.4c7.3,4.2,14,9.6,21.2,14.1c1.5,0.9,4.6,0.8,6-0.1
		c10.3-7.4,20.1-15.4,30.5-22.6c27.2-19.1,54.4-38.2,82.2-56.4c4.9-3.2,13.3-4.4,18.9-2.7c18.4,5.5,36.5,12.1,54.1,19.6
		c12.9,5.5,19.7,16.7,24.1,30.2c9.9,30.6,19.9,61.3,31.8,91.2c8.4,21,9.8,20.5,32.2,17.9c5.8-0.7,11.7-1.3,17.2-2.9
		c2.5-0.7,5.6-3.4,6.4-5.8c8.3-27,16.1-54.2,24.3-81.2c9.7-32.2,27.7-56.1,63.1-62.7c7.8-1.5,15.3-4.5,22.9-6.9
		c12.2-3.8,23.3-2.3,34,5.3c32,22.8,64.7,44.6,96.2,68c9.6,7.1,14.8,5.7,21.2-2.6c17.3-22.4,19.1-27,8.8-50.5
		c-11.5-26.1-20.9-53.3-29.3-80.5c-2.5-8.3-1.4-20,2.7-27.5c10.9-19.6,23.9-38,37-56.2c7.8-10.7,18.5-18.1,32.8-18.2
		c10.5-0.1,21-0.7,31.5-1.2c30.8-1.3,61.5-2.5,92.3-4.1c2.6-0.1,6.6-2.1,7.3-4c2.9-9.3,5.4-18.9,7-28.6c0.5-2.9-1.4-7.4-3.8-9.3
		c-24.7-20-49.9-39.5-74.6-59.5c-25.5-20.7-39.1-45.6-33.9-80.5c4.3-28.3,11.5-52.8,37.7-68.1c7.9-4.6,15.3-10,22.6-15.6
		c16-12.3,31.8-24.7,47.4-37.4c7.9-6.5,9.7-14.4,3.4-23.5c-3.5-5-6.5-10.5-9.2-16c-3.5-7.2-9-9.5-16.8-9.4c-22.7,0.3-45.3,0.1-68,0
		c-49.4-0.4-89.2-16.8-109.9-65.7c-4.9-11.5-6.6-22-1.1-33.9c13-28.4,25.6-57.1,37.6-86c12.6-30.3,12.2-30.5-12-53.3
		c-17.6-16.6-17.6-16.6-36.1-1.7c-0.4,0.3-0.8,0.6-1.2,0.9c-26.1,20.4-51.7,41.5-78.4,61c-9.4,6.8-21.1,12.5-32.5,14.2
		c-25.6,3.8-48.6-6.4-70.7-18.3c-13.3-7.1-22.3-17.7-26.7-32.1c-4.2-13.8-8.3-27.7-12.7-41.5c-6.6-21.1-13.4-42.1-20-63.2
		c-2.1-6.7-6.6-9.3-13.3-9.5c-7.8-0.2-15.7-0.6-23.4-1.5c-7.9-0.9-12.3,1.5-13.4,10c-0.9,6.7-3.5,13.2-4.9,19.8
		c-8.2,37.7-19.2,74.4-35.9,109.3c-7.9,16.5-20.2,26.9-38.5,29.9c-5.6,0.9-11.1,2-16.6,3.4c-30.9,7.9-58.3,2.6-82.5-19.5
		c-22.5-20.5-46.3-39.7-69.6-59.3c-1.3-1.1-4.3-2.3-5-1.7c-10,8.8-20,17.8-29.5,27.2c-1.6,1.6-1.8,6.1-0.8,8.6
		c7.1,18.3,15.3,36.2,21.8,54.7c7.6,21.9,17.5,43.9,19.8,66.6c3.4,32.6-19.6,55.1-40.1,77.1c-3.5,3.8-9.8,6.9-14.9,7.1
		C745.7,1530.4,723.6,1529.9,701.4,1529.9z"/>
	<path class="st0" d="M1692.2,1231.4c-19.7,0-34.6-11.3-40.6-30.8c-6.5-21.1-0.4-40.6,16.1-51.8c1.3-0.9,2.4-3.2,2.3-4.7
		c-3.9-68.7-7.8-137.4-11.9-206.1c-0.8-13.2,6.5-23.1,18.4-23.9c11.8-0.8,20.4,8,21.2,21.4c3.9,68,7.9,136.1,12.1,204.1
		c0.1,1.8,2.3,3.8,3.9,5.1c7.9,6.4,15.8,12.5,23.8,18.7c1.3,1,3,2.2,4.4,2.2c82.8-2.9,165.5-6,248.3-9c17.2-0.6,34.3-1.3,51.5-1.8
		c11.2-0.3,20,7.8,20.7,18.7c0.7,10.5-7.2,20-18.2,20.5c-41.4,1.9-82.9,3.3-124.4,4.9c-59.8,2.2-119.6,4.4-179.3,6.8
		c-2.6,0.1-5.9,2-7.5,4.1C1722.6,1223.4,1709.4,1231,1692.2,1231.4z"/>
	<path class="st0" d="M1107.2,2002.8c-98.6-3.6-194.6-49.1-258.8-146.4c-54.2-82.1-69.9-174.6-31.9-268.1
		c45.9-113.4,131.8-179.2,254.8-192.2c169.9-18,306.6,111.7,329.9,253.8c9.9,60.6,5.4,119.4-27.2,174.2
		c-24.3,40.8-45.9,83.2-81.8,115.7C1246.2,1981.5,1189.8,2002.9,1107.2,2002.8z M1101.5,1433.3c-14.6,1.5-29.2,2.4-43.7,4.5
		c-172.4,24.5-300.2,228.5-164.3,413.6c54.8,74.6,135.5,109.2,228.7,111.6c67.8,1.7,123.9-23.9,165.4-77.4
		c18.7-24,33.4-51.2,49.3-77.3c39.5-64.7,36.7-132.7,11.4-200.4C1309.4,1503.8,1209.4,1434.6,1101.5,1433.3z"/>
</g>
</svg>
