<?xml version="1.0" encoding="utf-8"?>
<!-- Generator: Adobe Illustrator 27.3.1, SVG Export Plug-In . SVG Version: 6.00 Build 0)  -->
<svg version="1.1" id="Layer_1" xmlns="http://www.w3.org/2000/svg" xmlns:xlink="http://www.w3.org/1999/xlink" x="0px" y="0px"
	 viewBox="0 0 2471.8 2471.8" style="enable-background:new 0 0 2471.8 2471.8;" xml:space="preserve">
<style type="text/css">
	.st0{fill:#303030;}
</style>
<g>
	<path class="st0" d="M224.3,712.6c1.5-8.2,2.5-16.4,4.7-24.4c10.7-40.4,35.4-71.6,66.3-98.2c16-13.8,33.2-26.2,50-39.4
		c-16.8-25.7-17.8-53.9-10-82.8c16.5-61.3,83.1-82.4,131.7-41.5c11.4,9.6,20.4,22.1,30.8,33.6c14.1-5.9,29.9-12.4,45.6-19.3
		c70-30.6,131.5-13.2,187.8,33.4c26,21.5,45.3,48.7,63.3,76.8c0.9,1.5,4,2.8,5.7,2.4c65.5-15.7,132-22.7,199.3-19
		c33.3,1.8,66.5,7.1,99.7,11.2c4,0.5,5.2-0.3,6.6-4c11.5-29.1,32.4-51.3,53.8-73.1c21.4-21.7,46.4-37.2,76.7-43.1
		c28.5-5.6,55.9,0,82.4,9.3c25.1,8.8,49.4,19.7,73.9,30.1c4.3,1.8,6,1.3,8.7-2.2c20-26.2,45.2-44.2,79.1-46.8
		c21-1.6,39.4,5.2,54.7,19.7c30.9,29.4,34.9,77,10,114.4c15.4,11.3,31.2,22.1,46,34.1c33.1,26.7,58.4,58.9,67.1,101.7
		c9.5,46.5,2.3,90.6-21.2,131.6c-17,29.6-35.2,58.5-53,87.6c-1.8,2.9-4.5,5.3-6.5,7.5c11.5,23.9,23.2,48.2,35,72.7
		c0,0,0.9-0.6,1.6-1.4c65-71.2,146.3-102,241.3-93.2c91.9,8.4,166.2,50.2,217.4,128.6c26.3,40.3,38.3,85.8,42.4,133.3
		c3.3,38.2,2.3,76.2-4.9,114c-0.8,4.4-2.1,8.7-3.6,13c-14.6,41.9-56.3,55.2-92.4,29c-21-15.2-30-36.8-30.5-62.2
		c-0.6-27.8,1.6-55.9-1.8-83.3c-7.4-60.8-34.2-111.5-92.2-137.4c-80.7-36-198.9-5.5-227,115.6c-6,26-7.3,53.5-8.1,80.3
		c-2.5,78.9-3.6,157.9-5.3,236.9c-0.3,15.9-0.2,16.3,15.9,16.5c103,1,206,2,309,2.6c67.8,0.4,135.6,0,203.4,0.3c9.4,0,19,1,28.2,3
		c28.9,6.2,42.2,22.9,42.1,55c-0.1,29-2.6,57.9-3,86.9c-1,73.3-2.1,146.6-2,219.9c0.1,48.1,2.4,96.3,3,144.4
		c0.2,11-1.4,22.3-3.7,33.2c-5.6,26.7-19.1,40.6-46.3,42.5c-44.3,3.2-88.8,5.6-133.3,5.2c-164.8-1.8-329.6-5-494.4-7.5
		c-33-0.5-66,0.3-98.9-0.5c-11.5-0.3-22.9-3.7-34.3-5.6c-1.4-0.2-3.1-0.5-4.1,0.1c-20.5,11.7-39.7,7-57.7-5.2
		c-26.6-18-46.6-42.7-65.3-68.3c-18.8-25.7-37.5-51.4-55.9-77.3c-3-4.3-5.2-5.1-10.2-2.9c-70.8,31.9-144.9,52.2-222.3,59.2
		c-98.8,9-195.2-4.1-288.9-35.5c-30.2-10.1-59.2-23.8-88.6-36.2c-4.2-1.8-5.6-1.1-8,2.5c-28.3,42.1-56.4,84.5-85.6,126
		c-12.3,17.4-28.6,31.2-49.4,38.5c-30.1,10.5-57.3-2.2-68.5-32c-8.4-22.4-9.6-46-6.2-69.1c8.6-58.7,19-117.2,28.7-175.8
		c1.3-8,2.9-16.1,3.3-24.2c0.1-3.7-1.6-8.3-4-11.3c-79.6-98.9-144.8-205.8-180-329c-23.2-81.1-29.2-163.6-20-247.4
		c9.1-82.6,32.9-160.8,68.4-235.7c1.2-2.5,0.8-7.2-0.8-9.4c-26.3-35.9-53.1-71.4-72.7-111.6c-11.2-22.9-19.6-46.6-21.9-72.2
		c-0.1-1.1-0.6-2.2-0.9-3.3C224.3,726.6,224.3,719.6,224.3,712.6z M1447.7,1238.3c-2-18.1-3.4-50.4-9.6-81.8
		c-35.7-179.6-135.9-309.1-305.1-381.4c-112.5-48-228.6-54.6-345.4-15.5c-92.6,31-167.6,88.1-230.7,161.8
		c-75,87.7-112.9,189.6-114.1,304.5c-1,89.5,22.4,173.3,67.2,250.7c45.8,79.1,104.3,147,182.7,195.6c64.7,40,135.6,61.9,211.1,69.6
		c55.8,5.7,111,3.6,165.4-11.7c69.2-19.4,130.5-53.8,186.5-98.3c58.2-46.3,114.3-93.3,145.1-165
		C1430.7,1397.8,1445.9,1326.9,1447.7,1238.3z M1525.6,1473.7c-0.8-12-1.9-22.6-2.1-33.2c-1.8-84.7-2.3-169.3,4.9-253.8
		c4.7-55.4,20.3-107.4,49.6-155c2.8-4.5,4.5-7.8,0.2-12.3c-1.8-1.8-2.1-5.2-2.8-7.9c-2.6-9.4-3.9-19.4-7.8-28.3
		c-17.9-40.5-40.4-78.4-65.4-114.9c-63.7-92.7-142.4-169.4-241.5-224c-134.3-74-277.6-86.9-425.5-58.2
		c-145.1,28.2-267.5,100.5-369.9,205.4c-152.9,156.6-213.4,398-155.8,609.2c19.9,73,54.4,139.4,93,203.7
		c45.4,75.5,98.9,144.8,171.4,195.8c140,98.5,296.7,136.4,466.3,115.9c84.4-10.2,164.5-37,239-78.8c41.9-23.6,81.9-50,114-86.7
		c1.9-2.1,3.1-5.5,3.2-8.4c2.1-62.4,4-124.9,5.9-187.4c0.1-2,0-4,0-7.2c-3.5,4.2-5.9,7.4-8.5,10.4c-35.4,41.7-77.2,76.3-120,109.9
		c-115.4,90.6-245,131-391.7,111.2c-72.3-9.7-140.3-31.9-203.1-69.5c-59.5-35.7-109.3-81.9-151.5-136.8
		C412.8,1424,373,1259.4,426.6,1076.5C454,983,507.4,905.1,579.4,840.3c135.5-122,292.6-171.9,472.8-132.2
		c146,32.2,262.5,110.9,345.2,236.2c51.3,77.8,78,164.7,86.8,257.2c7.5,78-0.5,154.3-26.2,228.5c-5,14.4-11,28.4-16.9,43.7
		C1469.3,1473.7,1497,1473.7,1525.6,1473.7z M1818.7,2023.3c0,0.9,0,1.7,0,2.6c24.5,0,49-0.2,73.5,0c97.8,1.1,195.6,5.1,293.3-2.2
		c14.7-1.1,19.6-5.4,19.8-20.4c0.2-24.8-0.3-49.6-0.4-74.5c-0.4-88.6-1.2-177.3-0.8-265.9c0.2-43,2.8-85.9,4.2-128.9
		c0.3-10.6-2.9-14.4-13.3-15.5c-10.4-1.1-20.9-1.9-31.4-1.9c-59.5-0.1-119,0.3-178.4,0c-113.1-0.7-226.3-2.2-339.4-2.8
		c-63.1-0.3-126.3,0.6-189.4,0.9c-4.8,0-7.4,1.4-8.1,6.3c-2.6,17.8-7.1,35.4-7.6,53.2c-2.6,92.8-4.4,185.6-6.2,278.4
		c-0.8,44-1.2,88-1,132c0.1,23.1,10,33.4,31,35.1c7.6,0.6,15.3,1,23,1.1C1597.8,2021.5,1708.3,2022.4,1818.7,2023.3z M755.7,564.2
		c-14.3-22.8-30.7-44.3-52.1-61.6c-27.6-22.4-58.2-38.3-94.9-38c-22.3,0.2-42.6,8.7-62.7,17.2c-54.7,23.1-104.5,55-154.8,85.9
		c-32.1,19.7-62.9,41.5-88.4,69.7c-42.8,47.3-50.8,94.8-21.5,151.4c15.3,29.6,35.5,56.6,53.5,84.7c2.6,4.1,5.7,8,8.2,11.5
		C441.9,728.1,581.7,624.9,755.7,564.2z M1142.8,554.7c88.2,22.4,166.1,64.2,236.1,121.1c69.8,56.7,127.1,124.5,177,202.5
		c19.3-34.7,40.6-66.8,55.7-101.5c22.8-52.8,12.4-117.8-40.4-158c-11.3-8.6-22.4-17.4-34-25.4c-51.9-35.8-107.8-64.8-163.7-93.6
		c-20.8-10.7-42.5-19.9-64.6-27.5c-43.6-15-85-13.5-119.5,22.2c-1.7,1.8-3.6,3.4-5.4,5.2C1168.1,516.1,1153.6,533.6,1142.8,554.7z
		 M1610.2,1329.7c1.1,0,2.1,0,3.2,0c0-16-0.2-32,0-48c0.6-47.8-0.2-95.6,8.9-142.9c21.9-114.5,125.4-188.7,248.5-161.8
		c94,20.6,143.7,102.9,151.1,184.4c2.5,27.1,1.1,54.6,1.4,81.9c0.1,10.8,2,21.5,10.3,28.8c12.9,11.2,29.9,15.8,36.2-8.1
		c0.3-1,0.6-1.9,0.8-2.9c8.5-43.9,9.9-88.1,1.7-132.1c-11-59.1-37-110.2-85.5-147.4c-55.4-42.4-118.6-59.3-187.8-51.8
		c-45.3,4.9-86.9,20.3-122.6,49.1c-71.3,57.6-103.5,135.1-109.8,224.3c-3.5,49.1-3.9,98.6-4.2,147.9c-0.2,38.6,1.9,77.2,2.8,115.9
		c0.1,4.6,1.8,6.3,6.6,6c6.5-0.4,13,0,19.5,0c19,0.1,19,0.1,19-19.3C1610.2,1412.3,1610.2,1371,1610.2,1329.7z M491.7,1787.2
		c0.2-0.7-0.3,0.7-0.6,2.1c-2.5,12.9-5.4,25.7-7.4,38.7c-6.9,43.9-14.3,87.7-19.6,131.7c-1.8,15.1,0.4,31.2,3.4,46.3
		c2.7,13.2,12.9,16.4,24,8.7c8.8-6.1,17.7-13.2,23.8-21.7c27-37.9,53.1-76.6,79.4-115c2.5-3.7,4.7-7.6,5.8-9.5
		C563.8,1841,527.6,1814,491.7,1787.2z M1284.3,1880.3c11.2,15.4,22.1,30.9,33.7,45.9c19.6,25.4,39.5,50.7,59.9,75.4
		c5.4,6.6,13.2,11.2,20.6,17.3c-12.1-71.5-1-141.7-3.5-211.4c-18,13-35.4,26.4-53.8,38.4C1322.9,1858.1,1303.7,1868.7,1284.3,1880.3
		z M460.1,478.9c-7.6-12.8-17.2-23.3-30.8-29.8c-18.4-8.8-37.1-3.9-48.6,13.1c-8.6,12.6-11.7,26.9-9.8,41.8
		c1.1,8.3,3.8,16.4,5.9,24.9C405.8,511.5,432.9,495.2,460.1,478.9z M1512.5,530.2c2.6-8.3,5.3-15.7,7.3-23.2
		c7.5-28.6-13.6-56.1-40.3-52.3c-19.8,2.9-33.3,16.1-46.6,30.7C1459.7,500.5,1485.8,515.2,1512.5,530.2z"/>
	<path class="st0" d="M964.2,971.9c0,53.7,0,107.3,0.1,161c0,1.8,1.7,4.8,3.1,5.1c42,10,67,37.5,79.5,77.5c1.4,4.4,3.1,5.5,7.5,5.5
		c67.8-0.9,135.6-1.6,203.4-2.4c13.8-0.1,22.8,7.5,23.1,19.4c0.2,11.9-9,20.1-22.8,20.3c-67.1,0.7-134.3,1.5-201.4,2.1
		c-4.4,0-6.4,1.2-7.5,5.6c-10.3,43.2-57.5,79.4-102.6,79.1c-56.4-0.4-98.6-35.5-107.8-89.6c-7.6-44.8,18.5-89,64.4-108.8
		c3.8-1.6,7.7-3.7,11.7-4.2c8.5-1.1,9.7-5.8,9.7-13.5c0.3-106,1-212,1.6-317.9c0.1-12.4,8.3-21,19.8-21c11.5,0.1,19.7,9,19.7,21.3
		c0,53.5,0,107,0,160.5C965.2,971.9,964.7,971.9,964.2,971.9z M944,1305.5c33.6,0.3,67.9-29.1,68.1-58.4
		c0.3-35.3-28.7-70.3-58.5-70.6c-42.1-0.4-76,28.1-76.3,64.2C877,1276.1,906.9,1305.1,944,1305.5z"/>
	<path class="st0" d="M1777.5,1862.1c0-15,0.3-30-0.2-44.9c-0.1-2.9-2.6-6.7-5.2-8.4c-45.3-28.7-56.9-86.6-25.9-130.6
		c29.8-42.3,91-51.9,131.1-20.6c31.7,24.8,41.2,71.9,22.5,112.3c-7.9,17-19.6,30.8-34.5,42.1c-2.1,1.6-3.8,5.2-3.9,8
		c-0.9,28.9-0.8,57.9-2.5,86.8c-0.6,9.4-4.6,19.1-9,27.7c-6.9,13.4-19.2,20.3-34.1,19.6c-14.8-0.7-26.6-8.6-32.1-22.7
		c-3.7-9.6-6-20.1-6.9-30.4c-1.2-12.9-0.3-26-0.3-38.9C1776.8,1862.1,1777.2,1862.1,1777.5,1862.1z M1817.4,1907c0.3,0,0.7,0,1,0
		c0.3-1.6,0.9-3.2,0.9-4.7c0.6-31.6,1.6-63.2,1.5-94.8c0-11.2,3.5-18.9,13.6-23.7c15.6-7.5,25.2-20.4,31.5-36
		c9.9-24.6,0.4-52.9-20.8-63.8c-22.5-11.6-52.9-3.1-67.6,18.8c-15,22.5-11.3,49.4,9.3,66.8c3.8,3.2,7.9,6.1,12.1,8.8
		c8.9,5.5,14.9,13.3,16.2,23.5c1.6,12.7,2,25.5,2.2,38.3C1817.6,1862.5,1817.4,1884.8,1817.4,1907z"/>
</g>
</svg>
