<?xml version="1.0" encoding="utf-8"?>
<!-- Generator: Adobe Illustrator 27.3.1, SVG Export Plug-In . SVG Version: 6.00 Build 0)  -->
<svg version="1.1" id="Layer_1" xmlns="http://www.w3.org/2000/svg" xmlns:xlink="http://www.w3.org/1999/xlink" x="0px" y="0px"
	 viewBox="0 0 396.9 396.9" style="enable-background:new 0 0 396.9 396.9;" xml:space="preserve">
<style type="text/css">
	.st0{fill:#323232;}
</style>
<g id="KMFIJ3.tif">
	<g>
		<path class="st0" d="M196.3,304.6c-6.7,0.2-13.1-0.7-19.3-2.7c-20.5-6.6-32.5-21.7-34.2-43.1c-0.2-2.7-0.3-5.4-0.5-8
			c-0.1-2.1,0.8-3.2,2.8-3.1c11.5,0.4,22.8,1.8,33.3,7c7.7,3.8,13.5,9.4,17.3,17.1c0.2,0.4,0.4,0.7,0.7,1.3c0.1-0.6,0.2-1,0.2-1.3
			c-0.1-18.8-0.2-37.5-0.4-56.3c0-2.1-0.7-4-2.2-5.7c-16.2-17.9-33.6-34.6-51.2-51.1c-5.1-4.7-9.8-9.8-14.2-15.2
			c-10.4-13.1-11.8-27.9-6.2-43.2c6.3-17.6,19.2-28.2,37.5-31.8c8.7-1.7,17.1,0.5,25.3,3.3c4.5,1.6,8.7,3.9,12.2,7.3
			c0.3-0.2,0.5-0.4,0.8-0.6c9.8-9.1,21.5-12.4,34.5-11.6c11.2,0.6,21.5,4.2,29.8,12c9.7,9.1,15.7,20.2,15.5,33.9
			c-0.1,9.6-3.8,18.1-8.7,26.2c-5,8.3-11.8,15.2-18.6,22c-14.2,14.2-28.4,28.5-42.6,42.8c-2.6,2.7-5,5.6-7.5,8.4
			c-0.3,0.4-0.6,1-0.6,1.5c0.2,8.1,0.4,16.1,0.6,24.2c0,0.1,0.1,0.3,0.2,0.6c0.2-0.3,0.4-0.5,0.6-0.7c5-9.2,12.8-14.9,22.6-18.1
			c8.3-2.6,16.8-3.6,25.4-4c3.3-0.2,4.1,0.9,3.8,4.1c-0.5,5.2-0.8,10.4-1.3,15.6c-1.5,17.1-11.3,27.5-26.8,33.2
			c-6,2.2-12.3,2.5-18.6,2.5c-2,0-4,0-6.4,0c0,0.7,0,1.4,0,2c0,19.8,0,39.5-0.1,59.3c0,0.5,0,0.9,0,1.4c0,1.3-0.7,2-2,2
			c-1.3,0-1.9-0.8-1.9-2.1c0-6.1,0-12.3,0-18.4C196.3,311.9,196.3,308.3,196.3,304.6z M198.3,208.8c0.3-0.3,0.5-0.4,0.7-0.7
			c16-17.7,32.9-34.6,50.2-51c7.4-7,14.1-14.7,18.9-23.8c3.1-5.9,5.7-12.1,6-18.8c0.6-14.8-6.1-26.5-17.3-35.3
			C243.4,68.7,221,68,206.5,76.9c-2.5,1.6-4.7,3.8-6.9,5.9c-1.6,1.5-2.7,1.7-3.9,0.4c-2.9-3.2-6.4-5.5-10.5-7.1
			c-7.6-3-15.4-5.3-23.5-3.9c-17.1,3-29.4,12.4-35.6,29c-5.3,14.4-4.1,28.1,5.8,40.4c3.3,4.1,6.9,8,10.6,11.7
			c16,15.5,32.6,30.4,47.6,47C192.8,203,195.5,205.9,198.3,208.8z M249.2,219.8c-8-0.2-22.5,1.8-31.4,6.8
			c-8.2,4.6-13.7,11.1-15.6,20.4c-0.3,1.6-0.8,3.2-1,4.8c-0.5,3.9-0.8,7.9-1.2,11.8c4.3-3.8,8-7.6,11.7-11.5c1-1,2-1.5,3.1-0.4
			c1.1,1.1,0.6,2.1-0.4,3.1c-3.5,3.6-7,7.3-10.5,11c-0.4,0.4-0.7,0.9-1.2,1.4c4.2,0.8,16-0.3,20.9-2.1c11.7-4.3,20.4-11.6,23.4-24.2
			c0.7-3.1,1-6.3,1.3-9.5C248.8,227.6,249,223.7,249.2,219.8z M196.5,298.4c0-3.7,0.1-7.1,0-10.4c-0.1-1.4-0.5-2.9-0.8-4.3
			c-2.5-13.5-10.3-22.5-23-27.5c-6.1-2.4-12.5-3.6-19-4.2c-2.4-0.2-4.8-0.3-7.3-0.5c0.2,14.6,3.5,27.8,14.9,37.5
			c9,7.7,19.8,11.1,32.1,11.8c-0.9-1-1.4-1.5-1.9-2.1c-4.4-4.5-8.8-9-13.1-13.5c-0.5-0.5-0.8-1.5-0.7-2.1c0.1-0.5,0.9-1.3,1.4-1.3
			c0.7,0,1.6,0.5,2.2,1C186.2,287.8,191.1,292.9,196.5,298.4z"/>
	</g>
</g>
</svg>
