<?xml version="1.0" encoding="utf-8"?>
<!-- Generator: Adobe Illustrator 27.4.1, SVG Export Plug-In . SVG Version: 6.00 Build 0)  -->
<svg version="1.1" id="Layer_1" xmlns="http://www.w3.org/2000/svg" xmlns:xlink="http://www.w3.org/1999/xlink" x="0px" y="0px"
	 viewBox="0 0 2624.4 2624.4" style="enable-background:new 0 0 2624.4 2624.4;" xml:space="preserve">
<style type="text/css">
	.st0{fill:#323232;}
</style>
<g id="Ebene_1-2">
	<path class="st0" d="M1163.1,1040.5c-14.4,7.7-28.3,15.3-42.2,22.6c-23.6,12.5-48.2,21.9-74.4,27.3c-45.7,9.5-90.2,4.6-134.2-9.2
		c-59.6-18.8-110.2-52.2-154.5-95.7c-52-51-91.4-110.7-122.3-176.3c-12.6-26.7-24.8-53.7-36.6-80.8c-21.4-49.3-49.5-94.6-81.5-137.6
		c-2.7-3.7-5.1-8.1-6.1-12.5c-2.3-9.7,4.7-18.3,14.6-18.6c3.6-0.1,7.4,0.6,10.8,1.7c4.5,1.4,8.9,3,13,5.3
		c32.9,18.5,68.9,28,104.9,37.8c31.9,8.7,64.4,13.4,97.3,16.1c45.9,3.8,91.8,6.7,137.7,10.3c46.3,3.6,92.2,9.5,136.1,25.8
		c40.7,15.2,75.9,38.6,105.7,70.2c34.1,36,51.7,79.6,58.1,128.2c4.8,37.3-0.1,73.7-10,109.7c-3.1,11.3-7.3,22.4-15.8,32.8
		c54.9,55.2,108.2,112.2,170.4,160.9c-7.2-81,16.4-155.6,43.9-230.3c-2.3-2.3-4.6-4.7-7-6.9c-52.4-48.7-81.2-109.6-92.3-179.4
		c-3.3-20.8-5.3-42.1-5.5-63.2c-0.4-48.7,12.1-95,30.4-139.9c26.6-65.2,71.9-114.3,130.1-152.6c51.7-33.9,108.2-56.4,167.6-72.3
		c41.7-11.2,84.1-17.9,127.1-20.4c51-3,102-5.6,153-8.2c37.6-1.9,75.1-4.7,111.6-15.2c16.2-4.7,32-10.6,46.4-19.2
		c19.6-11.8,38.7-24.3,58.1-36.3c5.9-3.7,11.9-7.8,18.4-10.3c11.3-4.3,22,4.6,20.8,16.6c-0.3,3.3-1.2,6.6-2.3,9.8
		c-16.7,46.5-29,94.4-41.2,142.2c-13.1,51.4-25.9,102.9-39.2,154.3c-33.5,128.6-104.7,233.1-205.3,318.5
		c-41.9,35.6-86.7,66.9-134.6,93.9c-66.5,37.6-138.2,52.4-214,50.5c-34.7-0.9-69-5-102.8-12.8c-1.3-0.3-2.6-0.3-4.7-0.6
		c-1.1,2.3-2.4,4.5-3.2,6.9c-12.5,38.1-22.1,76.8-25.7,116.9c-2.3,25.9-0.4,51.7,3.6,77.4c1,6.3,4.7,9.9,9.6,13.3
		c48.8,33.2,101.2,59.5,156.3,80.8c50.1,19.4,99.9,39.6,149.3,60.6c40.6,17.2,78.2,40.2,114.9,64.7c19.4,13,36.8,28.1,52.5,45.4
		c39.2,43,51.4,93.2,40.6,149.6c-6.7,34.8-20.9,66.6-40,96.2c-55.1,85.5-130.7,144.1-228.3,174.1c-42.2,13-85.2,21.6-128.4,30
		c-46.5,9-92.8,18.6-139.4,27.3c-33.3,6.3-66.9,11.5-100.3,17.4c-12.5,2.2-24.9,5-38.3,7.7c1.3,3.2,1.8,5.3,3,7.2
		c39.3,67.2,41.2,138.2,21.3,211.5c-8.7,31.8-24.9,59.3-45.6,84.5c-25.2,30.6-55.3,55.9-88.1,77.8c-49.5,33.1-101.3,62.3-155.3,87.4
		c-14.9,6.9-29.1,15.1-43.7,22.7c-2.4,1.2-4.7,2.5-7.2,3.6c-12.3,4.9-19.6,3-26.9-7.8c-5.6-8.3-10.7-17.1-15.9-25.7
		c-11.9-19.5-23.7-39-35.6-58.5c-1-1.7-2.3-3.2-3.6-5.1c-1.8,0.9-3.3,1.5-4.7,2.4c-36.9,20.8-73.7,41.5-110.6,62.3
		c-5.6,3.1-10.9,6.7-16.8,9.2c-11.2,4.7-22.4-3.5-20.4-15c0.6-3.6,3.3-7.4,6.1-9.9c4-3.5,9-5.8,13.7-8.4c35.7-20,71.5-40,107.3-60
		c3.5-1.9,6.7-4.3,11-7.1c-36.7-66.5-69.8-134.3-111-199c-3.6,2-6.7,3.6-9.8,5.5c-38.1,23.3-76.2,46.7-114.3,70.1
		c-3.7,2.3-7.4,4.8-11.4,6.4c-7.3,2.9-14.7,0-18.2-6.4c-3.6-6.5-2-13.9,4.2-18.8c2.1-1.7,4.5-2.9,6.8-4.3
		c39.2-24.1,78.5-48.1,117.7-72.2c2.5-1.6,5-3.3,8.1-5.4c-2.1-3.4-4-6.5-5.9-9.5c-11.2-18-22.8-35.7-33.3-54
		c-4.9-8.6-8.3-18.3-11.5-27.8c-3.3-9.5,0-17.9,6.8-24.9c3.6-3.6,7.5-6.7,11.6-9.6c55.9-40,115-74.5,176.8-104.4
		c36.8-17.8,75.4-27.6,115.7-33.1c29.4-4,58.9-5.3,88.5-3.7c37.8,2,73.6,11.3,106.6,30.3c24.9,14.3,45.1,33.8,62.2,56.7
		c1.8,2.4,3.7,4.8,5.5,7.1c45.8-11.7,92.6-16.7,138.7-25.7c32.6-6.4,65.1-13.7,97.6-20.1c38.6-7.6,77.2-14.3,115.7-22.3
		c37.9-7.8,75.1-18.4,110.3-34.6c79.4-36.4,140.4-92.4,179.6-171c12.3-24.8,20.9-50.9,24-78.6c3-27-2.6-52.1-15.8-75.6
		c-12.2-21.8-29.3-39.2-48.5-54.8c-29.1-23.7-61.7-41.9-94.6-59.5c-43.3-23.2-89.2-40.6-134.8-58.7c-38-15.1-76.2-30.2-113.6-46.8
		c-63.9-28.2-119.8-68.9-172.4-114.5c-39.7-34.4-76.7-71.5-113.7-108.7c-2.6-2.6-5.3-5.1-8-7.7L1163.1,1040.5z M1403,948.3
		c4.8,1.2,9,2.3,13.1,3.1c44.4,9.2,89.3,11.5,134.4,7.6c17.4-1.5,34.9-3.2,51.9-7c47.5-10.6,90.3-32.1,131.1-58
		c34.1-21.7,66-46.3,97.2-72c76-62.9,133.5-139.5,170.6-231.2c20-49.3,33.5-100.7,45.9-152.3c14.6-60.4,27.6-121.1,46.8-180.4
		c0.4-1.3,0.3-2.8,0.5-5.5c-10.1,6-18.9,11.5-27.8,16.8c-22.3,13.3-45.6,24-70.9,30.7c-41.3,10.8-83.5,13.3-125.8,15.3
		c-49.3,2.4-98.7,4.7-148,8.1c-42.3,2.9-84,10.3-124.7,22.1c-55.2,16-107.6,38-155.2,70.6c-50.6,34.7-89.2,79.1-112.1,136.6
		c-17.2,43.2-29.1,87.4-26.9,134.3c1.1,22.4,3.3,45,7.8,67c10.7,51.7,33.3,97.7,70.6,135.8c2.4,2.5,5.1,4.7,8.3,7.7
		c5.5-11.7,10.1-22.1,15.3-32.2c64.7-126.8,153.7-232.9,269.9-315.6c53.4-38,108.4-73.6,167.9-101.7c5.4-2.5,11.2-4.7,17-5.9
		c6.5-1.3,11.8,2.4,14.4,8.5c2.4,5.6,1.5,11.3-3.5,15.5c-3,2.6-6.6,4.6-10.1,6.4c-10.8,5.4-21.8,10.4-32.6,15.9
		c-44.7,22.9-86.7,50-127.5,79.2c-133.5,95.6-235.5,216.3-294.6,371C1405,941.6,1404.2,944.4,1403,948.3L1403,948.3z M653.7,1995.2
		c1.6,4.2,2.5,7.9,4.2,11.1c5.1,9.5,10.1,19,15.9,28c17.1,26.9,35.6,53.1,51.6,80.7c28.5,49.1,56.1,98.7,82.9,148.8
		c25.5,47.7,53.4,94.1,82.5,139.6c1.1,1.7,2.4,3.2,3.8,5.1c2.4-1.1,4.5-1.9,6.5-2.9c12-6,23.7-12.7,36-18.1
		c40-17.7,78-39.2,115.3-61.8c32.5-19.7,63.7-41.3,91.8-67.1c27.3-25.1,49.9-53.5,62.9-88.8c13.7-36.9,17.7-75.1,14.4-114
		c-1.5-18.4-4.4-36.8-11.7-54c-12.6-29.5-28-57.5-48.5-82.2c-30.3-36.8-70.4-56.5-117-62.6c-31.4-4.1-63-3.6-94.6-0.2
		c-39.7,4.3-78,13.1-114.2,30.5c-52.4,25.3-103.4,53-151.1,86.6C674.6,1980.8,664.7,1987.5,653.7,1995.2L653.7,1995.2z
		 M1143.3,977.2c3-7.7,5.9-13.7,7.8-20.1c9.4-32.7,13.3-65.8,8.7-99.7c-6.1-45-23.5-84.5-55.8-117c-28.6-28.7-63.1-47.5-101.4-59.9
		c-44.2-14.2-89.9-19.4-135.9-21.7c-48.7-2.4-97.3-5.7-145.6-12.3c-50.1-6.8-99.1-17.5-146.4-35.8c-2.2-0.9-4.6-1.2-8.1-2.1
		c1.3,2.4,1.9,3.7,2.6,4.8c20,28.8,36.5,59.6,51.3,91.3c15.6,33.5,30.8,67.2,46.4,100.6c27.4,58.7,62.3,112.1,109.3,157.1
		c39.2,37.6,83,68.3,134.4,87c43.8,16,88.6,21,134.7,10.9c34-7.4,63.9-24.1,93.7-41c0.5-0.3,0.6-1.2,1.1-2.2c-0.6-0.9-1.2-2-2.1-3
		c-39.6-41.8-81-81.5-129.3-113.5c-60.7-40.3-124.1-73.9-198.2-81.7c-8.8-0.9-13.6-7.7-12.9-16.3c0.6-8.2,5.9-13.1,15-12.7
		c9,0.4,18.1,1.4,27,3.1c53.2,10.7,102.6,31.3,149,59.2c48.1,28.9,90.8,64.6,131.5,103C1127.4,962,1134.4,968.7,1143.3,977.2
		L1143.3,977.2z"/>
</g>
</svg>
