<?xml version="1.0" encoding="utf-8"?>
<!-- Generator: Adobe Illustrator 27.3.1, SVG Export Plug-In . SVG Version: 6.00 Build 0)  -->
<svg version="1.1" id="Layer_1" xmlns="http://www.w3.org/2000/svg" xmlns:xlink="http://www.w3.org/1999/xlink" x="0px" y="0px"
	 viewBox="0 0 2471.9 2471.9" style="enable-background:new 0 0 2471.9 2471.9;" xml:space="preserve">
<style type="text/css">
	.st0{fill:#303030;}
</style>
<g>
	<path class="st0" d="M374.7,1223c2.1-8.2,7.9-13.3,14.3-18.3c283-220.5,566-441,849-661.5c3.1-2.4,4.3-4.8,4.3-8.7
		c-0.1-75.7-0.1-151.3,0-227c0-3.3,0.3-6.7,1.4-9.8c3.1-8.5,12.5-13.8,21.2-12.4c9.6,1.6,16.7,9.4,17,19.4c0.3,9.5,0.1,19,0,28.5
		c0,64.8,0,129.7-0.1,194.5c0,1.6,0,3.3,0,5.2c7.4,0,14.3,0.2,21.2,0c46.1-1.4,92.2-3,138.1,3.3c24,3.3,47.4,9.1,69.1,20.2
		c36.5,18.6,57.7,48.6,65.6,88.5c7.3,36.8,6.2,73.9,4.5,111.1c-0.9,20.9-1.9,41.8-2.8,63.3c2.2,0,3.9,0,5.7,0
		c90.4,0,180.9,0,271.3-0.1c20.7,0,41.3-0.4,61.5,5c61.8,16.6,104.5,53.8,123.8,115.8c4.7,15.1,4.8,30.7,4.1,46.5
		c-1,20.3-0.4,40.6-0.3,61c0.4,89.3,0.8,178.7,1.2,268c0.7,148,1.4,296,2.1,444c-5.8,72.5-40.1,128.6-108.6,153.2
		c-16.3,5.9-33.6,9.9-50.7,12.6c-12.7,2-25.9,0.4-38.9,0.4c-85.9-0.3-171.9-0.6-257.8-0.9c-100.6-0.4-201.2-0.7-301.8-1.1
		c-2.5,0-4.9,0-8,0c0,2.7,0,4.8,0,6.9c0,77.5,0,155-0.1,232.5c0,10-4.7,17.5-12.8,20.6c-13.1,5-26.7-4.6-26.8-19.2
		c-0.1-18.8,0-37.7,0-56.5c0-59.5,0.1-119,0.1-178.5c0-1.8,0-3.6,0-6.2c-8.3,0-16.1,0-23.9,0c-79.3-0.2-158.6-0.4-237.8-0.7
		c-97.3-0.3-194.5-0.7-291.8-1c-30.8-0.1-61.6-0.4-92.4-0.5c-12.4-0.1-20.7-8.4-20.8-21.2c-0.1-45.2-0.2-90.3-0.2-135.5
		c-0.3-162.7-0.7-325.3-1-488c0-10.6,0-21.3,0-32.5c-2.6,0-4.5,0-6.5,0c-56.6,0.6-113.2,1.1-169.9,1.7c-11.3,0.1-18.4-5.2-21.4-16.2
		c-0.2-0.8-0.6-1.5-1-2.3C374.7,1225.7,374.7,1224.4,374.7,1223z M1438,1503.8c1.7,0.1,2.8,0.2,3.9,0.2c37.3-0.5,74.5-2,111.6-6.7
		c72.3-9.1,135-38.5,189.4-86.6c42.2-37.3,76.4-81.2,106.1-128.7c40.7-65.2,74.5-134.1,105.7-204.2c16.4-36.9,31.3-74.5,43.5-113.1
		c3.4-10.6,2.7-20.1-2.1-30.1c-18.4-38.1-48.7-60.9-89.1-71.8c-18.2-4.9-36.6-3.8-55-3.8c-188.2-0.1-376.4,0-564.6,0.1
		c-1.8,0-3.5,0.2-5.7,0.3c0,169.4,0,338.3,0,507.4c3.8,0,7.2,0,10.7,0c21.8,0.1,43.6-0.4,65.4,0.5c18.7,0.8,36.8,5.2,53.5,14.5
		c11.5,6.4,19.4,15.5,21.6,28.4c2.3,13.7,4.2,27.6,4.9,41.5C1438.6,1468.9,1438,1486.1,1438,1503.8z M614.3,1882.1
		c137.3,0,273.8,0,410.9,0c0-1.8,0-3.9,0-6c-0.3-66-0.5-132-0.8-198c-0.2-47.5-0.4-95-0.6-142.5c0-8.2,1.2-16.1,9-20.3
		c4.9-2.7,10.8-4.9,16.3-5c61.6-0.6,123.2-0.8,184.9-1.1c2.4,0,4.8,0,7.4,0c0-91.2,0-181.6,0-272.3c-2.8,0-5.1,0-7.4,0
		c-19.8,0.2-39.6,0.4-59.4,0.6c-99.1,1-198.2,2.1-297.2,3.1c-85.9,0.9-171.9,1.6-257.8,2.5c-6.6,0.1-6.6,0.1-6.6,6.9
		c0.1,38.7,0.3,77.3,0.4,116c0.3,164,0.7,328,1,491.9C614.3,1865.5,614.3,1873.1,614.3,1882.1z M1281.5,1883.7
		c2,0.1,3.7,0.2,5.3,0.2c87.8,0.3,175.5,0.6,263.3,0.9c98.8,0.4,197.5,0.7,296.3,1.1c12.8,0,25.9,1.6,38.4-0.4
		c14.8-2.3,29.6-6.6,43.7-11.8c21.3-7.8,40-20.3,52.9-39.3c17.4-25.8,26.3-54.6,26.1-86.1c-0.5-84.6-1-169.3-1.3-253.9
		c-0.6-134-1.1-267.9-1.7-401.9c0-8.7,0-17.5,0-26.2c-0.4-0.1-0.9-0.1-1.3-0.2c-0.3,0.5-0.6,1-0.8,1.5c-4.2,9.8-8.3,19.6-12.7,29.3
		c-29.6,64.6-59.8,128.9-96.6,189.9c-32.9,54.4-70.4,105.1-117.6,148.2c-63.8,58.3-138.2,93.2-224.3,102.8
		c-35.8,4-71.7,5.3-107.7,5.8c-1.7,0-3.5,0.2-5.6,0.3c0,2.9,0.1,5.2,0,7.5c-1.3,27.3-2.1,54.6-4,81.8c-1.5,21.5-17,39.8-36.3,44.1
		c-9.6,2.1-19.3,4-29.1,4.4c-23.8,1.1-47.6,1.3-71.4,1.9c-5.1,0.1-10.2,0-15.7,0C1281.5,1750.6,1281.5,1816.8,1281.5,1883.7z
		 M1241.8,590.6c-262.8,204.8-525,409.2-787.2,613.5c0.1,0.4,0.3,0.7,0.4,1.1c262.1-2.7,524.3-5.4,786.9-8.1
		C1241.8,994.9,1241.8,793.3,1241.8,590.6z M1537.1,819.1c0.7-10.2,1.5-19.8,2-29.4c1-21.5,1.9-42.9,2.7-64.4
		c0.9-24.3,0.9-48.6-4.6-72.6c-7.8-34.1-27.4-57.2-61.1-68.2c-20.6-6.7-41.7-11-63.1-11.4c-41.8-0.8-83.5-0.2-125.3-0.3
		c-4.6,0-5.8,1.6-5.8,6.1c0.1,78.1,0,156.3,0,234.4c0,1.8,0,3.6,0,5.6C1367.1,819.1,1451.7,819.1,1537.1,819.1z M1241.2,1883.2
		c0-111.4,0-222.7,0-333.6c-59.3,0-118.1,0-176.6,0c0,111.5,0,222.3,0,333.6C1124.1,1883.2,1182.5,1883.2,1241.2,1883.2z
		 M1281.2,1642.7c0.9,0.4,1.3,0.8,1.8,0.8c2.7,0.2,5.3,0.3,8,0.3c31.4,0.3,62.9,2,94-4.5c5.2-1.1,8.2-3.7,9.1-8.5
		c1-5.6,1.8-11.2,1.9-16.8c0.9-40.5,1.9-80.9,2.1-121.4c0.1-22.1-1.2-44.3-1.9-66.4c-0.2-5.8-2.7-10.2-8.7-12
		c-5.7-1.7-11.3-4-17.2-5c-28.1-5-56.4-3-84.7-2.9c-4.5,0-4.4,2.7-4.4,5.9c0,75.3,0,150.6-0.1,225.9
		C1281.2,1639.6,1281.2,1641.3,1281.2,1642.7z"/>
</g>
</svg>
