<?xml version="1.0" encoding="utf-8"?>
<!-- Generator: Adobe Illustrator 27.3.1, SVG Export Plug-In . SVG Version: 6.00 Build 0)  -->
<svg version="1.1" id="Layer_1" xmlns="http://www.w3.org/2000/svg" xmlns:xlink="http://www.w3.org/1999/xlink" x="0px" y="0px"
	 viewBox="0 0 2834.6 2834.6" style="enable-background:new 0 0 2834.6 2834.6;" xml:space="preserve">
<style type="text/css">
	.st0{fill:#30313D;}
</style>
<g>
	<path class="st0" d="M2194.7,1272c-0.7,16.6-1.3,33.2-2.1,49.9c-0.6,13.5-1.1,27-2.2,40.4c-2.3,27.8-12.3,37.1-42.1,39.4
		c-13.1,1-26.3,1.3-39.4,2.5c-1.9,0.2-5.1,3.6-5.1,5.5c-0.6,163.8-1,327.6-1.4,491.4c-0.2,70.2-0.4,140.3-0.7,210.5
		c0,13.7-7.9,22.5-19.9,22.5c-11.8-0.1-19.8-9.2-19.8-22.8c0.6-232.3,1.2-464.6,1.9-696.9c0-6.5-1.4-8.2-8.1-8.1
		c-11.1,0.1-22.4-0.2-33.3-2.2c-28.9-5.2-41.8-19.6-42.5-49c-0.8-32.3,0-64.6,0.2-96.9c0.1-16.3,0.6-32.7,0.7-49
		c0.1-17.7,9.8-28.7,27.7-29.8c16.4-1.1,32.9-1.6,49.4-1.9c4.9-0.1,6.4-1.2,6.4-6.3c0.1-121.8,0.4-243.6,0.6-365.4
		c0.1-29.3,0.2-58.7,0.5-88c0.1-12.6,8.4-20.9,20.1-20.7c11.5,0.2,19.5,9.1,19.4,21.5c-0.3,137.5-0.6,275-0.9,412.4
		c0,13.5-0.3,27,0,40.5c0,1.7,3,4.7,4.7,4.8c16.3,0.9,32.7,0.7,48.9,1.9c24.4,1.7,34.9,13.2,35.8,37.8c0.3,8.8,0.7,17.6,1.1,26.4
		C2194.7,1252,2194.7,1262,2194.7,1272z M2020.6,1288.5c-0.4,0-0.8,0-1.3,0c0,21.5,0.2,43-0.1,64.4c-0.1,8.4,3.8,12.4,11.5,12.2
		c38.9-1,77.8-2.3,116.7-3.7c1.1,0,3.1-2.7,3.2-4.2c1.2-45.1,2.2-90.2,3-135.3c0-1.6-3.2-4.7-4.9-4.7c-41.1,0-82.3,0.3-123.4,0.9
		c-1.6,0-4.4,3-4.5,4.6C2020.5,1244.5,2020.6,1266.5,2020.6,1288.5z"/>
	<path class="st0" d="M1746.9,1390.2c1.9,191,4.1,381.9,5.4,572.9c0.3,42.3-1,84.7-12.7,125.9c-1.2,4.3-2.7,8.6-4.3,12.7
		c-15.7,39.4-42.3,52.4-85.5,39.3c-20.4-6.2-40.1-15.3-59.2-24.9c-169.1-84-330.3-182.2-492.2-278.9c-10.3-6.1-21.3-11.3-31-18.2
		c-14.9-10.6-31.2-13.6-48.9-13.3c-59.1,0.9-118.3,2.6-177.4,1.5c-30.1-0.5-60.6-4.3-90.1-10.3c-52.4-10.6-78.7-48.5-93.1-96.7
		c-9.7-32.4-10.4-65.8-10.7-99c-1.2-126-2.3-251.9-1.7-377.9c0.2-30.8,5.5-62,11.6-92.4c11.2-55.3,47.5-88.1,100-105.1
		c31.2-10.1,63.4-11.5,95.7-12.7c60.7-2.3,121.3-3.1,181.6,5c11.2,1.5,20.4-1.3,30.1-5.8c112-52.2,218-115.3,325.1-176.5
		c77.9-44.5,156.8-87.2,235.5-130.2c18.4-10,38.3-17,59.8-14.2c32.5,4.2,51.7,22.5,55.2,59.1c4.2,44,5.9,88.4,6,132.7
		c0.3,136.2-0.6,272.3-1,408.5c-0.1,32.8,0,65.7,0,98.5C1745.6,1390.2,1746.3,1390.2,1746.9,1390.2z M1707.6,1405.9
		c-0.5,0-1.1,0-1.6,0c0-150.5,0.3-300.9-0.1-451.4c-0.2-62.8-1.4-125.6-3.3-188.3c-1-34.3-18.4-44.7-48.8-28.8
		c-72.1,37.7-144.6,74.8-215,115.5c-120,69.4-239,140.6-365,199.2c-1.6,0.8-3.1,3.7-3.1,5.7c-1.8,236.8-3.4,473.6-4.9,710.3
		c0,2.3,2,5.5,4,6.8c11.2,6.9,22.8,13.1,34.1,19.8c167,98.6,331.9,200.8,506,286.8c18.1,8.9,37,16.6,56.3,22.4
		c18.6,5.7,28.2,0.5,33-18.4c5.5-21.7,10.1-44,10.9-66.3c2-54.4,2.4-109,2-163.4C1711,1705.8,1709.2,1555.9,1707.6,1405.9z
		 M1026,1411.5c1.6,0,3.2,0,4.8,0c0-116.5,0-232.9-0.2-349.4c0-1.9-3-5.3-4.8-5.3c-54.8-1.7-109.5-4.4-164.3-3.8
		c-29.7,0.3-59.9,3.9-88.9,10.4c-40.8,9.1-69,34.5-77.2,77.1c-5.1,26.5-10.2,53.6-10.3,80.5c-0.4,127.9,0.6,255.9,1.7,383.8
		c0.3,31.6,1.5,63.3,11.7,93.8c11,33.1,31.6,55.9,67.7,60.5c31.2,3.9,62.5,9,93.7,9.4c53.4,0.7,106.9-1.7,160.4-3.1
		c1.9-0.1,5.4-3.5,5.4-5.4C1026,1643.8,1026,1527.7,1026,1411.5z"/>
</g>
</svg>
