<?xml version="1.0" encoding="utf-8"?>
<!-- Generator: Adobe Illustrator 27.2.0, SVG Export Plug-In . SVG Version: 6.00 Build 0)  -->
<svg version="1.1" id="Layer_1" xmlns="http://www.w3.org/2000/svg" xmlns:xlink="http://www.w3.org/1999/xlink" x="0px" y="0px"
	 viewBox="0 0 170.1 170.1" style="enable-background:new 0 0 170.1 170.1;" xml:space="preserve">
<style type="text/css">
	.st0{fill:#525252;stroke:#525252;stroke-width:0.5;}
</style>
<g>
	<path class="st0" d="M89.4,117.3c-0.2,0.9-0.4,1.8-0.5,2.8c-0.2,1.9-0.3,3.9-0.5,5.8c0,0.2,0,0.5-0.1,0.7c-0.1,0.2-0.3,0.4-0.5,0.4
		c-0.2,0-0.4-0.2-0.5-0.3c-0.1-0.1-0.1-0.3-0.2-0.4c-0.2-1.1-0.7-2-1.2-2.9c-1.4-2.4-2.7-4.9-4.1-7.3c-0.2-0.3-0.4-0.7-0.6-1
		c-0.3,0.2-0.6,0.3-0.9,0.5c-2.9,1.7-6.1,3-9.4,3.8c-2.1,0.5-4.2,0.4-6.3,0.1c-10.6-1.5-18.6-7.1-24.7-15.6
		c-3.6-5.1-6.3-10.6-8.3-16.5c-1.2-3.5-2.4-7-3.6-10.5c-0.5-1.6-0.9-3.3-1-5c0-0.6,0-1.2,0.1-1.7c0.1-0.7,0.5-1.2,1.3-1.3
		c1.6-0.2,3.2-0.5,4.8-0.7c3.7-0.4,7.3-0.7,11-0.6c10.3,0.2,19.7,3,28.4,8.6c2,1.3,3.9,2.8,5.4,4.6c0,0,0.1,0.1,0.2,0.1
		c0.1-0.2,0.2-0.4,0.3-0.6c3.1-8.2,8.6-14.5,16.2-18.9c5.4-3.2,11.3-5.3,17.5-6.4c4.6-0.8,9.2-1.2,13.8-1.4c2.7-0.1,5.5-0.1,8.2-0.2
		c0.5,0,1,0,1.4,0.1c0.9,0.2,1.3,0.6,1.4,1.5c0.1,0.4,0.1,0.8,0.1,1.2c0.3,4.7,0.2,9.4-0.3,14.1c-0.5,4-1.4,7.9-2.6,11.7
		c-1.6,5.5-3.4,11-5.6,16.3c-2.2,5.3-5.2,10.2-9.5,14.2c-4.2,3.9-9.1,6.3-14.8,7.2c-1.5,0.2-3,0.4-4.5,0.5
		c-3.6,0.2-7.1-0.3-10.2-2.4C89.7,117.4,89.6,117.4,89.4,117.3z M89.6,116c0.7,0.5,1.3,0.9,2,1.3c1.9,1,3.9,1.4,6.1,1.5
		c2.4,0.1,4.7-0.1,7-0.6c5.4-1,10.2-3.4,14.2-7.2c3.2-3,5.5-6.7,7.5-10.5c1.9-3.7,3.2-7.6,4.5-11.5c2.3-6.6,4.3-13.2,5-20.2
		c0.4-4.1,0.6-8.2,0.2-12.4c-0.1-0.6-0.2-1.3-0.2-2c-0.7-0.1-1.4-0.1-2.1-0.2c-6.9-0.2-13.7,0.3-20.5,1.3c-6.3,1-12.3,3.1-17.9,6.4
		c-7.6,4.5-13.1,10.7-16,19.1c-2.3,6.6-2.6,13.3-0.5,20.1c0.7,2.2,1.6,4.2,2.9,6.1c1.5,2.4,3.1,4.8,5.1,6.8c0.5,0.5,1.1,0.9,1.7,1.5
		c0.1-0.4,0.2-0.6,0.3-0.8c0.5-1.6,0.9-3.2,1.5-4.8c2.6-8.4,6.8-16,11.8-23.1c2.5-3.6,5.4-6.9,8.6-9.8c0.8-0.7,1.7-1.4,2.6-2
		c0.3-0.2,0.7-0.3,0.9,0.1c0.2,0.4,0,0.6-0.3,0.8c-0.4,0.3-0.8,0.5-1.1,0.8c-1.7,1.6-3.6,3.1-5.1,4.9c-7.5,8.5-13,18.1-16.5,28.9
		C90.7,112.2,90.2,114,89.6,116z M80.7,113.9c-0.2-0.3-0.3-0.5-0.4-0.6c-2.4-3.9-5.1-7.6-7.9-11.3c-3.2-4.2-6.6-8.3-10.6-11.9
		c-3.1-2.9-6.5-5.4-10.5-6.7c-0.2-0.1-0.4-0.1-0.5-0.3c-0.2-0.2-0.4-0.4-0.2-0.6c0.1-0.2,0.4-0.3,0.6-0.3c0.2,0,0.4,0.1,0.6,0.2
		c3.1,1.1,5.7,2.8,8.3,4.8c3.2,2.6,6.1,5.5,8.8,8.6c4.4,5.1,8.4,10.7,12,16.4c0.2,0.3,0.4,0.6,0.7,1c0.7-0.5,1.3-1,1.8-1.5
		c0-0.2,0-0.2-0.1-0.3c-0.2-0.3-0.4-0.6-0.6-0.9c-1.6-2.3-3.1-4.7-4.2-7.3C76,96.7,75.8,90,77.7,83.1c0.2-0.9,0-1.5-0.5-2.2
		c-1.5-1.7-3.2-3.2-5.1-4.4c-8.3-5.1-17.2-8-27-8.2c-5.3-0.1-10.5,0.3-15.7,1.2c-0.8,0.1-1,0.3-1.1,1.1c0,0.5,0,1,0,1.4
		c0.2,1,0.3,2,0.6,3c1.8,6.4,4.1,12.7,6.8,18.8c1.7,3.7,3.7,7.2,6.2,10.4c5.7,7.5,13.2,12.2,22.6,13.8c2.6,0.4,5.2,0.5,7.8-0.3
		c2.6-0.8,5.2-1.9,7.5-3.3C80,114.4,80.3,114.2,80.7,113.9z M82.2,114.3c1.9,2.9,3.3,6,5.2,8.8c0.3-2.1,0.6-4.3,1-6.4
		c-1.7-1-2.8-2.5-4.1-3.9C83.5,113.2,82.9,113.7,82.2,114.3z"/>
</g>
</svg>
