<?xml version="1.0" encoding="utf-8"?>
<!-- Generator: Adobe Illustrator 27.3.1, SVG Export Plug-In . SVG Version: 6.00 Build 0)  -->
<svg version="1.1" id="Layer_1" xmlns="http://www.w3.org/2000/svg" xmlns:xlink="http://www.w3.org/1999/xlink" x="0px" y="0px"
	 viewBox="0 0 2834.6 2834.6" style="enable-background:new 0 0 2834.6 2834.6;" xml:space="preserve">
<style type="text/css">
	.st0{fill:#30313D;}
</style>
<g>
	<path class="st0" d="M541.7,1393c1-20.6,1.8-41.2,3-61.8c6.1-104,30.2-203.8,74.9-297.9C735,790.2,923.7,633,1181.7,559
		c81.9-23.5,166-30,250.9-24c84.3,6,168.6,14.9,250.1,37.2c108.7,29.8,206.4,81,287.3,162c39.7,39.8,79.1,79.7,114.7,123.2
		c0.7,0.9,1.5,1.7,3.4,3.8c0.6-7.1,1.5-12.8,1.6-18.6c0.8-28.3,1.6-56.6,2-85c0.3-20-0.5-39.9,0.2-59.9c0.4-12.5,8.2-19.3,19.3-18.9
		c11.8,0.3,19.8,8.1,19.5,20.6c-1.2,58.6-2.6,117.2-4.3,175.8c-0.2,7.9-2.1,15.9-4,23.6c-5.7,23.1-17.8,33.3-41.6,34.1
		c-32.1,1-64.3,1.2-96.4,1.9c-38.1,0.9-76.3,1.9-114.4,2.7c-5.6,0.1-11.4-0.3-16.9-1.5c-9.7-2.2-15.1-10.2-14.5-20.5
		c0.5-9.2,6.7-16.4,16.3-17.3c8.9-0.8,17.9,0,26.9-0.2c39.8-1.1,79.6-2.5,119.4-3.4c19.6-0.4,39.3-0.1,61.2-0.1
		c-2.9-3.8-4.1-5.4-5.4-7c-56.4-72-120.5-136.6-194-190.8c-27.7-20.4-60.5-34.1-91.6-49.6c-66.2-33.1-137.5-48.7-210.2-58.1
		c-46.6-6-93.2-11.7-140-15c-83-5.9-164.6,4.3-244.5,27.1c-278,79.4-499.3,306.8-570.5,586.7c-20.1,78.8-25.7,159.3-24.3,240.4
		c1.4,85.3,13,169.2,34.7,251.7c2.1,8.1,6.4,15.7,9.4,23.6c2.8,7.4,1.8,14.6-3.8,20.5c-5.1,5.5-12,8.6-18.9,5.7
		c-5-2.1-10.5-6.4-12.6-11.1c-7.4-17-15.6-34.1-19.6-52c-14.2-62.9-22.2-126.9-26.5-191.2c-1.4-21.4-2.1-42.9-3.1-64.3
		C541.7,1405,541.7,1399,541.7,1393z"/>
	<path class="st0" d="M775.2,1944.6c16.9,19.6,33.4,39.6,50.8,58.8c44.8,49.5,92.3,96.6,146.7,135.4c27.3,19.4,58.6,33.3,88.8,48.6
		c66.8,33.7,138.7,50.1,212.3,59.6c46.1,6,92.2,11.6,138.5,15c90.7,6.6,179.5-5.4,266.2-32.5c266.8-83.5,477-302.2,549.8-571.7
		c14.3-52.8,20.9-106.8,24.5-161.2c3.5-51.5,3-102.9-1.1-154.3c-5.1-63.9-15.7-126.8-32.2-188.7c-2-7.6-6.6-14.6-9-22.1
		c-4.2-13.1,4.9-25.2,18.5-25.7c7.3-0.3,12.6,3.6,15.4,9.3c6.6,13.5,14.6,27,17.7,41.5c8.1,37.3,14.6,75.1,20.4,112.9
		c9.3,59.4,12.4,119.2,12.1,179.3c-1.6,311.3-165.6,591.4-436.4,745.3c-89.2,50.7-184,85.2-285.5,100.7
		c-61.9,9.5-124.1,10.7-186.4,5.4c-73.5-6.3-146.6-16.3-218.7-32.2c-62.3-13.7-119.1-41.7-175.5-70.5
		c-50.7-25.9-92.6-63.4-132.3-103.2c-36.9-37-71.5-76.3-107.1-114.6c-1.1-1.2-2.2-2.4-4.5-5.1c-0.8,16.9-2.1,32.3-2.3,47.6
		c-0.4,33.6-0.2,67.3-0.4,100.9c0,6-0.1,12-1,17.9c-1.7,11-9.6,17.3-19.5,16.5c-11.3-0.9-19.1-8.5-19.2-19.7
		c0-37.2-0.6-74.3,0.7-111.5c1.1-29.1,3.2-58.2,7.5-87c3.8-25,17.6-35.5,42.8-36.1c70.6-1.7,141.2-3,211.9-4.4
		c4.8-0.1,9.7,0.2,14.4,1.2c9.3,2,15.2,10,15.1,19.1c-0.2,9.7-6.3,17.1-16.1,18.7c-4.1,0.7-8.3,0.9-12.4,1
		c-55.1,1.2-110.2,2.4-165.4,3.5c-9.3,0.2-18.6,0-28,0C776.1,1943.1,775.6,1943.8,775.2,1944.6z"/>
	<path class="st0" d="M1441.3,1907.1c-159.8,0.1-307.1-114.7-343.8-268.8c-8.7-36.4-8.5-73.7-5.2-110.9
		c8.6-97.3,43.6-186.5,86.1-273.1c43.5-88.5,98.9-169.7,157.9-248.4c23.4-31.2,47-62.2,70.5-93.2c4.9-6.5,11.6-8.6,19.5-6.8
		c8,1.8,13.3,6.3,15.5,14.4c0.9,3.5,2.3,6.9,4,10.1c56,98,113.2,195.3,167.6,294.1c37.3,67.7,70.1,138,95.4,211.3
		c16.6,48.3,26.4,98.1,24.5,149.5c-3.2,87.8-29.8,167.2-89.7,233.1C1590.6,1876.9,1520.4,1907.1,1441.3,1907.1z M1419.4,962.7
		c-0.9,1.1-1.3,1.6-1.7,2.2c-69,86.9-133.2,177-186.3,274.6c-44.7,82.1-81.9,167.1-96.3,260.4c-7.5,48.9-8,97.8,6.2,145.6
		c26.3,88.7,84.5,150.5,166.4,190.5c51.3,25,105.9,36.7,162.9,29.6c79.2-9.9,138.3-51.5,178-119.9c49.8-86,56.5-177.8,30.5-272.3
		c-15.6-56.6-40.6-109.8-66-162.6c-45-93.6-98.1-182.7-150.1-272.4C1448.5,1013.4,1434.3,988.5,1419.4,962.7z"/>
	<path class="st0" d="M1604.6,1555c-4.7,29.3-9.1,58.7-14.2,88c-1.4,8.3-5.2,16.1-14.4,18.9c-15.3,4.5-28.5-8.8-24.8-25
		c7.2-32.1,12.7-64.2,10.7-97.4c-2.5-40.7-12.1-79.2-34-114c-4.4-7-10-13.3-15.7-19.3c-7.6-8.1-9-19.1-2.7-27.2
		c6.6-8.5,18.2-10.8,26.9-3.4c8.6,7.3,16.8,15.9,22.9,25.3c30.1,46.7,42.4,98.6,42.6,153.7C1602.8,1554.7,1603.7,1554.8,1604.6,1555
		z"/>
</g>
</svg>
