<?xml version="1.0" encoding="utf-8"?>
<!-- Generator: Adobe Illustrator 27.4.1, SVG Export Plug-In . SVG Version: 6.00 Build 0)  -->
<svg version="1.1" id="Layer_1" xmlns="http://www.w3.org/2000/svg" xmlns:xlink="http://www.w3.org/1999/xlink" x="0px" y="0px"
	 viewBox="0 0 2256.2 2256.2" style="enable-background:new 0 0 2256.2 2256.2;" xml:space="preserve">
<style type="text/css">
	.st0{fill:#323232;}
</style>
<g id="Ebene_1-2">
	<g>
		<path class="st0" d="M664.1,1918.2c4.3,0.7,7.1,1.5,10,1.6c41.5,2.4,83,4.6,124.4,1.5c23.7-1.8,47.4-6,70.9-10
			c64.4-10.9,128.6-23.3,191.9-39.7c44-11.4,87.5-24.4,131.3-36.5c32.9-9.1,66-17.6,98.9-26.9c25.3-7.2,49.3-17.6,72.9-29
			c43-20.8,86.5-40.7,129.6-61.1c33-15.6,65.5-32.3,96.4-51.8c31.3-19.7,60.2-42.5,85-70.1c16.1-17.9,28.8-38,37.5-60.7
			c6.6-17.1,5.9-33.7-0.1-50.6c-5.1-14.3-13.3-26.7-23.3-38c-14.2-16.1-30.7-29.3-49.1-40.2c-25.5-15.1-52.4-27.3-80.1-37.5
			c-44.9-16.6-88.3-36.3-130.3-59.2c-26.8-14.6-54.2-28.1-81-42.8c-23.1-12.7-44.1-28.3-62.5-47.3c-15.4-15.9-27.7-33.9-36.1-54.4
			c-11.1-27.2-12-54.6-3.7-82.8c14.3-48.4,41.6-86.5,83.7-114.9c46.1-31,96.3-51.8,149.5-66.1c51.3-13.8,102.8-26.4,155.5-33.7
			c39.1-5.5,78.4-9.6,118-9.9c7.5-0.1,15,0,23.5,0c-1.7-3.2-3-6.1-4.7-8.9c-16.9-27.8-33.6-55.8-50.9-83.3
			c-20.3-32.4-39.5-65.3-56.5-99.5c-3.4-6.8-6.7-13.8-10.7-20.3c-19.2-30.9-28.8-65.4-30.9-100.9c-4.1-68.9,18.8-127.9,72.3-173.3
			c25.1-21.2,54.3-32.5,87.2-35c69.6-5.3,125.7,20.1,167.3,75.4c33.2,44.2,40.5,94.3,25.7,147.5c-3.4,12.1-7.7,24-12.4,35.7
			c-37.7,92.8-83.9,181.3-136,266.7c-3.1,5.1-6.1,9.8-6.6,16.3c-0.6,7.3-9.1,14-16.9,14.5c-3,0.2-6.1,0.2-8.9-0.5
			c-29.9-7.1-60.1-5.4-90.2-2.9c-62.3,5.2-123.7,15.8-184.3,31.2c-35.7,9.1-71,19.8-105,33.8c-30.3,12.4-58.3,28.7-83.9,49.2
			c-32.2,25.8-51.5,59.4-59.5,99.6c-3.7,18.5-1,36.4,6.7,53.5c9.9,22.2,24.5,41.2,43.5,56.2c12.7,10,25.9,20,40.1,27.6
			c47,25.4,94,50.7,142,74.1c27.6,13.5,57.1,23.4,85.7,34.9c23.7,9.6,46.9,20.3,68.7,33.8c20.2,12.5,38.6,27.1,54,45.2
			c17.3,20.3,29.6,43.1,33.8,69.9c1.8,11.1,0.9,21.8-1.8,32.5c-7.1,28.6-21.3,53.5-40,76c-24.4,29.4-53.5,53.4-84.8,75
			c-29,20.1-60.2,36.4-91.9,51.6c-51.2,24.5-102.5,48.6-153.7,73.1c-34.8,16.7-71,29.4-108.3,39.2c-44.9,11.7-89.5,24.6-134.2,37.2
			c-59.5,16.7-119.4,31.1-180.2,42c-33,5.9-65.7,13.3-98.8,18.5c-24.2,3.8-48.8,6.6-73.2,7.2c-34.2,0.8-68.4-0.9-102.5-1.7
			c-6.6-0.2-13.1-1.7-19.7-2.7c-18.8-2.7-30.3-15.8-40-30c-9.9-14.5-18.1-30.1-26.9-45.4c-65.2-114.1-128.4-229.4-190.1-345.5
			c-19.6-37-40.2-73.4-59.8-110.3c-19.8-37.3-37.3-75.6-49.7-116.1c-13.2-43.3-19.1-87.1-16.2-132.6c2.6-40.7,10.6-79.5,28.3-116.2
			c17.3-35.7,38.6-68.9,63.4-99.8c29.4-36.7,67.3-61.6,110.6-79c53.3-21.4,108.6-32.6,165.9-33.6c78.3-1.4,147.6,25,210.9,69.5
			c74.2,52.1,114.4,124.8,128.5,212.9c3.5,21.5,5.2,43.5,6.1,65.3c1.5,33.5-5.9,65.9-13.9,98.2c-18.5,74.9-41.9,148.3-77,217.2
			c-22.1,43.4-45.3,86.4-69.4,128.9c-51.5,91-103.8,181.6-155.7,272.3C669.6,1907.2,667.1,1912.1,664.1,1918.2L664.1,1918.2z
			 M640.5,1898.8c2.8-4.5,4.8-7.5,6.6-10.6c52.5-91.9,105-183.9,157.5-275.9c25.2-44.1,50-88.4,72.3-134.1
			c30.5-62.4,49.6-128.6,67.8-195.3c7-25.6,12.8-51.6,14.1-78.3c1.4-28.9-0.7-57.7-6.1-86.2c-15-80.9-54.4-146.2-123.3-192.4
			c-59.8-40-125-62.3-197.8-58.7c-57.3,2.9-112.1,16.3-164.2,40.4c-28.2,13-52.8,31-72.7,54.6c-31,36.7-56.4,77.1-74.8,121.6
			c-2.1,5.2-4,10.6-5.5,16c-16.1,57-15.6,114-0.8,171.1c12.1,46.9,31.3,91,53.9,133.6c20.5,38.7,42.3,76.7,62.8,115.4
			c63.8,119.8,128.8,239,197,356.4C631.1,1883.5,635.3,1890.3,640.5,1898.8L640.5,1898.8z M1803.6,844.1c3-4.7,4.9-7.7,6.8-10.8
			c38.1-62.8,72.4-127.6,102.5-194.5c11.9-26.6,23.6-53.5,32.7-81.2c18.6-56.8,5.2-106.9-37-148.8c-25.6-25.5-57.3-39-93.2-42.8
			c-42.7-4.5-80.8,6-111.2,37c-41,41.9-58.5,92.4-50.7,150.9c3.3,25.2,10.1,49.4,22.3,71.9c7.3,13.4,14.3,27,21.7,40.3
			c12.5,22.6,24.9,45.4,38.1,67.6c20.3,33.9,41.3,67.3,61.9,101C1799.1,837.5,1800.9,840.1,1803.6,844.1L1803.6,844.1z"/>
		<path class="st0" d="M647.6,971.1c133.2-0.5,242.4,108.3,242.7,241.5c0.3,134.2-107.8,243.4-241.6,243.9
			c-133.6,0.6-243.6-108.5-243.9-241.8C404.6,1080.1,512.7,971.5,647.6,971.1L647.6,971.1z M648.3,1000.4
			c-117.7-0.4-213.6,94.4-214.2,211.7c-0.6,118.4,94.9,214.9,213,215.3c117.8,0.3,213.7-94.9,214-213
			C861.5,1093.8,763.3,1000,648.3,1000.4L648.3,1000.4z"/>
		<path class="st0" d="M1799.9,608c-45.5,0-82-36.8-81.9-82.6c0.1-45,36.8-81.3,82.1-81.4c45.1,0,81.9,36.7,82.1,81.6
			C1882.3,571.2,1845.5,608.1,1799.9,608L1799.9,608z M1799.6,578.8c29.5,0.2,53.6-23.5,53.5-52.8c0-28.7-23.8-52.6-52.6-53
			c-28.7-0.4-52.9,23.3-53.3,52.1C1746.8,554.7,1770.1,578.5,1799.6,578.8L1799.6,578.8z"/>
	</g>
</g>
</svg>
