<?xml version="1.0" encoding="utf-8"?>
<!-- Generator: Adobe Illustrator 27.3.1, SVG Export Plug-In . SVG Version: 6.00 Build 0)  -->
<svg version="1.1" id="Layer_1" xmlns="http://www.w3.org/2000/svg" xmlns:xlink="http://www.w3.org/1999/xlink" x="0px" y="0px"
	 viewBox="0 0 2471.8 2471.8" style="enable-background:new 0 0 2471.8 2471.8;" xml:space="preserve">
<style type="text/css">
	.st0{fill:#303030;}
</style>
<g>
	<path class="st0" d="M751.3,1332.7c-49.7-62.9-96.3-127-126.5-201.5c-25.3-62.7-41.8-127.2-39.4-195.3
		c3.8-109.3,38.3-206.9,118.3-283.4c64.7-61.8,142.9-99.6,232.4-110.7c117.3-14.6,222.2,19.2,318.6,84.3
		c38.3,25.8,72.6,56.3,103.9,90.3c1,1.1,2,2.2,1.8,2c22.7-18.9,44-39.1,67.7-55.7c71.2-49.9,145.6-94,231.4-114.3
		c108.4-25.7,213.8-19.9,310.6,39.7c118.7,73,188.4,180.5,209.3,318c11.7,77.3-6.1,151.2-36.7,222.3
		c-28.3,65.6-70.5,121.9-115.5,176.7c-90.6,110.4-195.8,205.2-309,291.7c-78.3,59.8-156,120.3-226.1,189.8
		c-30.4,30.1-61.4,60-78.4,100.6c-4.8,11.3-8.3,23.2-12.5,34.7c-7.9,21.1-25.6,24.7-38.7,6.3c-88.8-124.8-206.3-220-323.3-315.8
		c-52.9-43.3-106.1-86.1-159.1-129.2c-3.9-3.1-7.4-6.6-11.5-10.3c-20.7,15.6-41.5,31.4-62.3,47.1c-21.9,16.6-43.9,33.1-65.7,49.9
		c-1.4,1.1-2,5.5-0.9,6.9c28.2,38.8,57.2,77,84.8,116.3c8.8,12.6,16,27.2,20.1,41.9c6.2,22.2-2.9,41.9-18,58.1
		c-15.8,16.9-32.1,33.5-49.5,48.7c-36,31.3-68.4,30-103.2-2.5c-5.5-5.1-11.1-10-16.7-15c-10.6,9-21.8,19.5-34,28.6
		c-16.9,12.6-35.9,21.7-57.2,15.1c-10.9-3.4-22-10.5-29.8-18.9c-20.2-21.7-38.5-45-57.9-67.5c-1.2-1.4-5.4-1.9-7-0.9
		c-13.9,8.8-27,19-41.4,26.9c-19.8,10.8-33,8.5-47.7-8.4c-27-30.8-53-62.6-72.3-99.1c-12.1-22.9-9-41.1,10.2-58
		c10.4-9.1,21-18,31.9-27.4c-5.9-7.5-12.2-15.1-18-23.1c-15.9-21.7-33.6-42.6-39.9-69.7c-6-25.7-1-48.9,19.4-66.9
		c13-11.4,26.9-21.8,40.6-32.8c-5.8-7.4-11.8-15-17.7-22.5c-11.1-13.9-12.5-29.7-4.2-44.5c7.8-13.9,16.9-28.3,28.9-38.2
		c22.8-18.9,47.3-36.2,72.7-51.5c22.4-13.5,45.6-7.5,62.6,12.7c41.6,49.1,83,98.3,124.6,147.3c1,1.2,4.3,2.2,5.2,1.6
		C668.1,1395.7,709.8,1364.1,751.3,1332.7z M1374.4,1877c20.2-44,50.6-79.6,83.6-113.2c64.8-66.1,137.7-122.9,211.2-178.8
		c108.3-82.5,211.9-170,300.8-273.6c47.1-54.9,93.3-110.5,125.9-175.9c52-104.3,64.8-211.3,18.3-320.6
		c-67.9-159.9-220.7-275.6-431.2-231.5c-59.2,12.4-112.4,38.7-164.3,68.3c-45.7,26.1-89.1,55.4-126,93.5c-3.6,3.7-4.1,5.9-0.8,10.6
		c23.7,33.2,47.1,66.6,70,100.3c7.2,10.5,3.7,22.1-6.5,27.9c-10.7,6-21.2,2.5-27.9-8.6c-56.9-93.6-126-175.8-221-233
		c-92-55.3-190.6-78.7-297.3-55.5c-77,16.7-144.8,53.5-195.4,112.8C637.2,789.1,611.3,895.7,631,1012
		c14.2,83.7,50.3,158.5,99.6,227.2c16.9,23.5,34.8,46.2,52.2,69.1c1.6-0.7,2.1-0.9,2.5-1.2c58.3-44.1,116.7-88.2,174.9-132.5
		c1-0.7,1.2-4.1,0.4-5.3c-9.6-13.2-19.7-26.1-29.2-39.3c-25.6-35.5-52.2-70.4-75.9-107.1c-19.4-30.1-15.2-58.2,8.6-84.6
		c10.6-11.7,21.8-23,33.4-33.7c10.1-9.3,20.6-18.7,32.2-25.9c24.5-15.3,49.4-14.5,72.6,3.3c10.6,8.2,20.1,17.8,28.8,25.6
		c17.3-12.6,33.9-27,52.6-37.7c21.9-12.5,44.6-10.7,63.6,7.4c12,11.5,23.1,23.9,34,36.5c11.5,13.3,22.2,27.3,32.5,40.1
		c16.6-10.4,32.2-21.5,48.9-30.2c17.5-9.2,30.1-6.8,43.2,7.8c28.7,32.1,55.9,65.4,75.7,103.9c10.3,20.1,6.4,39.1-10.6,53.9
		c-10.9,9.5-21.9,18.8-33.1,28.4c1.3,1.7,2.7,3.3,3.9,5.1c14.8,20.9,31,41,44,63c22.6,38.2,15.1,73-19.5,100.7
		c-10.1,8-20.5,15.7-30.7,23.4c6.8,8.7,13.5,16.8,19.6,25.4c2.8,4,5.1,8.7,6.1,13.5c4.4,20.9-5.1,37.7-18.1,52.2
		c-25.4,28.6-55.6,51.2-90.1,67.7c-21,10-43.3,4.8-58-12.4c-38.4-45.2-76.6-90.6-115.2-135.7c-1.3-1.5-6.2-2.1-7.7-0.9
		c-55.7,41.8-111.3,83.8-166.8,125.8c-1.4,1.1-2.8,2.2-4.6,3.7c18.5,15.2,36.6,29.9,54.6,44.7c87.5,72.5,176,143.8,262.1,217.9
		C1274.8,1761.1,1327.6,1815.7,1374.4,1877z M808,1746.8c-3.6-7.8-5.8-15.9-10.4-22.3c-24.4-34.5-49.4-68.7-74.3-102.9
		c-79.7-109.3-166.9-212.5-254.7-315.2c-7.4-8.6-14.1-9.2-22.7-3.2c-15.7,10.9-32.4,20.6-47,32.9c-11.3,9.6-20.2,22.2-29.6,33.9
		c-1.2,1.5-0.5,6.1,1,8c19.3,24.2,39.9,47.5,58.3,72.3c65.2,88.1,129.1,177.1,194.7,264.9c25,33.4,52.3,65.2,80.4,96.1
		c16.7,18.4,26.5,18,45.5,1.6c17.6-15.2,33.7-32.1,49.9-48.9C803.2,1759.8,804.8,1753.2,808,1746.8z M881.9,985.3
		c3.5,7.8,5.6,15.7,10,22c23.9,33.9,48.3,67.4,72.7,100.9c80.6,110.5,168.5,215,257.5,318.6c6.4,7.5,12.7,8.3,20.3,3
		c16.7-11.5,34.3-21.9,49.8-34.9c11-9.2,19.3-21.6,28.4-33c1.1-1.4,0.4-5.8-1.1-7.6c-20.4-25.5-42-50.1-61.4-76.3
		c-64-86.5-126.7-174-191.1-260.1c-25.2-33.7-52.7-65.7-80.9-96.9c-16.8-18.6-26.8-18.1-45.9-1.5c-17.4,15.2-33.5,31.9-49.5,48.6
		C886.7,972.3,885.1,978.9,881.9,985.3z M712.7,1540.9c113-85.4,225.6-170.5,338.3-255.6c-21.6-27.3-42.7-54-64-80.9
		c-112.8,85.3-225.3,170.4-337.9,255.6C670.5,1487,691.4,1513.7,712.7,1540.9z M1309.1,1280.7c14.7-12,29.1-22.2,41.3-34.6
		c5-5,8.6-15.8,6.8-22.3c-3.7-13.5-9.6-27.2-17.9-38.4c-45.7-61.5-92.1-122.5-138.8-183.2c-22.8-29.6-46.4-58.5-70.4-87
		c-13.8-16.4-23.1-16.9-40.1-3.8c-11.4,8.8-21.8,19-31.1,27.2C1142.4,1052.8,1225.4,1166.3,1309.1,1280.7z M632.8,1792.5
		c-0.8-1.3-1.2-2-1.7-2.7c-44.9-60-90.1-119.8-134.8-179.9c-37.9-50.9-75.3-102.2-113-153.2c-0.9-1.3-4.3-2.5-5-1.9
		c-13.1,10-26.7,19.5-38.4,31c-4.9,4.8-7.9,14.2-7.5,21.3c1,18.8,12.7,33.2,23.6,47.5c43.3,57.2,86.5,114.6,130.4,171.4
		c24.7,31.9,50.2,63.1,76.3,93.8c11.1,13.1,19.6,13.7,33.5,3.6C609,1814,620.6,1802.9,632.8,1792.5z M1312.8,1086.5
		c10.7-9.1,20.9-17.6,30.7-26.5c1.6-1.4,2.4-5.7,1.5-7.6c-16.5-33.8-40.6-62.3-65.2-90.4c-0.8-1-4.1-1-5.4-0.2
		c-10.7,7-21.3,14.2-31.6,21.7c-1.4,1-2.1,5.4-1.1,6.8c11,15.5,22.3,30.7,33.6,45.9C1287.6,1052.9,1300,1069.3,1312.8,1086.5z
		 M377.1,1645.6c-11,9.4-21.2,17.9-31,26.8c-1.5,1.4-2.3,5.7-1.3,7.2c16.9,25,33.5,50.4,51.7,74.5c15.4,20.3,16.3,19.7,37,4.8
		c18-12.8,18-12.9,5-30.6C418.3,1701.1,398,1673.9,377.1,1645.6z"/>
</g>
</svg>
