<?xml version="1.0" encoding="utf-8"?>
<!-- Generator: Adobe Illustrator 27.0.0, SVG Export Plug-In . SVG Version: 6.00 Build 0)  -->
<svg version="1.1" id="Layer_1" xmlns="http://www.w3.org/2000/svg" xmlns:xlink="http://www.w3.org/1999/xlink" x="0px" y="0px"
	 viewBox="0 0 170.1 170.1" style="enable-background:new 0 0 170.1 170.1;" xml:space="preserve">
<style type="text/css">
	.st0{fill:#525252;stroke:#525252;stroke-width:0.5;}
</style>
<g id="Z5hwGz.tif">
	<g>
		<path class="st0" d="M126.2,46.9c0,0.3-0.1,0.5-0.1,0.8c0,0.9-0.4,1.3-1.3,1.3c-0.9,0-1.8,0-2.7,0c-0.2,0-0.3,0-0.5,0
			c-0.7,0-1,0.3-1.1,1c-0.4,3.3-0.9,6.6-1.2,9.9c-0.4,3.2-0.6,6.4-1,9.7c-0.3,3.1-0.6,6.3-0.9,9.4c-0.3,2.8-0.5,5.5-0.8,8.3
			c-0.3,2.8-0.6,5.6-0.9,8.4c-0.3,2.6-0.6,5.2-1,7.9c-0.3,2.7-0.7,5.3-1.1,7.9c-0.3,2.7-0.7,5.4-1,8.1c-0.3,2.6-0.6,5.1-0.8,7.7
			c-0.2,2.3-0.4,4.5-0.6,6.8c-0.1,0.7-0.1,1.5-0.2,2.2c-0.2,1.2-0.9,1.9-2.2,1.9c-1.4,0.1-2.8,0.1-4.2,0.1c-3,0-6.1,0-9.1,0.1
			c-6.8,0.2-13.6,0.4-20.4,0.2c-3.5-0.1-7,0-10.6,0c-0.2,0-0.4,0-0.6,0c-0.8,0-1.2-0.3-1.4-1.1c-0.2-1.1-0.4-2.2-0.6-3.3
			c-0.2-1.8-0.4-3.6-0.7-5.5c-0.3-2.6-0.6-5.2-0.9-7.7c-0.3-2.3-0.6-4.5-0.9-6.8c-0.4-3.2-0.9-6.4-1.4-9.7c-0.5-3.2-0.9-6.3-1.4-9.5
			s-0.9-6.3-1.3-9.5c-0.4-3-0.8-5.9-1.2-8.9c-0.3-2.7-0.6-5.4-1-8.1c-0.4-3.3-0.8-6.6-1.2-9.9c-0.4-2.6-0.8-5.2-1.2-7.8
			c0-0.2-0.1-0.3-0.1-0.5c-0.1,0-0.2,0-0.4,0c-1.3,0-2.6,0-3.9,0.1c-0.5,0-0.9-0.3-1-0.7c-0.5-2.7-1-5.4-1.4-8.1
			c-0.1-0.5-0.1-1.1,0-1.6c0-0.6,0.4-1,1-1.2c0.7-0.1,1.3-0.2,2-0.3c2.3-0.2,4.6-0.4,6.9-0.5c2.8-0.2,5.6-0.3,8.4-0.4
			c4.7-0.2,9.5-0.4,14.2-0.6c0.4,0,0.7-0.1,1.2-0.1c-0.1-0.8-0.2-1.5-0.3-2.2c-0.1-0.5-0.1-1.1,0-1.6c0.1-0.7,0.6-1.1,1.3-1.2
			c2.2-0.1,4.4-0.1,6.7-0.3c1.7-0.1,3.4-0.2,5.1-0.4c0.1,0,0.2,0,0.3,0c1.1,0,1.9,0.3,1.9,1.6c0,1.1,0.1,2.2,0.1,3.2
			c0,0.6,0.2,0.8,0.8,0.8c0.8,0,1.6-0.1,2.3-0.1c2.6-0.1,5.3-0.2,7.9-0.2c4.5-0.1,8.9-0.1,13.4-0.2c1.4,0,2.8-0.2,4.2-0.2
			c0.9,0,1.8,0,2.7,0.1c1.1,0.2,1.4,0.7,1.5,1.7c0.1,2.3,0.3,4.7,0.5,7c0,0.1,0,0.2,0.1,0.3L126.2,46.9L126.2,46.9z M51.6,50.4
			c0,0.3,0.1,0.5,0.1,0.7c0.5,3.1,1,6.2,1.4,9.3c0.4,2.8,0.7,5.7,1.1,8.5c0.4,3.4,0.8,6.9,1.2,10.4c0.4,2.9,0.8,5.7,1.2,8.6
			c0.4,3.1,0.9,6.1,1.3,9.2c0.5,3.2,0.9,6.4,1.4,9.7c0.4,2.9,0.8,5.8,1.2,8.8c0.4,2.7,0.7,5.4,1.1,8.2c0.3,2.5,0.6,5.1,0.9,7.6
			c0.2,1.9,0.4,3.7,0.7,5.6c0.1,0.7,0.3,0.8,1,0.8c3.3,0,6.6,0,9.8,0c6.2,0.1,12.3,0.1,18.5-0.1c3.7-0.1,7.4-0.1,11.1-0.2
			c1.5,0,3.1,0,4.6,0c1.3,0,1.6-0.3,1.9-1.5c0.2-0.9,0.2-1.9,0.3-2.9c0.2-2.1,0.4-4.2,0.6-6.3c0.2-2,0.4-4.1,0.7-6.1
			c0.2-2.1,0.5-4.1,0.8-6.2c0.3-2.8,0.7-5.7,1-8.5c0.3-2.7,0.7-5.5,1-8.2c0.3-2.9,0.6-5.7,1-8.6c0.3-3.1,0.7-6.1,1-9.2
			c0.3-3,0.6-6.1,0.9-9.1c0.3-3.6,0.6-7.1,1-10.7c0.3-2.9,0.7-5.8,1.1-8.7c0.1-0.8,0.2-1.6,0.4-2.4c-0.2,0-0.3,0-0.4,0
			c-2.4,0.1-4.8,0.2-7.2,0.3c-6.3,0.2-12.6,0.4-18.8,0.4c-13.6,0.1-27.2,0-40.8,0.6C52.1,50.4,51.9,50.4,51.6,50.4L51.6,50.4z
			 M125.1,48c0-0.3,0.1-0.6,0.1-0.9c-0.1-1.6-0.1-3.3-0.2-4.9c-0.1-1.4-0.2-2.8-0.3-4.2c-0.1-0.6-0.3-0.8-0.9-0.9
			c-0.3,0-0.6,0-0.9,0c-1.5,0.1-3,0.2-4.5,0.2c-4.5,0.1-9.1,0.2-13.6,0.3c-1.9,0-3.8,0-5.7,0.1c-1.9,0-3.8,0.1-5.7,0.2
			c-1.1,0-1.5-0.4-1.6-1.5c-0.1-1.1-0.1-2.2-0.1-3.3c0-0.6-0.3-0.9-1-0.8c-2.5,0.2-5,0.3-7.5,0.4c-1.4,0.1-2.9,0.1-4.3,0.2
			c-0.5,0-0.6,0.2-0.6,0.7c0.1,0.6,0.1,1.2,0.2,1.9c0,0.5,0.1,0.9,0.1,1.4c0,0.8-0.5,1.2-1.3,1.3c-0.4,0-0.8,0-1.2,0
			c-4.8,0.2-9.5,0.4-14.3,0.6c-2.6,0.1-5.2,0.2-7.8,0.4c-2.8,0.2-5.5,0.4-8.2,0.6c-0.8,0.1-1.1,0.4-1,1.2c0.5,2.7,0.9,5.5,1.4,8.2
			c0,0.3,0.1,0.4,0.4,0.4c0.9,0,1.8,0,2.7,0c0.5,0,1-0.1,1.5-0.2c0.1,0,0.2,0,0.3,0c0.2,0,0.3,0.1,0.5,0.1c2.2,0,4.4-0.1,6.6-0.1
			c6.2-0.1,12.4-0.3,18.7-0.4c3.5,0,7.1,0.1,10.6,0c6.7-0.1,13.4-0.2,20.1-0.4c4.7-0.1,9.4-0.3,14.1-0.5C122.9,48.1,124,48,125.1,48
			L125.1,48z"/>
		<path class="st0" d="M97.4,71.2c0.2-1.2,0.3-2.4,0.4-3.6c0.1-1.2,0.2-2.4,0.3-3.6c0-0.1,0-0.1,0-0.2c0.1-0.3,0.2-0.5,0.6-0.4
			c0.3,0.1,0.4,0.3,0.4,0.6c-0.1,0.9-0.2,1.8-0.2,2.7c-0.2,1.5-0.3,2.9-0.5,4.4c-0.1,0.4-0.2,0.7-0.4,1.1c-0.2,0.4-0.6,0.6-1,0.5
			c-2.9-0.6-5.8-0.8-8.8-1.1c-0.5,0-0.7-0.2-0.7-0.5c0.1-0.3,0.3-0.5,0.8-0.4c1.4,0.1,2.7,0.2,4.1,0.4c1,0.1,2.1,0.3,3.1,0.4
			c0.1,0,0.3,0,0.5,0.1c-0.1-0.1-0.1-0.2-0.1-0.2c-3-4.4-6.3-8.7-9.7-12.9c-0.2-0.3-0.5-0.6-0.8-0.9c-0.3-0.3-0.6-0.3-0.9,0.1
			c-0.2,0.3-0.4,0.6-0.6,0.9c-1.7,3.4-3.3,6.8-5,10.2c-0.8,1.6-1.6,3.3-2.3,4.9c-0.1,0.2-0.2,0.5-0.3,0.8c-0.1,0.2-0.2,0.4-0.3,0.5
			c-0.1,0.1-0.4,0.2-0.6,0.1c-0.1-0.1-0.2-0.3-0.2-0.5c0-0.2,0.1-0.5,0.2-0.7c2.3-4.9,4.6-9.8,7-14.6c0.4-0.9,1-1.7,1.6-2.5
			c0.6-0.7,1.2-0.8,1.9-0.2c0.3,0.3,0.7,0.6,0.9,1c3.6,4.3,6.8,8.8,10.1,13.3c0.1,0.1,0.2,0.2,0.3,0.4
			C97.3,71.2,97.3,71.2,97.4,71.2L97.4,71.2z"/>
		<path class="st0" d="M73.8,80.2c-1,1.7-2,3.3-2.9,5c-1.5,2.7-2.9,5.4-4.4,8.1c-0.1,0.1-0.1,0.2-0.1,0.3c-0.1,0.3,0,0.5,0.3,0.6
			c0.7,0.1,1.4,0.2,2.2,0.3c1.9,0.1,3.9,0,5.8,0.1c2.6,0.1,5.3,0.2,7.9,0.3c0.4,0,0.8,0,1.2,0c0.2,0,0.4,0,0.6,0.1
			c0.1,0.1,0.2,0.3,0.2,0.5s-0.2,0.3-0.4,0.4c-0.1,0.1-0.2,0-0.4,0c-3.3-0.1-6.5-0.3-9.8-0.4c-1.6-0.1-3.3,0-4.9-0.1
			c-0.8,0-1.6,0-2.4-0.2C65.4,95,65,94.2,65.5,93c0.6-1.2,1.2-2.4,1.9-3.7c1.6-2.9,3.3-5.8,4.9-8.7c0.1-0.2,0.2-0.4,0.3-0.7
			c-0.2,0.1-0.4,0.1-0.5,0.2c-2.2,0.9-4.4,1.8-6.6,2.6c-0.3,0.1-0.7,0.2-1,0.3c-0.3,0.1-0.4,0-0.5-0.3c-0.1-0.2,0-0.5,0.2-0.6
			c0.1-0.1,0.2-0.1,0.3-0.1c2.5-1,5.1-2,7.6-3c0.1-0.1,0.2-0.1,0.4-0.1c1-0.3,1.7-0.1,2.2,0.8c0.9,1.7,1.8,3.4,2.6,5.2
			c0.2,0.4,0.4,0.9,0.7,1.4c0.2,0.3,0.1,0.6-0.2,0.8c-0.4,0.2-0.6,0-0.7-0.3c-0.8-1.7-1.6-3.4-2.5-5.1
			C74.3,81.2,74.1,80.8,73.8,80.2L73.8,80.2z"/>
		<path class="st0" d="M93.4,96.1c0.2,0.1,0.3,0.2,0.5,0.3c1.2,0.8,2.5,1.6,3.7,2.4c0.2,0.1,0.3,0.3,0.4,0.5c0,0.1-0.1,0.4-0.3,0.4
			c-0.2,0.1-0.4,0-0.6-0.1c-1.2-0.8-2.4-1.6-3.7-2.4c-0.5-0.3-0.9-0.6-1.4-0.9c-0.7-0.5-0.8-1-0.3-1.7c1-1.5,2-3,2.9-4.5
			c0.4-0.6,0.7-1.1,1.1-1.6c0.2-0.2,0.4-0.5,0.7-0.2c0.3,0.2,0.3,0.5,0,0.9c-1.2,1.7-2.3,3.4-3.4,5.1c-0.2,0.2-0.3,0.5-0.5,0.8
			c5.5,0,11,0,16.5-0.6c-0.4-0.8-0.7-1.5-1.1-2.1c-1.1-1.9-2.3-3.7-3.5-5.6c-1.6-2.7-3.2-5.4-4.9-8.1c-0.2-0.3-0.2-0.6,0.1-0.8
			c0.3-0.2,0.5-0.1,0.8,0.3c1,1.6,2,3.3,3,4.9c1.8,2.8,3.5,5.7,5.3,8.6c0.4,0.7,0.8,1.4,1.1,2.2c0.4,0.9,0.1,1.4-0.8,1.6
			c-0.8,0.2-1.7,0.3-2.6,0.3c-3.9,0.1-7.8,0.2-11.6,0.3C94.4,96,93.9,96,93.4,96.1C93.4,96,93.4,96.1,93.4,96.1L93.4,96.1z"/>
	</g>
</g>
</svg>
