<?xml version="1.0" encoding="UTF-8"?>
<svg id="Layer_1" data-name="Layer 1" xmlns="http://www.w3.org/2000/svg" viewBox="0 0 170.1 170.1">
  <defs>
    <style>
      .cls-1 {
        fill: #525252;
        stroke: #525252;
        stroke-miterlimit: 10;
        stroke-width: .5px;
      }
    </style>
  </defs>
  <g id="ASj668.tif">
    <g>
      <path class="cls-1" d="M99.42,29.51c.56,.25,.73,.68,.73,1.28,0,1.97,.05,3.95,.09,5.92,0,.19,0,.39,0,.64,.24,.01,.43,.03,.61,.03,8.5,0,16.99,0,25.49,0,.18,0,.36-.03,.53-.02,.43,.02,.69,.21,.71,.69,.06,2.38,.14,4.76,.2,7.14,.02,.67-.25,.89-.92,.81-.26-.03-.53-.03-.8-.03-25.78,0-51.55,0-77.33,0-.78,0-1.56-.01-2.34-.04-.45-.01-.67-.27-.66-.72,.04-2.4,.08-4.8,.13-7.2,0-.44,.25-.65,.67-.65,2.1,0,4.19,.02,6.29,.02,6.49,0,12.98,0,19.47,0h.77c0-1.72-.01-3.37,0-5.02,0-.66,.08-1.31,.12-1.97,.03-.5,.32-.72,.81-.73,.18,0,.36,0,.53,0,7.16-.03,14.33-.06,21.49-.09,.25,0,.49-.04,.74-.06,.89,0,1.78,0,2.67,0Zm26.93,9.09h-.81c-10.58,0-21.15,0-31.73,0-15.36,0-30.72,0-46.07-.01-.53,0-.7,.13-.7,.67,.01,1.6,0,3.2-.07,4.8-.02,.53,.09,.69,.65,.69,26.08-.02,52.15-.01,78.23-.01,.21,0,.41-.02,.67-.03-.06-2.06-.12-4.05-.18-6.11Zm-52.02-1.27h24.58v-6.54c-.3,0-.51,0-.71,0-3.29,.02-6.58,.05-9.87,.06-4.46,.02-8.92,.03-13.39,.05-.29,0-.62-.08-.62,.41,.01,1.99,0,3.98,0,6.01Z"/>
      <path class="cls-1" d="M88.11,139.64c-9.39,0-18.77,0-28.16,0-.57,0-.79-.23-.73-.85,.18-1.84,.38-3.68,.57-5.51,.3-2.92,.61-5.83,.91-8.75,.34-3.27,.68-6.54,1.02-9.81,.3-2.9,.6-5.8,.9-8.69,.34-3.25,.68-6.5,1.02-9.75,.16-1.55,.33-3.11,.47-4.67,.03-.38-.01-.79-.13-1.15-4.2-13.65-8.41-27.3-12.61-40.95-.08-.25-.16-.53-.12-.77,.09-.58,.39-.76,1.08-.77,18.56-.08,37.12-.17,55.68-.25,4.85-.02,9.71-.05,14.56-.07,1.03,0,1.3,.37,1,1.35-4.1,13.65-8.2,27.29-12.25,40.95-.23,.76,0,1.68,.09,2.52,.43,3.74,.9,7.48,1.35,11.21,.44,3.67,.89,7.33,1.34,11,.41,3.35,.81,6.7,1.21,10.05,.41,3.42,.83,6.84,1.24,10.26,.16,1.32,.34,2.64,.51,3.96,.05,.43-.19,.71-.63,.74-.12,0-.25,0-.37,0-9.32,0-18.63,0-27.95,0,0-.02,0-.05,0-.07Zm11.88-1.22c2.54-29.81,5.08-59.6,7.62-89.38h-19.6v89.38h11.98Zm-13.29-.01V49.12h-17.26c1.78,29.8,3.56,59.53,5.34,89.28h11.92ZM52.59,49.2c.07,.27,.12,.44,.17,.6,1.2,3.9,2.4,7.8,3.6,11.7,3.01,9.73,6.02,19.46,9.02,29.19,.04,.12,.06,.24,.05,.36-.21,2.03-.42,4.06-.63,6.1-.34,3.29-.69,6.57-1.03,9.86-.3,2.88-.6,5.76-.9,8.64-.34,3.27-.68,6.54-1.02,9.81-.3,2.92-.61,5.83-.91,8.75-.14,1.37-.28,2.75-.42,4.17h13.01c-1.78-29.76-3.56-59.47-5.34-89.18h-15.61Zm69.7-.3c-.25,0-.44,0-.63,0-1.26,0-2.52,0-3.79,.01-2.83,0-5.65,.03-8.48,.02-.44,0-.58,.14-.6,.57-.04,.89-.14,1.77-.21,2.66-.26,3.1-.53,6.2-.79,9.29-.27,3.15-.54,6.3-.81,9.45-.23,2.69-.45,5.38-.68,8.07-.27,3.15-.54,6.3-.81,9.45-.23,2.69-.45,5.38-.68,8.07-.27,3.15-.54,6.3-.81,9.45-.26,3.1-.52,6.2-.79,9.29-.3,3.56-.61,7.12-.92,10.67-.27,3.19-.55,6.37-.82,9.56-.08,.97-.16,1.94-.24,2.94h14.44c-.01-.24-.01-.45-.04-.66-.61-5.03-1.21-10.05-1.82-15.08-.63-5.15-1.26-10.3-1.88-15.44-.6-4.97-1.22-9.94-1.79-14.92-.11-.95-.34-1.88-.03-2.88,3.65-12.04,7.26-24.09,10.87-36.14,.43-1.44,.86-2.88,1.32-4.4Z"/>
      <path class="cls-1" d="M135.67,86.27c1.67,.07,3.29,.14,4.9,.21,.27,.01,.53,.01,.8,.03,.71,.04,.92,.24,.95,.94,.08,2.11,.15,4.23,.22,6.34,.02,.62-.21,.78-.85,.78-2.04-.01-4.08,0-6.18,0,0,.08-.03,.23-.03,.39-.04,2.15-.08,4.3-.11,6.45,0,.16,0,.32-.04,.48-.19,.83-.59,.99-1.29,.51-4.21-2.9-8.42-5.81-12.63-8.71-.75-.51-1.51-1-2.23-1.55-.44-.33-.85-.73-1.18-1.16-.12-.15-.02-.52,.06-.76,.05-.14,.26-.22,.41-.32,5.26-3.54,10.52-7.08,15.78-10.63,.12-.08,.23-.17,.36-.23,.6-.31,1.12,0,1.12,.68,0,2.01-.02,4.02-.04,6.02,0,.16,0,.32,0,.55Zm5.61,7.03c-.06-1.88-.12-3.7-.18-5.55-1.97-.08-3.87-.16-5.77-.22-.75-.02-.92-.15-.92-.89,.01-1.79,.03-3.59,.04-5.38,0-.19,0-.37,0-.67-5.08,3.42-10.06,6.78-15.1,10.17,4.95,3.42,9.81,6.77,14.76,10.18,0-.32,0-.49,0-.67,.04-2.01,.07-4.02,.11-6.02,.02-.89,.17-1.05,1.08-1.04,1.76,.02,3.52,.06,5.28,.08,.21,0,.42,0,.69,0Z"/>
      <path class="cls-1" d="M39.81,94.29c-.29,0-.5,0-.71,0-1.62,0-3.23,.02-4.85,.02-.8,0-.99-.19-1-.96-.02-1.94-.04-3.87-.06-5.81,0-.8,.21-1.02,1-1.02,1.65,0,3.31-.01,4.96-.02,.19,0,.38,0,.64,0,0-.24,0-.43,0-.62-.04-2.04-.08-4.09-.11-6.13,0-.34-.07-.77,.32-.87,.3-.07,.72,0,.98,.17,2.17,1.39,4.31,2.82,6.46,4.23,3.2,2.11,6.41,4.22,9.61,6.33,.76,.5,.76,.99,.02,1.52-5.35,3.79-10.7,7.58-16.06,11.35-.2,.14-.58,.22-.76,.12-.19-.1-.33-.45-.34-.69-.05-2.33-.08-4.66-.11-6.98,0-.18,0-.35,0-.63Zm1.24,6.42c.07,.02,.14,.05,.21,.07,4.89-3.46,9.78-6.92,14.72-10.41-5.03-3.31-9.99-6.57-14.92-9.82,0,2.11,0,4.15,0,6.2,0,.83-.14,.98-.99,.98-1.67,0-3.34,0-5.01,.01-.19,0-.38,.02-.58,.03,0,1.71,0,3.35,0,5,0,.37,.29,.29,.51,.29,1.71,0,3.41,0,5.12,0,.79,0,.94,.15,.94,.93,0,2.24,0,4.48,0,6.72Z"/>
    </g>
  </g>
</svg>