<?xml version="1.0" encoding="utf-8"?>
<!-- Generator: Adobe Illustrator 27.3.1, SVG Export Plug-In . SVG Version: 6.00 Build 0)  -->
<svg version="1.1" id="Layer_1" xmlns="http://www.w3.org/2000/svg" xmlns:xlink="http://www.w3.org/1999/xlink" x="0px" y="0px"
	 viewBox="0 0 2834.6 2834.6" style="enable-background:new 0 0 2834.6 2834.6;" xml:space="preserve">
<style type="text/css">
	.st0{fill:#30313D;}
</style>
<g>
	<path class="st0" d="M2205.7,1026c-0.3,8.5-0.8,16.9-1,25.4c-2.1,98.8-4.2,197.6-6.2,296.4c-0.2,11,0.3,22,0.3,33
		c0,10.6-5.9,16.8-15.7,19c-10.2,2.3-19.3-2.9-22-12.6c-1.6-6-2.4-12.5-2.3-18.7c2.1-115,5-229.9,6.2-344.9
		c0.6-55.8-0.1-111.7-4.1-167.3c-2.1-28.9-9.3-58.5-19.9-85.6c-24.8-63.4-76.5-93-141.7-99.3c-33.6-3.2-67.8-0.6-101.8-0.4
		c-1,0-2.9,2.3-2.9,3.6c-2,188.1-4.9,376.2-5.3,564.3c-0.3,158.3,2.2,316.6,3.7,474.9c0.9,87.6,3.1,175.3,3.2,262.9
		c0.1,46-3.6,91.9-15.8,136.6c-14,51.4-40.9,72.4-93.7,79.8c-119.4,16.7-239.3,13.9-359.2,12.4c-99.8-1.3-199.6-0.2-299.5-0.8
		c-51.8-0.3-103.2-4.3-152.1-23.7c-67.9-26.8-105.3-78.9-109.3-149.7c-4.8-85.4-4.1-171.2-2.8-256.8c2.1-146.8,6.6-293.5,10-440.3
		c1.1-47.8,2-95.6,2.9-143.4c0.9-50.5-13-96.4-36.7-141.2c-66.3-125.1-130.5-251.4-195.5-377.2c-0.9-1.7-2.2-3.3-3.8-4.4
		c-8.4-6.3-10.9-14.7-7.7-24.3c3.1-9.4,10.7-12.8,20-12.5c45,1.3,89.9,2.9,134.9,3.9c119.3,2.6,238.6,6.7,357.9,6.9
		c183.1,0.4,366.3-1.2,549.4-3.5c83.9-1.1,167.8-6,251.8-8.7c42.7-1.4,84.9,1.8,125,18.5c65,27,100.8,78.1,118.6,143.9
		c12.5,46.5,13.8,94.1,14.2,141.8c0.1,5.6,0.6,11.3,0.9,16.9C2205.7,976,2205.7,1001,2205.7,1026z M688.3,671.4c1.3,2.8,2,4.5,2.8,6
		C745.8,783.2,800.5,888.9,855,994.7c16.2,31.3,34.3,62,46.9,94.7c15.5,40.1,15.2,83.4,14.9,125.9c-0.5,57.1-3.6,114.2-5.2,171.4
		c-2,71.8-4.6,143.6-5.2,215.4c-1.2,138.6-2.1,277.3-1.5,415.9c0.3,64.9,36.9,111.2,98.7,131.2c43.2,14,88.1,15.6,132.9,15.8
		c76.8,0.3,153.7-0.6,230.5-0.1c137.6,1.1,275.3,8.6,412.3-10.8c27-3.8,51.4-10.7,60.2-40.8c3.6-12.4,8.2-25,9-37.8
		c3.4-56.3,5.7-112.7,8.1-169.1c0-1.2-3.2-3.5-4.9-3.5c-46,0.3-92,0.9-138,1.5c-13.5,0.2-22.8-7.6-23-19.5
		c-0.2-12.1,8.3-19.9,22.2-20.1c46-0.6,92-1.1,138-2c1.9,0,5.3-3.7,5.3-5.6c-1-84-2.3-168-3.4-252c-0.1-5.2-1.4-6.6-6.7-6.5
		c-97.5,0.7-195,1.2-292.5,1.8c-13.9,0.1-22.9-7.4-23.1-19.4c-0.2-12.4,8.5-20.2,22.5-20.3c97.5-0.6,195-1.2,292.5-1.6
		c5.3,0,6.5-1.4,6.5-6.6c-0.9-80.7-1.4-161.3-2.4-242c0-1.9-3.7-5.3-5.7-5.3c-47.2-0.1-94.3,0.2-141.5,0.4c-13.3,0.1-22-8-22-19.9
		c0-11.8,8.9-19.8,22.1-19.9c47.2-0.2,94.3-0.2,141.5-0.7c1.9,0,5.4-3.6,5.4-5.5c0.1-86.5-0.1-173,0-259.5c0-4.9-0.8-6.7-6.4-6.7
		c-87.8-0.2-175.7-0.5-263.5-0.9c-14.4-0.1-23.8-8.1-23.7-20c0.1-12.1,9.4-19.8,23.8-19.7c88.2,0.4,176.3,0.7,264.5,0.9
		c1.8,0,5.2-2.8,5.3-4.3c1.9-84.1,3.7-168.3,5.2-252.4c0.5-25.2,0.1-24.7-25.3-24.1c-147.4,3.7-294.8,8.8-442.3,10.2
		c-125,1.2-250-1.9-374.9-3.4c-69-0.8-137.9-2.1-206.9-3.8C766.6,675.2,728,673.1,688.3,671.4z"/>
</g>
</svg>
