<?xml version="1.0" encoding="utf-8"?>
<!-- Generator: Adobe Illustrator 27.3.1, SVG Export Plug-In . SVG Version: 6.00 Build 0)  -->
<svg version="1.1" id="Layer_1" xmlns="http://www.w3.org/2000/svg" xmlns:xlink="http://www.w3.org/1999/xlink" x="0px" y="0px"
	 viewBox="0 0 2834.6 2834.6" style="enable-background:new 0 0 2834.6 2834.6;" xml:space="preserve">
<style type="text/css">
	.st0{fill:#30313D;}
</style>
<g>
	<path class="st0" d="M511.7,1006c3.9-13.1,14.3-15.1,26-16.5c50.1-5.8,100.1-6.6,149.9,2c44.1,7.6,73.1,39,79.8,85.7
		c2,13.6,2,27.5,3.4,41.3c0.2,1.9,3,5.1,4.6,5.2c134.1,3.3,268.2,6.3,402.3,9.1c1.4,0,4.2-3.2,4.3-4.9c0.5-26.2,0.6-52.3,1.1-78.5
		c0.6-31.7,11.6-45.5,43.3-47.9c45.8-3.5,91.7-4.4,137.6-6.2c5.1-0.2,7.9-0.9,8.2-6.7c1.4-30.7,3.6-61.5,4.3-92.2
		c1-47.5,1.1-95,1.3-142.4c0-1.7-2.5-5-4-5c-45.5-1.2-90.9-2.1-136.4-3c-1.8,0-3.7,0.1-5.5,0.1c-17.3-0.5-30.2,3.2-42.4,19.3
		c-26,34.3-64.7,45.8-106.7,45.7c-53.5-0.2-94.3-24-119.1-71.2c-25.7-48.9-22-97.4,5.7-145.5c35-60.7,123.5-90.8,202.9-34.6
		c13.9,9.8,24.8,23.8,37.2,35.7c1.4,1.4,3.9,2.5,5.7,2.4c53.1-2.5,106.2-5.1,159.2-7.9c1.5-0.1,3.9-3,4.2-4.9
		c4.4-24.6,9.8-48.6,26-68.8c35.1-43.6,90.7-41.3,121.8,5.4c12.3,18.5,18.3,39.1,20.2,61c0.5,5.1,1.9,6.9,7.3,6.9
		c56.5,0.7,112.9,1.8,169.4,2.5c2.2,0,5.6-2.4,6.5-4.5c13.8-33.4,41.4-49.5,74.1-58.2c63.8-17.1,127.4,15.1,157.3,80.6
		c24.5,53.7,23.5,106.4-16.7,152.8c-55.1,63.6-159.4,57.9-208.4-10.2c-1.6-2.2-4.9-4.2-7.5-4.3c-59.3-1.2-118.6-2.1-177.8-3.2
		c-5-0.1-6.3,1.4-6.3,6.4c0.7,79.8,1.1,159.6,1.8,239.5c0,1.5,2.9,4.3,4.4,4.3c40.3,0,80.6-0.3,120.9-0.4c9.5,0,19.1-0.5,28.4,0.9
		c23.2,3.6,37.2,18.2,40.1,46.1c2.8,27,2.2,54.5,3,81.7c0.2,5.1,0,10.3,0,15.7c25.8,2,51.8,3.1,77.6,6.2c47.7,5.8,96.2,9,142.6,20.1
		c53,12.7,99.9,41.4,143.3,74.2c75.2,56.8,129.2,129.4,166.9,216.5c36.3,83.9,51.1,170.3,51.2,260.5c0,10.5,0.7,20.9,1.1,31.4
		c0,23.7,0,47.3,0,71c-1,8.7-1.2,17.6-3.3,26c-2.5,10-10,14.7-20.4,14.9c-116.1,3.2-232.2,6.4-348.3,9.7
		c-20.7,0.6-32.7-10.6-33-31.6c-0.4-37.8,0.2-75.6-1.2-113.4c-1.1-31.5-6.2-62.6-18-92.2c-19.7-49.4-56.4-76.2-109.4-77.3
		c-89.6-1.7-179.3-1.2-268.9-2.7c-217.4-3.5-434.9-7.7-652.3-11.6c-32-0.6-64-0.8-96-1.5c-5-0.1-6,0.9-6.1,6.2
		c0,17.9,0.9,36.2-2.1,53.7c-6.9,40.6-36.1,66.5-78.2,73.6c-46.5,7.8-93.2,7.8-140,4.3c-6.6-0.5-13.4,0-19.9-1.3
		c-13.4-2.7-19.3-15.1-14.1-27.7c1.2-3,2-6.3,2-9.5c-1.4-203.8-2.8-407.6-4.3-611.4c0-1.8-0.4-3.6-0.6-5.4
		C511.7,1016.6,511.7,1011.3,511.7,1006z M1271.9,1510.2c0,0.8,0,1.6,0,2.4c88,0,176-0.2,263.9,0.1c82.1,0.2,164.3,0.2,246.4,1.7
		c35.8,0.7,70.4,8.7,100.7,29.4c36.3,24.9,53.5,61.9,64.5,102.6c15.6,58,14.7,117.4,13.8,176.7c0,2,3.1,6,4.6,6
		c104.5-2.5,208.9-5.4,313.3-8.5c2.2-0.1,6.1-4,6.1-6.1c-0.3-46.5-0.1-93-1.8-139.4c-2-55.6-9.3-110.4-30.8-162.5
		c-24.4-59.1-48-118.1-91.8-167.1c-75.4-84.3-163.2-143.3-279.2-154.8c-111.8-11.1-223.8-18.8-336.1-19.5
		c-120.3-0.9-240.6-0.1-360.9,0.5c-135.8,0.7-271.6,0.2-407.3-8c-1.9-0.1-5.8,3.5-5.9,5.5c-0.8,26-1.1,52-1.4,78
		c-1.2,82.3-2.4,164.6-3.3,246.9c0,1.8,3.4,5,5.3,5.1c37.3,0.9,74.6,1.1,111.9,2C1013.3,1504,1142.6,1507.1,1271.9,1510.2z
		 M727.8,1316.1c0.5,0,1,0,1.5,0c0-13.5,0-27,0-40.5c0.1-60.1,1.4-120.2,0.1-180.3c-0.8-39.7-17.3-59.2-51.4-65.1
		c-40.3-7-81-6.2-121.5-2.6c-1.8,0.2-4.4,5.4-4.4,8.3c0.6,105.1,1.4,210.3,2.2,315.4c0.7,93.8,1.3,187.6,2.1,281.4
		c0,1.8,1.8,5.2,2.8,5.2c42.1,2.5,84.3,3.9,125.9-5.3c29.5-6.5,43.5-22.6,44.5-52.8c0.6-18.6-1.7-37.2-1.7-55.9
		C727.7,1454.7,727.8,1385.4,727.8,1316.1z M1477.7,1128.7c63.5,2.3,142.3,5.1,221,7.8c1.3,0,3.8-2.5,3.9-4
		c0.9-11.1,2.3-22.3,1.6-33.4c-1.2-19.8-3.5-39.6-5.8-59.3c-0.2-1.8-3.6-4.5-5.6-4.6c-23.3-1-46.6-2.2-69.9-2
		c-27.3,0.2-54.6,2.1-81.9,2.5c-22.8,0.3-34.2-9.6-34.3-29.2c-0.4-108.1-0.8-216.3-0.9-324.4c0-29.5,2-59,1.7-88.4
		c-0.2-18.8-4.3-37.1-16-52.7c-15.4-20.3-39.3-21.6-54.6-1.2c-7.7,10.3-14.7,23.5-15.6,36c-3.3,42.2-4.5,84.7-5,127.1
		c-1.1,89.4-1,178.9-2.2,268.4c-0.2,14.2-3.8,28.7-7.9,42.4c-3.4,11.4-11.9,19.4-24.8,20.2c-14.3,0.8-28.6,0.8-43,1.5
		c-36.2,1.8-72.4,3.7-108.6,6.1c-2.4,0.2-6.5,4.8-6.5,7.5c-0.7,25.8-0.6,51.6-1.1,77.5c-0.1,5.1,1.3,6.3,6.3,6.2
		C1306.4,1131.2,1384.4,1130.1,1477.7,1128.7z M1291.6,707.9c0,0.4,0,0.8,0,1.1c26.5,0,53-0.2,79.5,0.1c5.1,0.1,6-1.5,5.8-6.2
		c-0.7-23-1-46-1.7-69c0-1.4-2.9-4.1-4.4-4c-23,0.9-45.9,2.2-68.9,3.3c-33.6,1.6-67.2,3.4-100.8,4.4c-10.8,0.3-19.8-3.8-23.6-15.5
		c-1.4-4.3-3.5-8.8-6.5-12c-22.9-23.8-50.4-38.5-83.8-40.3c-76.4-4-111.1,76.5-98.8,125.3c10.1,39.9,35.1,67.2,75.7,74.2
		c40.7,7,78.3-1.4,102.6-39.8c8.9-14.1,21.5-21.6,38.1-21.7C1233.6,707.8,1262.6,707.9,1291.6,707.9z M1641.7,631c0-0.7,0-1.3,0-2
		c-29.6,0-59.3-0.1-88.9,0.2c-1.7,0-4.9,2.2-5,3.5c-1.2,22.8-2.1,45.6-2.7,68.4c0,1.5,2.9,4.4,4.5,4.5c13.7,0.1,27.3-0.8,41-0.5
		c47.8,0.8,95.6,1.7,143.4,3.3c11.4,0.4,23.3,2,30.3,13.9c19.6,33.5,58.2,50.7,96.5,43.5c59.2-11.1,89.5-64.2,70.8-123.9
		c-15.8-50.3-67.5-96.2-130.7-69.9c-16.1,6.7-29.9,15.9-34.9,33.8c-4.7,16.9-11.2,24.4-28.9,25C1705.3,631.8,1673.5,631,1641.7,631z
		"/>
	<path class="st0" d="M2000.4,2229.1c0.9-49.1,15.6-95.2,33.1-140.2c19.6-50.4,41.7-99.7,62.6-149.6c2.3-5.4,4.1-10.9,6-16.4
		c2.8-8.5,8.9-14.6,17.4-13.9c6.6,0.6,15.5,4.1,18.6,9.2c7.5,12,12.9,25.5,17.7,38.9c25.6,71,51.9,141.8,75.7,213.5
		c13.1,39.5,6.8,79.3-11.2,116.6c-28.5,58.9-87.5,79-150.9,52.2C2022.7,2319.7,1999.7,2282.9,2000.4,2229.1z M2122.6,1980
		c-1.2,2.2-1.9,3.3-2.4,4.5c-12.2,27.9-25,55.5-36.4,83.8c-20.5,50.8-39.8,102-43.8,157.5c-2.8,37.5,12.7,63.9,46.3,77.9
		c37.1,15.5,74.6,6.8,92.2-22.8c17.8-30,25.6-63,15.2-96.9c-12.6-41.3-28.3-81.6-42.7-122.4
		C2141.7,2034.7,2132.4,2007.8,2122.6,1980z"/>
</g>
</svg>
