<?xml version="1.0" encoding="utf-8"?>
<!-- Generator: Adobe Illustrator 27.2.0, SVG Export Plug-In . SVG Version: 6.00 Build 0)  -->
<svg version="1.1" id="Layer_1" xmlns="http://www.w3.org/2000/svg" xmlns:xlink="http://www.w3.org/1999/xlink" x="0px" y="0px"
	 viewBox="0 0 170.1 170.1" style="enable-background:new 0 0 170.1 170.1;" xml:space="preserve">
<style type="text/css">
	.st0{fill:#525252;stroke:#525252;stroke-width:0.5;}
</style>
<g>
	<path class="st0" d="M122.3,125.1c-0.1,1-0.3,2-0.4,3c-0.2,1.1-0.3,2.2-0.5,3.3c-0.2,0.9-0.4,1.1-1.3,1.1c-0.6,0-1.3,0-1.9,0
		c-1.7-0.1-3.3-0.1-5-0.2c-0.5,0-0.7,0.1-0.9,0.6c-0.7,1.7-1.5,3.4-2.3,5.1c-0.7,1.4-0.7,1.4-2.1,0.8c-1.7-0.8-3.5-1.5-5.2-2.3
		c-0.2,0.3-0.4,0.5-0.6,0.7c-1.1,1.4-2.2,2.8-3.2,4.3c-0.2,0.2-0.3,0.4-0.5,0.6c-0.7,0.7-1,0.8-1.8,0.2c-0.4-0.3-0.7-0.6-1.1-0.9
		c-1.2-1-2.4-1.9-3.9-2.5c-0.2,0.2-0.4,0.4-0.6,0.5c-1.6,1.5-3.3,3.1-4.9,4.6c-0.6,0.5-0.8,0.6-1.4,0.1c-0.7-0.4-1.3-0.9-1.9-1.5
		c-0.9-0.9-1.8-1.8-2.7-2.6c-0.3-0.3-0.5-0.5-0.9-0.8c-0.5,0.3-0.9,0.5-1.3,0.8c-1,0.7-2,1.5-3,2.2c-0.1,0.1-0.2,0.1-0.2,0.2
		c-1.1,0.9-1.5,0.9-2.4-0.3c-1.2-1.5-2.3-3-3.5-4.6c-0.2-0.2-0.3-0.4-0.5-0.7c-1.5,0.6-3,1.2-4.4,1.9c-0.5,0.2-1,0.5-1.5,0.7
		c-0.5,0.2-0.8,0.2-1.1-0.3c-0.3-0.5-0.5-1-0.8-1.5c-0.5-1.2-1.1-2.5-1.6-3.7c-0.2-0.4-0.3-0.7-0.5-1.2c-0.2,0-0.5,0-0.7,0
		c-1.8,0.1-3.6,0.1-5.4,0.2c-0.5,0-1,0-1.5,0c-0.8,0-1-0.2-1.2-1c-0.2-1.2-0.4-2.5-0.6-3.8c-0.1-0.9-0.2-1.7-0.4-2.6
		c-0.3,0-0.6-0.1-0.9-0.1c-1.3,0-2.6,0-3.9-0.1c-0.6,0-1.1-0.1-1.7-0.2c-0.5-0.1-0.9-0.5-0.9-1.1c0-1.9-0.1-3.7-0.1-5.6
		c0-0.3,0-0.6,0-1c-0.1-0.1-0.2-0.1-0.3-0.2c-1.9-0.6-3.8-1.3-5.8-1.9c-0.1,0-0.2,0-0.3-0.1c-0.9-0.3-1-0.5-0.8-1.4
		c0.4-1.8,0.8-3.6,1.2-5.4c0-0.2,0-0.3,0.1-0.5c0.1-0.4-0.1-0.7-0.4-0.9c-1.3-0.8-2.7-1.6-4-2.5c-0.5-0.3-1-0.7-1.4-1
		c-0.7-0.6-0.7-0.7-0.3-1.5c0.9-1.9,1.9-3.8,2.8-5.8c-0.3-0.3-0.7-0.7-1.1-1c-1.1-0.8-2.2-1.6-3.3-2.5c-0.1,0-0.1-0.1-0.2-0.1
		c-0.9-0.6-1-0.8-0.4-1.8c1-1.7,2.2-3.3,3.4-4.8c0.2-0.3,0.4-0.5,0.6-0.8c-0.5-0.6-0.9-1.2-1.4-1.7c-0.8-1-1.7-2-2.5-3
		c-0.8-0.9-0.8-1.1,0.1-1.9c1.4-1.2,2.8-2.3,4.2-3.5c1.4-1.3,1.2-0.9,0.5-2.5c-0.6-1.3-1.3-2.5-2-3.8c-0.2-0.4-0.5-0.8-0.7-1.3
		c-0.3-0.6-0.2-0.9,0.4-1.3c1.8-1,3.5-2.2,5.5-3c0.1,0,0.1-0.1,0.3-0.2c-0.2-1-0.3-2-0.5-3c-0.2-1-0.4-1.9-0.7-2.9
		c-0.2-0.9-0.1-1.1,0.7-1.4c1.3-0.5,2.6-0.9,3.8-1.3c0.6-0.2,1.2-0.4,1.9-0.5c0.5-0.1,0.7-0.4,0.7-0.9c0.1-1.6,0-3.1-0.1-4.7
		c-0.1-0.5-0.1-1.1-0.1-1.6c0-0.6,0.2-0.9,0.8-1c0.5-0.1,1.1-0.1,1.6-0.2c1.6-0.1,3.3-0.2,4.9-0.4c0.7-0.1,0.7-0.1,0.8-0.7
		c0.3-1.8,0.5-3.6,0.6-5.5c0-1.3,0.3-1.5,1.6-1.3c1.9,0.2,3.7,0.4,5.6,0.5c1,0.1,1.4-0.1,1.7-1.1c0.5-1.5,1.1-2.9,1.7-4.4
		c0-0.1,0.1-0.2,0.1-0.2c0.5-1.2,1-1.5,2.3-1.1c1.7,0.6,3.3,1.2,4.9,1.8c0.3,0.1,0.5,0.2,0.8,0.3c0.2-0.2,0.3-0.4,0.4-0.6
		c1-1.4,1.9-2.9,2.9-4.3c0-0.1,0.1-0.1,0.1-0.2c0.7-1,1.1-1.1,2.1-0.5c1.5,0.9,3,1.9,4.4,2.8c0.3,0.2,0.6,0.4,1,0.6
		c0.2-0.2,0.5-0.3,0.7-0.5c1.7-1.4,3.5-2.8,5.2-4.3c0.6-0.5,0.7-0.5,1.3,0c1.7,1.4,3.4,2.8,5.1,4.2c0.1,0.1,0.1,0.1,0.3,0.2
		c0.2-0.1,0.5-0.3,0.7-0.4c1.5-0.9,3-1.9,4.4-2.8c0.3-0.2,0.5-0.3,0.8-0.4c0.4-0.2,0.8-0.2,1,0.1c0.3,0.3,0.6,0.7,0.8,1
		c1,1.4,1.9,2.9,2.9,4.3c0.1,0.1,0.2,0.2,0.3,0.4c0.3-0.1,0.5-0.2,0.7-0.3c1.6-0.6,3.2-1.2,4.8-1.8c0.2-0.1,0.3-0.1,0.5-0.1
		c1-0.3,1.5-0.1,1.9,0.9c0.6,1.6,1.2,3.2,1.8,4.8c0.4,1.1,0.7,1.3,1.9,1.2c1.9-0.2,3.7-0.4,5.6-0.5c0.1,0,0.2,0,0.3,0
		c0.9,0,1.1,0.2,1.2,1.1c0.1,0.9,0.1,1.8,0.2,2.7c0.1,0.7,0.2,1.3,0.2,2c0.1,0.5,0.2,1.1,0.3,1.7c0.9,0.1,1.9,0.2,2.8,0.3
		c1.3,0.1,2.7,0.2,4,0.3c1.1,0.1,1.4,0.4,1.2,1.6c-0.2,1.7-0.4,3.4-0.3,5.2c0.1,1.4-0.2,1.2,1.2,1.6c1.3,0.4,2.6,0.7,3.9,1.1
		c0.5,0.2,1.1,0.4,1.6,0.6c0.6,0.3,0.7,0.5,0.5,1.2c-0.4,1.8-0.8,3.6-1.1,5.4c-0.1,0.3-0.1,0.5-0.1,0.8c0.1,0.1,0.2,0.2,0.3,0.2
		c1.9,0.8,3.6,1.9,5.4,3c0.7,0.4,0.8,0.6,0.4,1.3c-0.2,0.5-0.5,0.9-0.8,1.4c-0.7,1.4-1.5,2.9-2.2,4.3c-0.3,0.5-0.2,0.8,0.2,1.2
		c0.5,0.4,1,0.9,1.5,1.3c1.2,1,2.3,1.9,3.5,2.9c0.8,0.6,0.7,0.8,0.1,1.6c-1.2,1.5-2.4,3-3.7,4.4c-0.1,0.2-0.2,0.4-0.4,0.5
		c0.5,0.6,0.9,1.1,1.4,1.7c0.9,1.3,1.9,2.7,2.7,4c0.5,0.7,0.4,1-0.3,1.5c-1.3,0.9-2.6,1.9-3.8,2.8c-0.4,0.3-0.7,0.6-0.9,0.9
		c1,2,1.9,3.9,2.8,5.7c0.4,0.8,0.4,1-0.3,1.6c-0.5,0.4-1,0.7-1.5,1c-1.3,0.8-2.6,1.6-3.9,2.5c-0.6,0.4-0.6,0.4-0.5,1.1
		c0.4,1.9,0.8,3.7,1.2,5.6c0.2,1,0.1,1.2-0.9,1.5c-1.8,0.6-3.6,1.2-5.5,1.7c-0.9,0.3-0.8,0.3-0.8,1.3c0,1.9-0.1,3.8-0.1,5.7
		c0,0.7-0.4,1-1,1.2c-0.5,0.1-1.1,0.1-1.6,0.2c-1.4,0-2.8,0.1-4.1,0.1C122.7,125,122.6,125.1,122.3,125.1z M85.6,27.3
		c-0.2,0.1-0.2,0.2-0.3,0.2c-1.8,1.4-3.5,2.9-5.3,4.3c-0.6,0.5-0.9,0.5-1.6,0.1c-0.2-0.1-0.3-0.2-0.5-0.3c-1.5-0.9-2.9-1.9-4.4-2.8
		c-0.2-0.2-0.5-0.3-0.8-0.4c-0.4,0.6-0.8,1.1-1.2,1.6c-0.9,1.3-1.8,2.7-2.7,4.1c-0.2,0.4-0.5,0.4-0.9,0.3c-0.1,0-0.2-0.1-0.4-0.2
		c-1.9-0.7-3.7-1.4-5.6-2c-0.7-0.2-0.7-0.2-1,0.4c-0.3,0.7-0.6,1.3-0.8,2c-0.4,1-0.7,2-1.1,3c-0.3,1-1,1.4-2,1.4c-0.2,0-0.4,0-0.6,0
		c-1.1-0.1-2.3-0.2-3.4-0.3c-0.9-0.1-1.8-0.2-2.7-0.2c0,0.3-0.1,0.4-0.1,0.6c0,1.7-0.2,3.4-0.5,5.2c-0.2,1.4-0.1,1.7-2,1.8
		c-0.1,0-0.1,0-0.2,0c-1.7,0.1-3.4,0.2-5.1,0.4c-0.3,0-0.6,0.1-1,0.2c0,0.3,0,0.6,0.1,0.8c0.2,1.8,0.4,3.5,0.3,5.3
		c-0.1,1.5-0.2,1.6-1.6,2.1c-1.3,0.4-2.6,0.7-4,1.1c-0.5,0.2-1,0.4-1.5,0.6c0,0.2,0,0.3,0,0.3c0.4,2.1,0.8,4.1,1.2,6.2
		c0.1,0.4,0,0.6-0.3,0.8c-0.2,0.1-0.3,0.2-0.5,0.2c-1.8,0.7-3.4,1.8-5.1,2.8c-0.1,0.1-0.2,0.2-0.4,0.3c0.2,0.4,0.5,0.9,0.7,1.3
		c0.8,1.6,1.6,3.1,2.4,4.7c0.4,0.8,0.3,1.2-0.4,1.9c-0.2,0.2-0.4,0.3-0.5,0.5c-1.3,1.1-2.7,2.2-4,3.3c-0.2,0.2-0.5,0.4-0.7,0.7
		c0.2,0.2,0.3,0.4,0.4,0.5c1.1,1.4,2.3,2.8,3.4,4.2c0.8,1,0.8,1,0,2.1c-1.1,1.5-2.2,3-3.3,4.6c-0.2,0.2-0.3,0.5-0.4,0.8
		c0.3,0.2,0.6,0.4,0.9,0.6c1.4,1,2.8,2,4,3.2c0.7,0.7,0.7,0.7,0.2,1.6c-1.1,1.8-1.9,3.7-2.8,5.7c0.5,0.3,0.8,0.7,1.3,0.9
		c1.4,0.9,2.8,1.8,4.2,2.6c0.8,0.5,1.1,1,0.9,1.9c0,0.1,0,0.3-0.1,0.4c-0.3,1.6-0.7,3.2-1,4.7c-0.1,0.3-0.1,0.6-0.2,0.9
		c0.2,0.1,0.3,0.1,0.4,0.1c1.9,0.6,3.9,1.3,5.8,1.9c0.9,0.3,1,0.4,0.9,1.4c0,0.5,0,1,0,1.5c0,1.4,0,2.8,0.1,4.2c0,0.8,0.1,0.9,0.9,1
		c0.3,0,0.7,0,1,0c1.5,0,2.9,0,4.4,0.1c0.8,0,0.9,0.2,1,1c0.2,1.6,0.4,3.3,0.7,4.9c0.1,0.5,0.2,1,0.3,1.5c0.6,0,1.1,0,1.7,0
		c1.9-0.1,3.7-0.1,5.6-0.2c1-0.1,1.5,0.3,1.8,1.2c0.1,0.2,0.1,0.4,0.2,0.5c0.6,1.4,1.3,2.9,1.9,4.3c0.1,0.3,0.3,0.5,0.4,0.8
		c0.2-0.1,0.3-0.1,0.4-0.2c1.6-0.7,3.1-1.3,4.7-2c1.4-0.6,1.4-0.6,2.3,0.6c1.1,1.4,2.2,2.9,3.3,4.3c0.2,0.3,0.4,0.5,0.7,0.8
		c0.2-0.1,0.4-0.2,0.5-0.4c1.4-1.3,3-2.4,4.7-3.3c0.6-0.3,0.6-0.4,1.1,0.1c0.2,0.2,0.4,0.3,0.5,0.5c1,1,2,2,3,2.9
		c0.6,0.6,1.3,1,2,1.5c0.2-0.2,0.4-0.3,0.5-0.4c1.6-1.5,3.2-3,4.8-4.5c0.8-0.8,1.1-0.8,2.1-0.3c1.4,0.8,2.7,1.7,3.9,2.7
		c0.3,0.3,0.6,0.5,1,0.8c0.3-0.4,0.6-0.7,0.8-1c1.1-1.5,2.3-3,3.4-4.5c0.6-0.7,0.7-0.8,1.6-0.4c1.7,0.7,3.3,1.4,5,2.1
		c0.2,0.1,0.4,0.2,0.6,0.2c0.2-0.5,0.5-1,0.7-1.4c0.6-1.4,1.3-2.9,1.9-4.3c0.3-0.8,0.8-1.1,1.7-1.1c1.9,0.1,3.8,0.2,5.7,0.2
		c0.5,0,1.1,0,1.6,0c0.1-0.4,0.2-0.8,0.2-1.1c0.3-1.7,0.5-3.5,0.7-5.2c0.1-1,0.3-1.1,1.2-1.1c1.4,0,2.8,0,4.2-0.1c0.3,0,0.7,0,1-0.1
		c0.8-0.1,0.9-0.2,0.9-1c0-1.9,0.1-3.8,0.1-5.7c0-1,0.1-1.1,1-1.4c1.9-0.6,3.9-1.3,5.8-1.9c0.1,0,0.2-0.1,0.4-0.2
		c0-0.2-0.1-0.5-0.1-0.7c-0.4-1.8-0.8-3.6-1.1-5.5c-0.2-1,0-1.2,0.8-1.7c1.4-0.9,2.9-1.8,4.3-2.7c0.4-0.3,0.9-0.6,1.3-0.9
		c-0.1-0.2-0.1-0.3-0.2-0.4c-1-1.9-1.9-3.7-2.9-5.6c-0.2-0.3-0.2-0.6,0.1-0.9c0.2-0.2,0.3-0.4,0.5-0.5c1.2-1.2,2.6-2.2,4-3.2
		c0.2-0.2,0.5-0.3,0.8-0.5c-0.2-0.3-0.3-0.6-0.5-0.9c-1.2-1.6-2.3-3.2-3.5-4.8c-0.5-0.7-0.5-0.8,0-1.4c1.2-1.5,2.4-3,3.6-4.5
		c0.1-0.2,0.3-0.4,0.5-0.6c-0.3-0.3-0.6-0.5-0.9-0.8c-1.4-1.2-2.8-2.3-4.2-3.5c-0.9-0.8-0.9-1.1-0.4-2.1c0.8-1.6,1.6-3.2,2.5-4.7
		c0.2-0.4,0.4-0.7,0.6-1.2c-1.7-0.9-3.2-1.8-4.8-2.7c-0.4-0.2-0.8-0.4-1.2-0.6c-0.3-0.1-0.4-0.3-0.3-0.6c0.3-1.4,0.5-2.8,0.7-4.1
		c0.2-0.8,0.4-1.6,0.6-2.4c-0.3-0.1-0.5-0.2-0.7-0.3c-0.6-0.2-1.3-0.4-1.9-0.6c-1.1-0.3-2.3-0.7-3.4-1c-0.8-0.2-1.1-0.7-1.1-1.5
		c0-1.8-0.1-3.6,0.2-5.3c0.1-0.4,0.1-0.8,0.1-1.3c-0.3-0.1-0.4-0.1-0.6-0.1c-1.1-0.1-2.2-0.2-3.3-0.3c-0.9-0.1-1.8-0.1-2.7-0.2
		c-1.3-0.1-1.4-0.4-1.5-1.4c-0.2-1.8-0.4-3.6-0.6-5.4c0-0.3,0-0.5-0.1-0.8c-1,0.1-1.9,0.2-2.8,0.3c-1.2,0.1-2.5,0.2-3.7,0.3
		c-1.2,0-1.7-0.4-2.1-1.5c-0.1-0.2-0.1-0.4-0.2-0.5c-0.5-1.4-1.1-2.8-1.6-4.2c-0.3-0.8-0.4-0.9-1.2-0.6c-1.9,0.7-3.8,1.4-5.7,2.1
		c-0.7,0.2-0.7,0.2-1.1-0.3c-1.1-1.6-2.1-3.1-3.2-4.7c-0.2-0.3-0.4-0.5-0.6-0.8c-0.3,0.1-0.4,0.2-0.6,0.3c-0.8,0.5-1.5,1-2.3,1.4
		c-0.9,0.6-1.8,1.2-2.7,1.7c-0.7,0.5-1.1,0.4-1.7-0.1c-0.7-0.5-1.4-1.1-2-1.6C87.7,29,86.7,28.2,85.6,27.3z"/>
	<path class="st0" d="M87.5,130.6c-5.8,0-10.8-0.6-15.6-2c-5.6-1.6-10.7-4.3-15.2-8.1c-6.3-5.4-11.3-11.7-14.4-19.4
		c-1.1-2.8-1.8-5.7-2.2-8.6c-0.3-2.6-0.5-5.3-0.5-7.9c-0.2-7.1,1.5-13.8,4.9-20.1c4.6-8.4,11.1-14.9,19.7-19.2c2.1-1,4.2-2,6.3-2.9
		c3.3-1.4,6.8-2.1,10.4-2.4c10.7-0.7,20.5,2,29.6,7.5c3.9,2.4,7.1,5.5,9.9,9.1c4.9,6.4,8.1,13.5,9.7,21.3c1.5,6.9,0.8,13.6-1.6,20.2
		c-1.9,5.5-4.7,10.5-7.9,15.4c-2.2,3.3-4.9,6.1-8.2,8.4c-3.8,2.7-7.8,4.9-12.2,6.5c-2.8,1-5.8,1.6-8.8,1.8
		C90.1,130.5,88.3,130.5,87.5,130.6z M40.5,84.9c0.1,2.1,0.2,4.2,0.4,6.3c0.4,4.4,1.7,8.6,3.6,12.6c2.2,4.5,5.2,8.5,8.6,12.1
		c4.2,4.5,9.1,8,14.8,10.4c5,2.1,10.3,3,15.8,3.3c2.8,0.2,5.6,0.1,8.4-0.2c2.9-0.3,5.8-0.8,8.5-1.9c3.6-1.4,7-3.2,10.2-5.3
		c4.3-2.8,7.7-6.4,10.3-10.8c1.2-2.1,2.4-4.1,3.5-6.3c2.7-5.1,4.6-10.5,5.3-16.2c0.3-2.9,0.3-5.9-0.1-8.8c-0.9-5.6-2.8-11-5.5-16
		c-2-3.7-4.4-7.2-7.3-10.2c-3.6-3.8-7.8-6.6-12.6-8.7c-6.6-2.9-13.5-4.6-20.7-4.5c-2.8,0-5.5,0.3-8.2,1c-7,1.8-13.4,5.1-19.1,9.6
		c-4.3,3.4-7.6,7.6-10.4,12.3c-1.8,3.1-3.3,6.2-4.2,9.7C40.9,77.1,40.5,81,40.5,84.9z"/>
	<path class="st0" d="M42.4,85.5c0-4.3,0.3-8.5,1.6-12.6c2.1-6.5,5.6-12.2,10.3-17.1c3.9-4,8.5-7,13.6-9.3c3.1-1.4,6.4-2.7,9.8-3.3
		c0.8-0.2,1.7-0.2,2.6-0.3c6.2-0.7,12.2,0.2,18.1,2c3,1,6,2.2,8.8,3.7c4.3,2.3,7.9,5.4,10.9,9.3c4.8,6,7.9,12.9,9.5,20.4
		c1.4,6.6,0.8,13.1-1.5,19.4c-1.8,5-4.3,9.6-7.2,14c-2.1,3.3-4.7,6-7.9,8.2c-4.3,3-8.8,5.4-13.9,6.8c-2.3,0.6-4.6,0.9-7,1
		c-6,0.3-11.9-0.1-17.6-1.8c-5.3-1.6-10.1-4.2-14.3-7.8c-5.8-5-10.3-10.9-13.2-17.9c-1-2.6-1.7-5.2-2-8C42.7,90,42.6,87.7,42.4,85.5
		z M43.3,84.9c0.1,1.7,0.1,3.3,0.3,5c0.4,5.1,1.9,9.9,4.3,14.4c2.6,4.8,6.1,8.8,10.1,12.5c4.4,4,9.5,6.9,15.3,8.5
		c5,1.4,10.2,1.9,15.4,1.7c2.9-0.1,5.8-0.4,8.6-1.2c4.5-1.3,8.5-3.4,12.3-5.9c3.8-2.5,6.9-5.7,9.3-9.7c1.3-2.1,2.5-4.3,3.7-6.6
		c1.8-3.4,3.2-7,4-10.7c1-4.2,1.2-8.4,0.5-12.7c-1-5.8-3-11.2-5.9-16.3c-4.3-7.4-10.2-13.1-18.2-16.4c-6.6-2.8-13.4-4.4-20.6-4
		c-2.2,0.1-4.3,0.4-6.4,0.9c-3.7,1-7.2,2.5-10.6,4.3c-5.5,2.9-10.2,6.7-13.9,11.8c-2.8,3.9-5.2,8.1-6.6,12.7
		C43.6,77,43.3,80.9,43.3,84.9z"/>
	<path class="st0" d="M74.9,104.1c0.2-0.2,0.4-0.4,0.5-0.7C86,89,96.6,74.6,107.2,60.2c0.8-1.2,0.8-1.2,2-0.3c0.5,0.4,1,0.8,1.6,1.2
		c0.7,0.6,0.7,0.7,0.2,1.4c-3.5,4.8-7,9.7-10.6,14.5c-8.1,11-16.2,22-24.3,33c-0.2,0.3-0.4,0.6-0.6,0.9c-0.3,0.5-0.6,0.5-1,0.1
		c-0.1-0.1-0.2-0.3-0.4-0.4c-3.8-4.8-7.7-9.6-11.5-14.4c-1-1.2-2-2.5-2.9-3.8c-0.5-0.6-0.5-0.7,0.1-1.2c0.6-0.5,1.3-1.1,1.9-1.6
		c0.7-0.6,0.9-0.6,1.5,0.2c2.5,3.1,5,6.3,7.5,9.4c1.2,1.5,2.4,3,3.6,4.5C74.6,103.7,74.7,103.9,74.9,104.1z M74.9,109.8
		c11.8-16.1,23.6-32,35.3-48c-0.7-0.5-1.3-1-1.9-1.5c-0.2,0.3-0.4,0.5-0.5,0.7c-1.1,1.5-2.2,3-3.3,4.5
		c-9.7,13.2-19.4,26.4-29.1,39.5c-0.3,0.5-0.6,0.5-1,0.1c-0.1-0.1-0.2-0.3-0.4-0.4c-3.7-4.6-7.4-9.2-11.1-13.8
		c-0.2-0.2-0.4-0.4-0.6-0.7c-0.7,0.5-1.3,1.1-1.9,1.6C65.3,97.8,70.1,103.8,74.9,109.8z"/>
</g>
</svg>
