<?xml version="1.0" encoding="utf-8"?>
<!-- Generator: Adobe Illustrator 27.3.1, SVG Export Plug-In . SVG Version: 6.00 Build 0)  -->
<svg version="1.1" id="Layer_1" xmlns="http://www.w3.org/2000/svg" xmlns:xlink="http://www.w3.org/1999/xlink" x="0px" y="0px"
	 viewBox="0 0 2834.6 2834.6" style="enable-background:new 0 0 2834.6 2834.6;" xml:space="preserve">
<style type="text/css">
	.st0{fill:#303030;}
</style>
<g>
	<path class="st0" d="M1737.7,1635c0,35.7,0,71.3,0,107c-0.3,3.6-0.7,7.3-0.7,10.9c-1.3,59.3-2.6,118.6-3.9,177.9
		c-1.6,77.8-4,155.6-4.5,233.4c-0.3,47.6,2.5,95.2,3.6,142.9c0.4,18.9-1.2,37.3-21.9,46.2c-9.7,4.2-19.5,8.6-29.7,11.5
		c-61.8,17.5-125.4,22.1-189.1,26.1c-22.6,1.4-45.2,2.1-67.9,3.2c-17.7,0-35.3,0-53,0c-21.9-1.4-43.9-2.3-65.7-4.1
		c-62.9-5.1-124.2-17.7-182.3-43.2c-12.1-5.3-19.9-14.9-19.7-28.2c0.7-50.8,2.4-101.6,3.1-152.4c1.4-100.9,4-201.9,2.9-302.8
		c-1.2-120.6-7.1-241.2-8.4-361.8c-1.3-121.6,0.9-243.3,1.1-364.9c0.1-63.3-2.9-126.6,5.1-189.7c6.6-52.2,20-102.4,49.1-146.9
		c18.9-28.9,46.5-49.2,73.7-69.7c1.9-1.4,3.7-2.8,6.4-4.7c-20.1-1.7-25.1-5.9-27.6-25.1c-1.3-10.2-1.5-20.6-1.5-30.9
		c-0.2-41.3-0.2-82.6,0-124c0-13.9-0.8-28.1,1.4-41.8c4.3-27,25.6-38.9,48.9-42.8c38.6-6.6,77.8-9.6,116.9-13.6
		c19.2-2,38.5-2.8,57.7-4.2c7,0,14,0,21,0c12.6,1,25.2,2,37.8,3.1c33.3,3,66.1,7.5,96.5,23c12.1,6.2,19.9,15.7,23.5,28.3
		c2.2,7.9,4.1,16.3,4,24.5c-0.4,54.6-1.3,109.3-2.3,163.9c-0.2,13.4-2.6,26.3-15.1,34.5c0.3,0.5,0.4,0.8,0.7,1c2,1.5,4,3,6,4.5
		c57.6,43.8,101.3,98.2,115.5,170.1c7.7,39,8.3,79.8,9,119.8c3.1,184.4,5,368.9,7.5,553.3C1736.1,1591.1,1737,1613,1737.7,1635z
		 M1699.7,1633.3c-0.7,0-1.4,0-2.1-0.1c-1.9-82.6-4.6-165.2-5.7-247.9c-1.8-137-3.4-273.9-3.6-410.9c-0.1-66.1-18.8-124-62.2-174.5
		c-44.8-52.1-99.8-78.9-169.2-76.2c-45.4,1.7-90.9,1.4-136.4,2.2c-2.6,0-5.6,0.4-7.7,1.7c-29.2,18.4-59.4,35.5-87.1,56
		c-31.8,23.6-52.6,55.7-63.8,94.3c-14.1,48.4-19.8,97.9-20.2,148c-1.2,141-2.7,281.9-2.2,422.9c0.3,98.8,3.6,197.6,5.7,296.4
		c1.7,80,5.7,159.9,5.1,239.8c-0.8,100.9-5.2,201.9-7.9,302.8c-0.7,24.9-0.3,24.9,23.3,33.4c69.4,25,141.7,31.2,214.7,33
		c66.3,1.6,132.2-3.1,197.9-11.5c32.6-4.2,65-10.5,97.1-17.5c16.7-3.6,16.4-5.2,16-22.1c-0.1-4-0.3-8-0.4-12
		c-0.4-84.3-2.2-168.6-0.9-252.9C1692.4,1903.1,1696.5,1768.2,1699.7,1633.3z M1245.6,598.5c0.4,0,0.8,0,1.1,0
		c0,26.5,0.1,53-0.1,79.4c0,5.2,1.3,7.6,7.3,7.2c9.6-0.6,19.3-0.2,29-0.2c52.6,0,105.2,0.2,157.9,0c42.8-0.2,85.5-0.8,128.3-1.5
		c1.2,0,3.2-2.7,3.3-4.3c0.5-14.6,0.8-29.3,0.9-44c0.3-39,0.2-77.9,0.8-116.9c0.2-12.3-7-17.5-16.8-19.4
		c-29.9-5.5-59.8-13.2-89.9-14.4c-39.8-1.5-79.9,1.2-119.7,4.2c-28.7,2.1-57.4,6.9-85.8,12c-13.2,2.3-16.3,8.4-16.3,21.9
		C1245.6,547.9,1245.6,573.2,1245.6,598.5z"/>
	<path class="st0" d="M1620.2,978.8c0,4.2,0.6,8.4-0.1,12.4c-1.9,9.8-10.8,15.6-21.8,14.6c-10.4-0.9-17.2-8.8-17.3-20.7
		c-0.4-39-7.2-76.4-25.9-111.1c-9.9-18.4-21.7-34.9-41.5-44.4c-8.4-4.1-15.2-11-13.2-21.9c2.5-14,14.2-20.3,28-14.9
		c20.3,8,35.7,22.5,48,40.1c26.8,38.2,39.6,81.3,43.2,127.4c0.5,6.1,0.8,12.3,1.2,18.4C1620.6,978.8,1620.4,978.8,1620.2,978.8z"/>
</g>
</svg>
