<?xml version="1.0" encoding="utf-8"?>
<!-- Generator: Adobe Illustrator 27.3.1, SVG Export Plug-In . SVG Version: 6.00 Build 0)  -->
<svg version="1.1" id="Layer_1" xmlns="http://www.w3.org/2000/svg" xmlns:xlink="http://www.w3.org/1999/xlink" x="0px" y="0px"
	 viewBox="0 0 396.9 396.9" style="enable-background:new 0 0 396.9 396.9;" xml:space="preserve">
<style type="text/css">
	.st0{fill-rule:evenodd;clip-rule:evenodd;fill:#30313D;}
</style>
<path class="st0" d="M33.9,143.7c0-7.5,6.1-13.6,13.6-13.6h289.4c7.5,0,13.6,6.1,13.6,13.6v162.7c0,47.4-38.6,86-86,86H119.9
	c-47.4,0-86-38.6-86-86V143.7z M61,157.3v149.2c0,32.4,26.5,58.9,58.9,58.9h144.5c32.4,0,58.9-26.5,58.9-58.9V157.3H61z"/>
<path class="st0" d="M119.9,3.9c7.5,0,13.6,6.1,13.6,13.6v54.2c0,7.5-6.1,13.6-13.6,13.6c-7.5,0-13.6-6.1-13.6-13.6V17.5
	C106.3,10,112.4,3.9,119.9,3.9z"/>
<path class="st0" d="M192.4,3.9c7.5,0,13.6,6.1,13.6,13.6v54.2c0,7.5-6.1,13.6-13.6,13.6c-7.5,0-13.6-6.1-13.6-13.6V17.5
	C178.8,10,184.9,3.9,192.4,3.9z"/>
<path class="st0" d="M264.4,3.9c7.5,0,13.6,6.1,13.6,13.6v54.2c0,7.5-6.1,13.6-13.6,13.6c-7.5,0-13.6-6.1-13.6-13.6V17.5
	C250.8,10,256.9,3.9,264.4,3.9z"/>
</svg>
