<?xml version="1.0" encoding="utf-8"?>
<!-- Generator: Adobe Illustrator 27.3.1, SVG Export Plug-In . SVG Version: 6.00 Build 0)  -->
<svg version="1.1" id="Layer_1" xmlns="http://www.w3.org/2000/svg" xmlns:xlink="http://www.w3.org/1999/xlink" x="0px" y="0px"
	 viewBox="0 0 396.9 396.9" style="enable-background:new 0 0 396.9 396.9;" xml:space="preserve">
<g id="VyujVP.tif">
	<g>
		<path d="M80.9,272.6c-1.8-1-2.1-1.9-0.8-3.3c7-7.9,14.3-15.5,23-21.6c5.9-4.1,12.3-7.4,19.4-8.8c6.1-1.2,12.1-0.3,17.9,1.8
			c5.8,2.1,11.5,4.6,17.1,7.1c10.1,4.5,20,9.1,30.1,13.5c7.7,3.4,15.7,5.9,24.1,7.1c10.6,1.6,21,0.8,31-2.6c5.9-2,11.6-4.7,17.5-7
			c11.3-4.5,22.5-8.9,33.8-13.3c12.8-5.1,25.1-11.2,36.5-18.8c2.7-1.8,5.2-3.9,7-6.6c0.4-0.6,0.8-1.2,1-1.9c0.2-0.7,0.4-1.6,0-2.1
			c-0.3-0.5-1.3-0.7-2-0.6c-3.4,0.6-6.8,1.2-10.2,1.9c-10.3,2.1-20.6,4.4-30.9,6.1c-7.6,1.3-15.3,2-22.9,2.5
			c-8.6,0.7-17.2,1.3-25.9,1.2c-13.3-0.1-26.5-2-39.1-6.6c-4.7-1.7-9.1-4.2-13.4-6.7c-2-1.2-3.7-3.1-5.2-5c-1.8-2.2-2.1-4.9-1.3-7.7
			c0.6-2,1.7-3.4,3.7-4c1.6-0.5,3.3-1,5-1.1c6.9-0.4,13.6,1.1,20.3,2.5c8.8,1.8,17.5,3.7,26.4,5.3c4.2,0.8,8.5,1.6,12.8,0.4
			c1.7-0.5,3.4-1.2,4.8-2.1c2.4-1.7,2.5-4.1,0.4-6c-1.7-1.5-3.5-3-5.5-4.1c-16.2-8.7-32.9-16.4-50.4-21.9c-9.4-2.9-19-3.8-28.8-3.2
			c-19.2,1.3-37.3,6.3-54.9,13.9c-18.1,7.8-35.3,17.5-51.7,28.3c-3.7,2.4-7,5.5-10.5,8.3c-0.5,0.4-1,0.8-1.5,1.1
			c-0.7,0.4-1.5,0.6-2.1-0.2c-0.6-0.8-0.5-1.7,0.3-2.3c3.1-2.6,6.1-5.2,9.4-7.6c8.9-6.6,18.6-11.9,28.2-17.2
			c14.1-7.8,28.6-14.8,43.9-19.9c10.1-3.4,20.4-5.4,30.9-6.8c4-0.5,8-0.8,12.1-1.2c-0.4-1.6-1-3.1-1.3-4.7c-4.6-19,5.2-35.4,18.5-43
			c9.3-5.3,21.5-3.7,28.6,1.8c5.4,4.1,8.5,9.9,10.8,16.1c0.4,1.1,0.8,2.2,1.2,3.4c0,0,0.1,0,0.2,0.1c0.2-0.6,0.4-1.1,0.5-1.6
			c3.7-11.5,11.4-19,23.5-20.8c9.4-1.4,17.8,1.7,24.7,8.3c5.9,5.6,9.4,12.8,11.9,20.4c3.2,9.9,1.5,19.3-2.5,28.5
			c-3.2,7.5-8.4,13.6-14.1,19.3c-7.1,7-15,12.9-23.1,18.7c-5.9,4.2-11.9,8.3-17.9,12.5c-0.8,0.6-1.8,1-2.8,1.5
			c1.8,0.1,3.5,0.4,5.1,0.3c7.6-0.2,15.2-0.4,22.8-0.7c5.7-0.3,11.3-0.9,16.9-1.3c1.3-0.1,1.7-0.8,2.3-1.6
			c3.8-4.6,7.5-9.2,11.3-13.7c2.5-3,5-6.1,7.8-8.9c1.7-1.7,3.7-3.3,5.8-4.5c3.7-2,8-0.4,9.9,3.4c2.8,5.6,2.3,11.3,0.1,17
			c-0.2,0.6-0.4,1.1-0.8,2c2.5-0.5,4.8-1,7.1-1.5c3-0.6,6-1.3,9-1.8c0.9-0.2,2,0,2.9,0.3c2.6,0.8,4,3.3,3,5.8
			c-0.9,2.2-2.2,4.4-3.9,6.2c-1.8,2-4.1,3.7-6.3,5.2c-12.4,8.4-25.9,14.7-39.8,20.2c-8.5,3.4-17,6.5-25.5,9.9
			c-5.3,2.1-10.4,4.6-15.7,6.7c-7.5,3-15.2,5-23.2,5.7c-1.4,0.1-2.9,0.3-4.4,0.4c-1.2,0-2.3,0-3.5,0c-0.4-0.1-0.9-0.2-1.3-0.2
			c-7.9-0.3-15.6-2.1-23.1-4.5c-8.7-2.8-16.8-7.1-25.2-10.8c-10-4.4-20-8.8-30-13c-9.3-3.9-18.5-3-27.4,1.8c-3.3,1.8-6.5,3.8-9.5,6
			C96,257,89.9,263.3,84,269.9c-0.9,1-1.9,1.8-2.8,2.7C81.1,272.6,81,272.6,80.9,272.6z M265.7,200.7c0.5-0.4,0.8-0.5,1.1-0.7
			c4.1-3.5,8.3-6.8,12.2-10.4c6.2-5.7,11.5-12.1,14.8-20c2.2-5.4,3.9-11,3.5-16.9c-0.8-10-4.6-18.9-11.3-26.3
			c-6.9-7.5-15.6-10.5-25.6-8.2c-10,2.3-15.7,9.2-18.6,18.7c-0.7,2.2-1.1,4.4-1.6,6.6c-0.2,1-0.7,1.7-1.7,1.7c-1,0-1.6-0.7-1.9-1.6
			c-0.3-1-0.6-1.9-0.9-2.9c-1.3-5.5-3.4-10.6-6.5-15.4c-6.3-9.9-20.3-12.5-29.9-7c-14.9,8.5-22.5,26.4-15.7,44.2
			c0.3,0.7,0.6,0.9,1.3,1c6.5,0.1,12.7,1.3,18.9,3c19.4,5.6,37.6,14.1,55.3,23.9c1.4,0.8,2.7,1.8,3.8,2.9
			C265,195.2,266.4,197.5,265.7,200.7z M237.2,223.6c0-0.1,0.1-0.3,0.1-0.4c-1.8-1.2-3.5-2.5-5.3-3.5c-9.5-4.9-17.9-11.3-26-18
			c-0.5-0.4-0.9-1.1-1.4-1.5c-0.3-0.3-0.7-0.5-1.1-0.6c-3.4-0.3-6.7-0.3-10,0.5c-2.1,0.5-2.8,1.3-2.7,3.5c0.1,1,0.3,2.1,0.8,3
			c1,2.2,2.7,3.7,4.7,4.9c4.7,2.7,9.5,5.3,14.7,7c6.8,2.2,13.9,3.3,21,4.5C233.7,223.3,235.5,223.4,237.2,223.6z M289.8,221
			c0.2,0.1,0.4,0.1,0.5,0.1c8.3-1.5,16.7-3,25-4.5c0.4-0.1,0.8-0.4,0.9-0.8c0.8-1.9,1.8-3.8,2.3-5.8c1.1-3.9,1.2-7.9-0.6-11.6
			c-1.3-2.7-3.4-3.4-6-2c-1.2,0.7-2.4,1.5-3.4,2.5c-1.2,1.1-2.4,2.3-3.5,3.6c-4.9,5.8-9.7,11.7-14.6,17.6
			C290.1,220.3,290,220.6,289.8,221z M210.1,200.6c0.3,0.4,0.3,0.6,0.4,0.6c5.4,4.3,10.8,8.7,16.9,12.2c3.5,2,6.9,4.1,10.4,6.2
			c0.7,0.4,1.1,0.2,1.6-0.2c5.2-3.6,10.5-7.1,15.7-10.7c0.3-0.2,0.6-0.5,0.7-0.6c-4.1-0.3-8.4-0.2-12.6-0.9
			c-7.3-1.2-14.5-2.8-21.7-4.2C217.8,202.3,214.1,201.5,210.1,200.6z"/>
	</g>
</g>
</svg>
