<?xml version="1.0" encoding="utf-8"?>
<!-- Generator: Adobe Illustrator 27.3.1, SVG Export Plug-In . SVG Version: 6.00 Build 0)  -->
<svg version="1.1" id="Layer_1" xmlns="http://www.w3.org/2000/svg" xmlns:xlink="http://www.w3.org/1999/xlink" x="0px" y="0px"
	 viewBox="0 0 396.9 396.9" style="enable-background:new 0 0 396.9 396.9;" xml:space="preserve">
<style type="text/css">
	.st0{fill-rule:evenodd;clip-rule:evenodd;fill:#30313D;}
</style>
<path class="st0" d="M381.2,74.3v93c0,1.2-0.2,2.3-0.5,3.4c0,0,0,0,0,0c-0.1,0.3-0.2,0.6-0.3,0.8c0,0.1-0.1,0.2-0.1,0.3
	c0,0,0,0.1,0,0.1c0,0.1-0.1,0.2-0.1,0.3c-0.1,0.2-0.2,0.3-0.2,0.5c-0.1,0.2-0.2,0.4-0.3,0.5c0,0,0,0.1-0.1,0.1
	c-0.2,0.3-0.4,0.5-0.6,0.8c-0.1,0.1-0.2,0.3-0.3,0.4c-0.2,0.2-0.3,0.4-0.5,0.6c-0.1,0.1-0.2,0.2-0.3,0.3c-0.1,0.1-0.3,0.3-0.4,0.4
	c-0.1,0.1-0.3,0.2-0.4,0.4c-0.1,0.1-0.3,0.2-0.4,0.3c-0.1,0.1-0.3,0.2-0.5,0.3c-0.2,0.1-0.3,0.2-0.5,0.3s-0.3,0.2-0.5,0.3
	c-0.2,0.1-0.3,0.2-0.5,0.3c-0.2,0.1-0.3,0.2-0.5,0.2c-0.2,0.1-0.3,0.1-0.5,0.2c-0.2,0.1-0.4,0.1-0.5,0.2c-0.4,0.1-0.7,0.2-1.1,0.3
	c-0.1,0-0.2,0-0.4,0.1c-0.3,0-0.6,0.1-0.8,0.1c0,0-0.1,0-0.2,0c-0.3,0-0.6,0-1,0c0,0,0,0,0,0h-92.9c-6.4,0-11.6-5.2-11.6-11.6
	s5.2-11.6,11.6-11.6h63.6l-50.5-47.5c-0.1-0.1-0.2-0.2-0.3-0.3c-15.3-15.3-34.1-26.4-54.9-32.4s-42.7-6.7-63.7-1.9
	c-21.1,4.8-40.6,14.8-56.7,29.1c-16.1,14.4-28.4,32.5-35.6,52.9c-2.1,6-8.8,9.2-14.8,7.1c-6-2.1-9.2-8.8-7.1-14.8
	c8.5-24,23-45.5,42-62.5s42.1-28.8,67-34.4c24.9-5.6,50.8-4.9,75.3,2.2c24.5,7.1,46.7,20.2,64.7,38.2l52.1,49V74.3
	c0-6.4,5.2-11.6,11.6-11.6C376,62.7,381.2,67.9,381.2,74.3z"/>
<path class="st0" d="M341.6,248.6c-8.5,24-23,45.5-42,62.5s-42.1,28.8-67,34.4c-24.9,5.6-50.8,4.9-75.3-2.2
	c-24.5-7.1-46.7-20.2-64.7-38.2l-52.2-49v66.1c0,6.4-5.2,11.6-11.6,11.6s-11.6-5.2-11.6-11.6v-93c0-0.2,0-0.4,0-0.6
	c0-0.3,0.1-0.7,0.1-1c0-0.2,0-0.3,0.1-0.5c0-0.3,0.1-0.5,0.2-0.8c0-0.1,0.1-0.3,0.1-0.4c0.2-0.5,0.3-1,0.5-1.5
	c0.1-0.1,0.1-0.3,0.2-0.4c0.3-0.7,0.7-1.3,1.2-1.9c0.1-0.1,0.2-0.3,0.3-0.4c0.1-0.2,0.2-0.3,0.4-0.4c0,0,0,0,0.1-0.1
	c0.1-0.1,0.2-0.3,0.4-0.4c1.2-1.1,2.6-2,4-2.5l0.5-0.2c0,0,0,0,0,0c0.5-0.2,1.1-0.3,1.7-0.4c0.2,0,0.4-0.1,0.6-0.1
	c0.4,0,0.8-0.1,1.2-0.1h92.9c6.4,0,11.6,5.2,11.6,11.6c0,6.4-5.2,11.6-11.6,11.6H58.1l50.5,47.5c0.1,0.1,0.2,0.2,0.3,0.2
	c15.3,15.3,34.2,26.4,54.9,32.4c20.7,6,42.7,6.6,63.7,1.9c21-4.8,40.6-14.8,56.7-29.1c16.1-14.4,28.4-32.5,35.6-52.9
	c2.1-6,8.8-9.2,14.8-7.1S343.8,242.5,341.6,248.6z"/>
<path class="st0" d="M380.9,169.8c-0.1,0.3-0.1,0.6-0.2,0.8C380.7,170.4,380.8,170.1,380.9,169.8z M381.2,166.5v0.7
	c0,0.9-0.1,1.8-0.3,2.6C381.1,168.7,381.2,167.6,381.2,166.5z M380.5,171.2C380.5,171.2,380.5,171.2,380.5,171.2
	c0.1-0.2,0.1-0.4,0.2-0.5c-0.1,0.3-0.2,0.6-0.3,0.8C380.4,171.4,380.4,171.3,380.5,171.2z M379.9,172.6c0-0.1,0.1-0.2,0.1-0.3
	c-0.1,0.2-0.2,0.3-0.2,0.5C379.8,172.7,379.8,172.6,379.9,172.6z"/>
</svg>
