<?xml version="1.0" encoding="utf-8"?>
<!-- Generator: Adobe Illustrator 27.3.1, SVG Export Plug-In . SVG Version: 6.00 Build 0)  -->
<svg version="1.1" id="Layer_1" xmlns="http://www.w3.org/2000/svg" xmlns:xlink="http://www.w3.org/1999/xlink" x="0px" y="0px"
	 viewBox="0 0 2834.6 2834.6" style="enable-background:new 0 0 2834.6 2834.6;" xml:space="preserve">
<style type="text/css">
	.st0{fill:#30313D;}
</style>
<g>
	<path class="st0" d="M1398.7,419c19.4,1.3,38.9,2.3,58.2,3.9c105.4,8.7,207.1,33.3,305.5,71.7c157.8,61.6,297.5,151.2,415.7,272.8
		c59.1,60.8,109.3,128.6,147.2,205c0.9,1.9,1.9,3.8,3.4,6.9c2.4-4.5,4.4-8.1,6.1-11.7c12-25.2,24-50.5,36-75.7
		c4.4-9.4,9.4-18.2,21.5-18c11.7,0.2,17.2,8,20.4,18c0,1,0,2,0,3c-19.5,40.2-38.4,80.7-58.9,120.5c-10.6,20.7-20.2,23.3-44.6,19.6
		c-41.6-6.3-83.3-12.1-125-18c-11.1-1.6-17.4-9.4-16.6-21c0.8-10.9,9.1-19.3,19.9-18c32.4,3.8,64.7,8.3,97.1,12.5
		c1.7,0.2,3.5,0.4,6.6,0.8c-8-14-15.2-27.1-22.8-40c-75.8-128.6-180.4-228.7-305.3-308.8c-126.5-81.1-262.3-139.2-410.3-167.2
		c-145.7-27.5-290.7-25.3-431.7,23.1c-125.2,42.9-237.8,109.8-338.7,196c-113.4,97-188.7,219.8-244.8,355.9
		c-38.5,93.3-63,190-70.8,290.8c-5.7,72.9-2.2,145.4,6.7,217.9c10.3,84.5,28.6,166.8,59.6,246.2c41.1,105.4,109.9,190.8,190,268.6
		c149.1,144.9,328.6,230.9,529.7,274.7c55.7,12.1,112.4,19.4,168.9,27.6c16.7,2.4,33.9,0.9,50.9,0.9c12.5,0.1,21,7.9,21.5,20
		c0.4,10.9-8,20.2-20.1,19.6c-38.7-2.2-77.6-3.2-115.9-8.4c-124.2-16.8-244.2-49.5-358.8-100.6c-178.1-79.4-323.5-199.2-434.6-359.4
		c-61.5-88.7-97.1-188.5-117.1-294.3c-16-84.6-24.8-169.7-22.9-255.8c4-175.6,53.1-338.1,137.2-491.8
		C648.5,748,774.6,631.1,929.8,542.8c77.9-44.3,158.5-81.8,246.2-102.3c55.4-13,111.8-19.4,168.7-21c2.3-0.1,4.6-0.5,6.9-0.7
		C1367.3,419,1383,419,1398.7,419z"/>
	<path class="st0" d="M1405.1,1990.2c-40.9-4.7-74-12-103.4-31c-52.3-33.9-97.3-76.6-142-119.7c-41.6-40.1-82.1-81.5-124.4-120.9
		c-28-26.1-59.1-48.9-87.2-74.8c-37.1-34.1-72.8-69.8-97.6-114.4c-12.4-22.4-25.4-45.1-27-71.4c-2.1-34.4,6.2-66.7,30.4-92.2
		c33.9-35.8,78.2-54.5,123.6-70.9c55.8-20.2,110.4-43.6,160.6-75.4c70.2-44.5,115.5-109.7,146.6-185.5c15.6-38,29.5-76.7,46.2-114.2
		c14.3-32,37.3-58.2,62.3-82.5c38.3-37.2,81.5-41.7,129.7-20.9c42.1,18.1,78.8,44,111.7,75.2c63.1,59.8,126,120,187.6,181.3
		c17.5,17.4,30.5,39.5,45.8,59.1c3.7,4.8,8.6,8.8,13.2,12.8c40.5,34.8,81.3,69.1,113.6,112.1c17.3,23.1,32.3,47.8,35.4,77.2
		c4.7,44.1-14.3,78.1-47.9,105c-23.8,19.1-51.6,30.7-79.7,41.9c-45.9,18.3-92.4,35.4-136.9,56.7c-90.9,43.7-144.4,119.5-175.4,213.3
		c-13,39.3-23.9,79.6-40.8,117.1c-20.5,45.7-52.2,84-98.2,107C1435.4,1983.1,1417,1986.5,1405.1,1990.2z M1407.7,879.2
		c11.2,17,23.3,32.6,32.4,49.8c12.5,23.7,17.3,49.4,9.7,75.9c-13.9,48.8-79.6,82.1-132.4,67.6c-2-0.5-6.1,1.4-7,3.2
		c-33.8,70.5-80.5,130.6-145.8,174.1c-49.9,33.2-105.3,56.4-161.2,77.6c-37.8,14.3-75.6,28-107.8,53.4
		c-24.9,19.6-36.4,45.9-31.4,76.4c2.8,17.5,11.6,34.6,20.3,50.5c22.2,41.2,55.1,73.9,89,105.2c28.9,26.6,60.5,50.2,89.4,76.9
		c36.8,34,71.9,69.9,108,104.8c11.6,11.2,24.8,20.4,41.2,22.6c18.5,2.5,37.6,7.7,55.5,5.1c33.6-5,52.3-30.3,68.1-58.5
		c45-80.5,89.4-161.3,137.1-240.2c37-61.2,86-111.9,150.3-145.9c23.8-12.6,48.7-22.7,75.6-25.7c13-1.4,21.8,6.1,22.8,17.1
		c1.1,11.4-6.5,19-18.7,22.7c-21.2,6.4-43.1,12.2-62.7,22.1c-57.8,29.2-98.1,77.2-133.3,130.1c-0.2,0.3,0.1,0.9,0.1,1.4
		c33.9-1.1,58.6,24.2,62.5,50.8c3.6,25.1-14.5,52.9-40.4,63.1c-21.4,8.4-58.5,0.8-74.1-30.7c-2.2,3.7-4.2,7.1-6.1,10.6
		c-28.4,51.8-56.6,103.8-85.1,155.5c-20.6,37.3-51.7,60.8-93.9,68.5c-8,1.5-16.3,0.9-25.2,1.4c7.7,6.5,14.9,12.9,22.4,18.9
		c26.9,21.5,52.5,44.8,86.1,56.1c28,9.4,56.4,16.1,83.1-1.7c16.4-10.9,31-24.8,46-37.8c4-3.4,6.7-8.3,10.6-13.3
		c-61.2,10.9-98.2-8.3-110.9-56.6c-10.1-38.6,8.4-75.8,43.5-88.2c40.5-14.2,99.2,6.6,110,56c1.6-5.7,3.2-10.4,4.4-15.2
		c16.3-65.5,41.7-126.7,83.9-180.2c1.5-1.9,1.5-7,0-9c-19.2-25.4-30.1-53.3-23.2-85.4c8.2-38.4,42.5-69.4,82.5-76.1
		c35.4-6,83.9,16.2,103.2,46.9c0.9,1.5,4.3,3.1,5.7,2.5c36.6-14.3,73.1-28.8,109.5-43.3c9.6-3.8,19-8.1,29-12.3
		c-28.9-20.7-45.9-47-37.7-81.8c9.2-38.9,41.2-49.8,80.3-54c-29.5-31.4-57.4-61.2-87-92.8c-0.9,4.7-1.1,5.3-1.1,5.9
		c-1.3,36.2-13.7,68.7-36,96.6c-9.8,12.3-24,21.6-37.4,30.4c-8.4,5.5-19,0-23.8-9.2c-4.7-9.2-2.5-20.7,6.4-25.5
		c23.9-12.6,35.5-34.5,44.2-58.2c14.9-40.8,4.4-77-20.1-108.6c-12.3,6.8-23.4,14.7-35.7,19.6c-49,19.5-95.9,19.4-136.5-19.5
		c-29.5-28.3-50.9-75.4-22.9-124.4c8.3-14.5,19.3-27.4,28.9-40.9c-3.8-4-9-10.1-14.7-15.6c-31.7-30.6-63.5-61.3-103.2-81.4
		c-18.6-9.5-38.6-17.9-59-21.9C1443.6,838.4,1424.8,861.4,1407.7,879.2z M1732.3,1121.1c17-0.4,37.3-7,54.6-21.7
		c1.1-0.9,1.5-4.9,0.5-5.8c-33.3-32.8-66.8-65.5-100.4-98c-1-1-3.7-1.5-4.9-0.9c-16.8,8.7-33.9,40.6-32,59.3
		C1654.2,1092.9,1686.5,1121.1,1732.3,1121.1z M1381.6,912.4c-1.4,1.7-1.8,2.1-2,2.5c-17,38.7-34.1,77.4-51,116.2
		c-0.3,0.7,1.5,3.4,2.4,3.5c9.6,0,19.7,1.4,28.9-0.8c23.7-5.8,46.5-15.7,51.9-42.2C1418.2,960.1,1401,935.9,1381.6,912.4z
		 M1749.7,1497.2c-15.7-18-37.2-29.6-63.8-24.8c-21.8,3.9-37.3,18.3-44.7,39.4c-7.3,21,0,39.3,11.1,53.7
		C1684.9,1542.6,1717,1520.1,1749.7,1497.2z M1498,1816.5c-0.1-21.4-20.7-39.6-44.6-39.4c-20.7,0.2-34.7,13.3-34.7,32.5
		c0,22.9,19.9,43.7,41.6,43.5C1479.9,1852.9,1498.1,1835.3,1498,1816.5z M1968.9,1329.9c-22.7,0.9-38.9,13.9-38.4,31.6
		c0.4,14,17.3,32.8,31.2,34.3c3.5,0.4,8.9,0.4,10.7-1.7c13.4-15.7,20.9-33.8,18.5-55c-0.2-1.6-1.6-3.8-3-4.2
		C1981.8,1332.9,1975.3,1331.5,1968.9,1329.9z M1508.8,1585.6c-9.1,0-19.5,8.9-19.6,16.6c-0.1,11.4,9.3,21,20.4,20.9
		c10-0.1,20.1-10.2,20-20C1529.6,1592.9,1520.8,1585.6,1508.8,1585.6z"/>
	<path class="st0" d="M1777.1,1584c11.8,0.1,19.2,7.3,20.4,20.8c1.9,22.9,2.1,46,5.3,68.7c9.1,62.9,52,107.8,114.3,120.7
		c8.9,1.8,18.2,1.5,27.2,2.9c9.5,1.5,15.8,7.3,16.9,17.1c1.1,9.6-3.1,17.3-12.3,20.7c-15.6,5.7-31.4,10.8-47.3,15.8
		c-63.3,20-93.7,65.5-100.1,129.4c-1.6,15.6-2.2,31.2-2.9,46.9c-0.6,13.7-7.7,21.9-19.8,22.1c-11.6,0.2-19.1-7.9-20.3-21.4
		c-2.2-24.9-2.7-50-7.2-74.5c-8.1-44-31.4-78.6-72.6-98c-12.8-6-28.2-6.5-42.4-9.3c-22.2-4.3-31-21.5-18.1-37
		c3.4-4.1,9.8-7.9,15.1-8.2c37.4-1.9,64.3-21.2,84.2-51c21.3-31.8,28.4-68.5,33.2-105.7c1.8-13.7,3.5-27.4,6.2-41
		C1759.5,1590.1,1766.8,1583.9,1777.1,1584z M1702.2,1819.4c15,12.5,31.6,23.8,44.7,38.2c13.1,14.4,22.8,31.9,33.8,47.7
		c17-38.9,47.4-67,88.8-84.5c-44.5-21.2-77-52.5-94.6-99.4C1760.3,1762.7,1738.8,1797.7,1702.2,1819.4z"/>
	<path class="st0" d="M1132.1,754.9c13.1-0.1,19.5,8.4,20.4,24.2c2.2,37.6,14.6,70.2,48.8,90.3c8,4.7,17.8,7.3,27.2,8.6
		c13.6,1.9,22,6.6,24.1,16.4c2.2,10.7-2.6,18-14.9,25.3c-13.6,7.9-27.5,15.6-40,25.2c-31.9,24.6-42.8,59.7-47,97.9
		c-1.5,13.9-8.5,21.4-19.6,22c-10.9,0.7-19-6.3-22.1-19.7c-2.4-10.4-4.2-20.9-6.2-31.3c-5-26.5-18.1-48.6-37.4-66.8
		c-6.7-6.3-15.5-10.8-24-14.8c-10.1-4.8-17.8-11-17.7-22.9c0.1-11.4,8-15.6,17.8-19.8c17.7-7.7,31.5-21,41.9-37.4
		c15.1-23.9,22.8-50.5,28.6-77.8C1114.6,761.3,1121.1,755,1132.1,754.9z M1131.6,852.2c-14.8,19.5-30,39.5-44.1,58.1
		c13.6,17.5,28.3,36.5,41.2,53c16.2-18.7,34-39.2,51.7-59.6C1160.3,891,1141.4,874.1,1131.6,852.2z"/>
	<path class="st0" d="M1928.6,1497c13.3,0,20.5,6.8,22,19c2.1,17.1,3.9,34.7,17.7,47c7.3,6.5,16.3,11.7,25.4,15.5
		c8.7,3.8,17.4,6.7,19.6,17.1c2.2,10.6-3.2,18.8-11.8,23.3c-32.7,16.7-50,44.6-60,78.5c-2.9,9.9-10,15.2-20.6,14.5
		c-11-0.7-15.6-8-19.1-17.5c-6.1-16.9-12-34.1-20.6-49.8c-5-9.1-15.1-15.3-22.7-23.1c-5.2-5.4-11.5-10.5-14.6-17
		c-4.4-9.2,2.1-21.1,12.4-23.6c17.4-4.3,29.1-15.8,37.7-29.9c7.2-11.7,12.2-25,16.8-38.1C1914.3,1503,1920.2,1497.5,1928.6,1497z
		 M1900.8,1602.8c7.8,11.4,15.6,22.8,22.8,33.5c9.3-10.9,18.8-22.1,27.9-32.8c-8.1-8.8-16.6-18.2-22.9-25.2
		C1919.5,1586.4,1909.8,1594.9,1900.8,1602.8z"/>
	<path class="st0" d="M1479.6,1081.4c64,1.4,111.6,37.8,124.5,95.7c5.5,24.9,0.6,48.1-9.8,70.6c-15.7,33.7-70.6,84.7-127.2,81.7
		c-63.2-3.4-110.2-43.5-116.3-102.4c-7.2-68.9,29.3-124.6,91.9-139.8C1454.8,1084.3,1467.3,1083.3,1479.6,1081.4z M1478.6,1121.6
		c-7.9,1.1-15.9,1.7-23.7,3.4c-48.8,10.8-74.9,56.7-62.2,109.4c9.5,39.4,55.3,64.1,98.4,52.7c23.6-6.3,40.8-22.4,56.2-40
		c15-17.2,22.8-37.6,18-61.1C1557.1,1145.9,1525,1122.4,1478.6,1121.6z"/>
	<path class="st0" d="M1160.1,1552.4c-44.3-0.3-80.9-29.5-90.3-71.9c-9.3-42.3,12.4-86.4,51.4-105.1c30.2-14.5,61-21.9,92.4-5.4
		c19.9,10.4,32.1,26.4,39.7,49.5c14.4,44.1-10.1,93.2-41.8,116.5C1196.6,1546.9,1179.6,1552.6,1160.1,1552.4z M1177.8,1400.6
		c-31.2,0-59.2,18.5-66.9,41.8c-12.7,38.7,15,73.6,55.5,69.9c21.4-2,46.3-25.5,49.7-51.2c1.8-13.3,0-28.6-5-41
		C1205.1,1405.6,1189.9,1401,1177.8,1400.6z"/>
	<path class="st0" d="M1228.3,1607.7c41.2-3.1,83.7,40.8,84.8,71.2c1.2,30.8-14.4,51.9-39.3,66.9c-50.6,30.5-119.6,0.2-129.4-56.7
		c-3.4-20,2.6-37.6,16.4-52.4C1177.3,1619,1204.1,1607.5,1228.3,1607.7z M1229,1647.5c-13.9-0.1-27.8,5.6-37.4,15.2
		c-9,9-10.7,19-5,30.4c15,29.7,61.9,33.8,80.6,6.4c4.1-6,6.3-15.9,4.6-22.7C1268.2,1662.2,1244.4,1647.5,1229,1647.5z"/>
	<path class="st0" d="M1357,1399.4c42.5,0.8,77,30.3,76.4,65.4c-0.8,48.9-28.2,76.7-74.8,76c-42.9-0.7-73.7-31.9-72.9-74
		C1286.4,1426.8,1316.2,1398.7,1357,1399.4z M1362.1,1501.1c21.3,0.2,31.3-11.1,31.8-35.7c0.2-13.5-17.6-26.1-37.3-26.4
		c-19-0.3-30.9,10.9-31.1,29.3C1325.2,1489.1,1338.4,1500.9,1362.1,1501.1z"/>
	<path class="st0" d="M930.7,1497.6c0.2-33.9,26.4-60.9,59.1-60.9c35.4,0.1,66.9,28.1,65.3,60.6c-1.3,26.5-31.1,60-71.4,60
		C955.1,1557.4,930.6,1529.4,930.7,1497.6z M970.4,1498c0.1,9.8,7.6,19.9,14.9,19.8c10.3,0,29.8-14.3,29.8-21.7
		c-0.1-10.3-12.2-19.8-25-19.6C978.8,1476.7,970.3,1486,970.4,1498z"/>
</g>
</svg>
