<?xml version="1.0" encoding="utf-8"?>
<!-- Generator: Adobe Illustrator 27.0.0, SVG Export Plug-In . SVG Version: 6.00 Build 0)  -->
<svg version="1.1" id="Layer_1" xmlns="http://www.w3.org/2000/svg" xmlns:xlink="http://www.w3.org/1999/xlink" x="0px" y="0px"
	 viewBox="0 0 170.1 170.1" style="enable-background:new 0 0 170.1 170.1;" xml:space="preserve">
<style type="text/css">
	.st0{fill:#525252;stroke:#525252;stroke-width:0.5;}
</style>
<g id="ZOUkKu.tif">
	<g>
		<path class="st0" d="M28.3,82.6c0-0.7,0.1-1.3,0.2-2c0.5-8.1,3.1-15.6,7.3-22.6c2.8-4.6,6.1-8.7,9.9-12.4
			c3.5-3.5,7.2-6.8,11.4-9.4c6.3-4,13.2-6.7,20.5-8.1c4.8-0.9,9.6-1,14.5-0.6c8.9,0.7,17.2,3.3,25,7.7c1.2,0.7,2.4,1.5,3.6,2.3
			c0.2,0.1,0.4,0.2,0.6,0.1c3.8-1.4,7.6-2.9,11.4-4.3c4-1.5,8-3.2,12-4.7c1.2-0.5,2.4-0.8,3.7-1.2c0.4-0.1,0.8-0.1,1.1,0
			c0.7,0.1,1.3,0.5,1.6,1.1c0.5,0.9,0.8,1.9,1.1,2.9c0.3,1.2,0.7,2.4,0.9,3.7c0.2,1-0.2,1.7-1.1,2.1c-0.7,0.3-1.5,0.5-2.2,0.7
			c-3,0.7-5.9,1.5-8.9,2.2c-2.8,0.7-5.7,1.2-8.5,1.8c-1.2,0.3-2.4,0.6-3.7,0.9c-0.1,0-0.1,0-0.2,0.1c0,0,0,0.1,0.1,0.1
			c2,1.7,3.7,3.8,5.4,5.8c2.4,2.9,4.7,5.9,6.6,9.2c2,3.5,3.3,7.2,3.9,11.2c0.7,4.3,1.1,8.7,1,13c-0.1,9.3-2.1,18.2-6.1,26.7
			c-2.9,6-6.9,10.9-12,15.2c-4.1,3.4-8.2,6.7-12.7,9.6c-5.3,3.4-11.1,5.6-17.3,6.7c-5,0.9-10,1.2-15,0.9c-3.7-0.2-7.4-1.1-10.9-2.3
			c-4.9-1.7-9.3-4.1-13.5-7.2c-3.9-2.9-7.8-5.9-11.2-9.4c-4.8-5-9.2-10.5-12.5-16.7c-2.5-4.7-4.4-9.7-5.3-15
			c-0.3-1.8-0.4-3.5-0.6-5.3c0-0.3,0-0.6-0.1-0.8C28.3,83.8,28.3,83.2,28.3,82.6L28.3,82.6z M119.7,38c-0.2-0.1-0.3-0.2-0.4-0.3
			c-1.2-0.7-2.3-1.5-3.5-2.1c-7.9-4.4-16.3-6.7-25.2-7.2c-4.8-0.3-9.5,0-14.2,1c-8.6,1.9-16.4,5.4-23.3,10.9
			c-6,4.8-11.2,10.2-15.5,16.7C33,64,30.1,71.7,29.5,80.3c-0.3,4.3,0.1,8.6,1.1,12.8c1.4,5.7,3.8,11,7,15.9
			c5.1,7.9,11.5,14.7,19,20.3c4.2,3.2,8.7,6,13.7,7.8c4.3,1.6,8.7,2.8,13.4,3c4.5,0.1,8.9-0.1,13.3-0.9c6.4-1.1,12.3-3.4,17.8-7
			c3.4-2.2,6.5-4.6,9.6-7.2c2.1-1.8,4.3-3.5,6.2-5.4c4.3-4.3,7.4-9.5,9.6-15.1c1.7-4.2,2.8-8.6,3.6-13.1c0.6-3.4,0.9-6.8,0.9-10.2
			c-0.1-4.2-0.5-8.3-1.1-12.5c-0.6-3.7-1.8-7.2-3.8-10.4c-1.9-3.1-4.1-6.1-6.4-8.9c-1.7-2.1-3.5-4.2-5.7-6c-0.3-0.2-0.5-0.3-0.8-0.2
			c-3.8,1-7.6,2-11.5,3c-1.1,0.3-2.1,0.5-3.3,0.8c0.6,0.4,1.1,0.7,1.6,1c3.8,2.7,7.2,5.7,10.3,9.2c1.5,1.8,2.8,3.7,3.8,5.9
			c0.1,0.3,0.3,0.7,0.4,1c0.7-0.3,1.4-0.7,2.1-1c2-0.9,4.1-1.7,6.2-2.3c1-0.3,1.8,0,2.4,0.9c1.4,1.9,2.4,4,2.9,6.3
			c0.4,2.1-0.2,3.2-2.2,3.8c-2,0.7-4,1.4-5.9,2.1c-0.8,0.3-1.6,0.6-2.3,1c-0.1,0-0.2,0.2-0.2,0.3c0.1,1.5,0.3,3,0.5,4.5
			c0.2,2.7,0.2,5.3,0,8c-0.3,2.9-1.1,5.6-2.1,8.3c-1.3,3.4-3.3,6.4-5.4,9.3c-4.8,6.7-11.1,11.6-18.7,14.7
			c-6.8,2.8-13.9,3.7-21.2,2.6c-5.1-0.8-9.7-2.6-14.1-5.4c-4.2-2.6-7.6-6-10.6-9.9c-4.8-6.2-8-13.1-8.6-21.1
			c-0.2-3.3-0.1-6.5,0.5-9.7c0.2-1.1,0.4-2.1,0.7-3.1c0,0-0.1,0-0.1-0.1c-0.1,0-0.2-0.1-0.3-0.1c-2.2-0.6-4.1-1.6-5.8-3.1
			c-3.1-2.8-4.5-6.8-2.3-11c1.8-3.5,4.5-6.1,7.9-8c3.4-1.9,7.1-3.1,11-3.7c2.8-0.4,5.5-0.5,8.3,0.2c0.1,0,0.2,0,0.3-0.1
			c3-1.9,6.3-3.1,9.7-4.1c2.6-0.7,5.1-1.3,7.8-1.5c5-0.2,9.9,0.2,14.8,1.3c0.2,0,0.4,0,0.6-0.1c0.7-0.3,1.3-0.6,2-0.8
			c3.5-1.2,7-2.3,10.5-3.4C117.3,38.9,118.5,38.5,119.7,38L119.7,38z M69.5,48.6c-0.6-0.1-1.2-0.2-1.7-0.2c-2.2-0.2-4.3,0-6.5,0.4
			c-3.9,0.7-7.6,2.1-11,4.3c-2.6,1.7-4.7,3.9-6.1,6.7c-1.8,3.5-1.1,7,1.7,9.6c1.5,1.4,3.4,2.4,5.4,3.1c0.2,0.1,0.5,0.1,0.8,0.2
			C55.3,62.6,61.3,54.8,69.5,48.6L69.5,48.6z M104.9,43.9c0.2,0.1,0.2,0.1,0.3,0.2c1.8,0.5,3.6,1.2,5.3,2.1c0.1,0,0.2,0.1,0.3,0
			c0.7-0.2,1.4-0.3,2.1-0.5c3.1-0.8,6.2-1.5,9.3-2.3c3.4-0.9,6.9-1.8,10.3-2.7c3.3-0.8,6.7-1.5,10.1-2.2c1.9-0.4,3.7-0.9,5.5-1.4
			c1.1-0.3,2.2-0.5,3.3-0.9c0.9-0.3,1-0.5,0.7-1.4c-0.4-1.7-0.9-3.4-1.4-5.1c-0.1-0.3-0.3-0.6-0.4-0.9c-0.3-0.4-0.6-0.7-1.2-0.6
			c-0.6,0.1-1.2,0.1-1.7,0.3c-2.2,0.8-4.4,1.6-6.6,2.5c-6.8,2.7-13.6,5.4-20.5,7.8c-3.9,1.3-7.8,2.6-11.7,3.9
			C107.4,43.1,106.2,43.5,104.9,43.9z M130.5,84.1c0-3.8-0.3-6.9-0.9-10.1c-0.5-2.8-1.4-5.4-2.2-8.1c-0.5-1.6-1-3.2-1.9-4.7
			c-3.4-5.1-7.7-9.2-12.8-12.6c-4-2.7-8.5-4.1-13.2-4.8c-1.9-0.3-3.9-0.4-5.8-0.6c-2.4-0.2-4.8-0.1-7.2,0.2
			c-2.3,0.3-4.5,0.8-6.7,1.5c-2.8,0.9-5.6,1.8-8.1,3.5c-4.1,2.7-7.6,5.9-10.7,9.7c-5.7,7.1-9.2,15-9.5,24.1c-0.2,4.1,0.3,8.1,1.6,12
			c1.2,3.8,3.1,7.3,5.3,10.6c3.7,5.4,8.2,9.8,13.9,13c4.7,2.6,9.6,4.1,14.9,4.4c3.5,0.2,7-0.1,10.4-0.8c6.2-1.3,11.8-3.9,16.9-7.7
			c3.9-3,7.1-6.7,9.8-10.7C128.3,97,130.8,90.7,130.5,84.1L130.5,84.1z M130.8,73.9c0.4-0.2,1-0.4,1.5-0.6c2.3-0.8,4.7-1.7,7-2.5
			c1.2-0.4,1.6-1.1,1.4-2.3c-0.4-2.2-1.3-4.1-2.6-5.9c-0.7-1-0.9-1-2.1-0.7c-2.6,0.8-5.1,1.9-7.5,3.1c-0.1,0-0.1,0.2-0.1,0.3
			C129.1,68.2,129.9,71,130.8,73.9L130.8,73.9z"/>
		<path class="st0" d="M52.9,84.2c0-4,0.8-8,1.9-11.9c0.8-2.9,2.2-5.5,3.6-8.2c1.6-3,3.5-5.8,5.7-8.4c3-3.5,6.8-6.1,11-8
			c4-1.9,8.2-3.1,12.7-3.7c3.2-0.4,6.4-0.6,9.6,0c2,0.4,3.9,1,5.8,1.5c3.8,1.2,7.3,2.8,10.7,4.8c4.9,3.1,8.5,7.3,11.1,12.4
			c1.1,2.3,2,4.6,2.5,7.1c0.5,2.1,1,4.2,1.4,6.3c0.5,2.3,0.6,4.7,0.4,7.1c-0.1,1.9-0.3,3.9-0.6,5.8c-0.5,3.6-1.7,7-3.4,10.2
			c-3.6,6.7-8.6,12.1-15.3,15.9c-2.7,1.5-5.3,3-8.2,4c-3.9,1.3-7.9,2.2-12.1,2.3c-3.6,0.1-7.1-0.5-10.5-1.9c-3.5-1.4-6.9-3-9.9-5.3
			c-2.5-1.9-4.6-4.2-6.6-6.6c-3.4-4.1-6.2-8.6-8-13.6C53.5,91,52.9,87.7,52.9,84.2L52.9,84.2z M53.9,83.1c0,5.1,0.8,8.9,2.4,12.6
			c1.8,4.4,4.4,8.3,7.4,11.9c2,2.4,4.2,4.7,6.8,6.6c2.8,2.1,5.9,3.5,9.2,4.7c2.6,1,5.2,1.6,7.9,1.7c4.3,0.2,8.6-0.6,12.7-1.9
			c3.9-1.2,7.4-3.1,10.8-5.3c5.8-3.7,10.2-8.7,13.4-14.8c1.5-2.9,2.6-5.9,3.1-9.1c0.3-2,0.5-3.9,0.6-5.9c0.2-2.8,0.1-5.6-0.6-8.3
			c-0.3-1.1-0.6-2.1-0.8-3.1c-0.2-1.1-0.4-2.2-0.7-3.3c-0.5-1.9-1.2-3.8-2.1-5.6c-2.4-4.8-5.8-8.8-10.4-11.7
			c-4.2-2.6-8.8-4.5-13.6-5.8c-2.1-0.5-4.2-1-6.4-1c-2,0-4,0.2-5.9,0.4c-4.8,0.6-9.4,2-13.8,4.3c-3.1,1.6-6,3.7-8.4,6.2
			c-1.9,2.1-3.6,4.3-4.9,6.8c-1.8,3.1-3.6,6.1-4.6,9.5C54.8,76,53.9,80.1,53.9,83.1L53.9,83.1z"/>
		<path class="st0" d="M91.2,103.6c0.1-0.3,0.2-0.8,0.4-1.2c1.2-3.4,3.3-6.1,6.1-8.4c3.3-2.8,6.9-5,10.9-6.6
			c0.5-0.2,1.1-0.3,1.6-0.5c0.2,0,0.3,0,0.5,0c0.5,0,0.7,0.3,0.7,0.8c0,0.1,0,0.2-0.1,0.3c-1.3,3.8-3.2,7.2-6.2,10
			c-2.5,2.3-5.2,4.3-8.5,5.6c-1.3,0.5-2.7,0.9-4.1,1c-0.1,0-0.2,0-0.3,0C91.4,104.7,91.2,104.6,91.2,103.6L91.2,103.6z M110.2,87.9
			c-0.4,0.1-0.7,0.2-0.9,0.3c-4.8,1.9-9.1,4.6-12.8,8.3c-1.9,1.8-3.2,4-4,6.6c-0.1,0.2-0.1,0.3-0.1,0.5c0.3,0,0.6-0.1,0.9-0.1
			c0.8-0.2,1.6-0.3,2.3-0.6c5.4-2.1,9.7-5.6,12.7-10.5C109,90.9,109.6,89.5,110.2,87.9L110.2,87.9z"/>
		<path class="st0" d="M89.2,104.8c-0.3-0.1-0.9-0.2-1.5-0.4c-3-1.2-5.8-2.8-8.4-4.7c-2-1.4-3.8-2.9-5.4-4.8
			c-1.5-1.7-2.6-3.7-3.3-5.8c-0.2-0.4-0.2-0.9-0.3-1.4c0-0.6,0.3-0.7,0.8-0.6c0.6,0.1,1.2,0.2,1.8,0.3c2.4,0.5,4.7,1.5,6.7,2.9
			c2.8,1.9,5.4,4.1,7.4,6.9c1.4,2,2.5,4.2,3.3,6.6C90.5,104.5,90.2,104.8,89.2,104.8L89.2,104.8z M71.3,88.1
			c0.1,0.2,0.1,0.3,0.1,0.3c0.8,2.7,2.3,5,4.3,7c2,2.1,4.4,3.7,6.8,5.2c2,1.3,4.1,2.3,6.3,3.1c0.1,0,0.3,0.1,0.4,0.1
			c0-0.1,0-0.1,0-0.2c0-0.1-0.1-0.2-0.1-0.3c-1.6-4.4-4.3-8-8-10.8c-2.2-1.6-4.4-3.1-7-3.8C73.1,88.4,72.3,88.3,71.3,88.1L71.3,88.1
			z"/>
		<path class="st0" d="M107.3,77.7c-0.1,0.2-0.1,0.6-0.3,1c-2.2,5.9-6.4,9.8-12.2,12.1c-0.9,0.4-2,0.5-3,0.7
			c-0.3,0.1-0.6-0.2-0.6-0.5c0-0.3,0.1-0.7,0.2-1.1c0.9-2.9,2.6-5.2,4.8-7.2c2.2-2,4.6-3.7,7.3-4.9c0.8-0.4,1.7-0.6,2.6-0.9
			c0.1,0,0.2-0.1,0.4-0.1C107.1,76.8,107.3,77,107.3,77.7z M106.2,77.9c-0.1,0-0.2,0-0.2,0c-0.3,0.1-0.7,0.2-1.1,0.4
			c-3.5,1.4-6.5,3.6-9.1,6.3c-1.5,1.5-2.6,3.2-3.3,5.2c-0.1,0.2-0.1,0.4-0.2,0.6C97.2,90.2,105.2,83.1,106.2,77.9z"/>
		<path class="st0" d="M75.5,76.9c0.4,0.1,1.1,0.3,1.9,0.5c5.4,1.9,9.3,5.6,12,10.5c0.4,0.7,0.7,1.4,1,2.1c0.1,0.3,0.1,0.7,0.1,1.1
			c0,0.4-0.3,0.5-0.7,0.4c-1.6-0.4-3.1-1-4.4-1.8c-3.3-2-6.4-4.3-8.6-7.6c-0.9-1.3-1.6-2.7-2.3-4.1C74.1,77.3,74.4,76.8,75.5,76.9
			L75.5,76.9z M89.4,90.3c-1.2-3.2-3.8-6.9-7.3-9.4c-2-1.4-4.2-2.5-6.6-3C76.8,82.4,84.8,89.5,89.4,90.3z"/>
		<path class="st0" d="M79.3,68c0.8,0.3,1.7,0.4,2.5,0.8c3.9,1.7,6.8,4.5,8.6,8.4c0.2,0.4,0.3,0.9,0.5,1.3c0.2,0.5-0.1,0.8-0.6,0.7
			c-0.3,0-0.7-0.1-1-0.2c-4.8-1.7-8.3-4.7-10.4-9.4c-0.1-0.2-0.2-0.5-0.2-0.7C78.6,68.3,78.8,68,79.3,68L79.3,68z M79.8,69.2
			c0.9,2.2,2.3,3.9,4,5.5c1.7,1.5,3.7,2.7,5.9,3.4C88.4,74.1,83.1,69.4,79.8,69.2z"/>
		<path class="st0" d="M103.4,69.2c-0.1,0.7-0.4,1.4-0.8,2.2c-1.1,2.2-2.9,3.9-4.9,5.3c-1.6,1.1-3.3,1.8-5.1,2.4
			c-0.2,0.1-0.5,0.1-0.7,0.1c-0.5,0-0.7-0.3-0.6-0.7c0.3-0.8,0.6-1.6,1-2.3c1.2-2.1,3-3.7,5-5.1c1.5-1.1,3.2-1.9,4.9-2.6
			c0.1,0,0.2-0.1,0.3-0.1C103.1,68.2,103.4,68.4,103.4,69.2L103.4,69.2z M92.4,78c3.8-0.6,9.4-5.5,9.8-8.5c-0.1,0.1-0.2,0.1-0.4,0.1
			c-1.1,0.6-2.2,1.1-3.2,1.7c-2.1,1.2-3.9,2.7-5.2,4.7C93.1,76.7,92.8,77.3,92.4,78L92.4,78z"/>
		<path class="st0" d="M90.8,64.9c0.7-0.7,1.5-1.2,2.4-1.3c2.1-0.3,4,1.5,3.6,3.4c-0.1,0.4-0.3,0.9-0.6,1.2
			c-0.9,0.8-1.9,1.5-2.8,2.2c-0.6,0.4-1.1,0.8-1.6,1.3c-0.4,0.3-0.6,0.3-1,0c-0.7-0.6-1.5-1.1-2.2-1.6c-0.9-0.6-1.9-1.2-2.6-1.9
			c-0.6-0.6-1-1.4-0.9-2.3c0.1-1.3,1.1-2.2,2.4-2.2C88.7,63.7,89.5,64,90.8,64.9L90.8,64.9z M91.3,70.8c1.1-0.8,2.2-1.5,3.3-2.3
			c0.3-0.2,0.6-0.5,0.9-0.7c0.6-0.6,0.7-1.3,0.2-1.9c-0.2-0.4-0.6-0.7-1-0.9c-1-0.6-2.4-0.2-3.3,0.9c-0.3,0.4-0.8,0.4-1.2,0.1
			c-0.8-0.8-1.8-1.2-2.9-1.1c-1.2,0.1-1.8,1.3-1.1,2.3c0.1,0.2,0.3,0.4,0.5,0.6c0.4,0.4,0.9,0.8,1.4,1.1
			C89.2,69.4,90.3,70.1,91.3,70.8L91.3,70.8z"/>
	</g>
</g>
</svg>
