<?xml version="1.0" encoding="utf-8"?>
<!-- Generator: Adobe Illustrator 27.0.0, SVG Export Plug-In . SVG Version: 6.00 Build 0)  -->
<svg version="1.1" id="Logo_nebeneinander" xmlns="http://www.w3.org/2000/svg" xmlns:xlink="http://www.w3.org/1999/xlink" x="0px"
	 y="0px" viewBox="0 0 68.5 144.6" style="enable-background:new 0 0 68.5 144.6;" xml:space="preserve">
<style type="text/css">
	.st0{fill:#E9D08B;}
</style>
<g>
	<path class="st0" d="M32.9,0c1,3.3,1.9,6.5,2.9,9.8c2.3,7.9,5,15.6,7.8,23.4c0.5,1.4,0.9,2.8,1.5,4.1c1.1,2.1,0.3,4-0.1,6
		c-1.2,6.3-2.1,12.7-3.1,19.1c-1.4,8.5-2.7,16.9-5.2,25.2c-0.6,1.9-1.3,3.8-2.6,5.6c-0.9-1.3-1.4-2.7-2-4c-4-8.8-7.7-17.7-10.7-26.9
		c-1-3.1-1.8-6.2-2.3-9.5c-0.1-0.7,0.1-1.4,0.3-2c4.5-11.2,7.9-22.6,10.1-34.5c0.9-5,1.6-10.1,2-15.2c0-0.5,0.1-0.9,0.5-1.2L32.9,0
		L32.9,0z"/>
	<path class="st0" d="M50.1,48.1c1.3,3.3,2.5,6.4,3.7,9.4c2.8,6.7,5.7,13.3,8.5,20c2.6,6.2,4.8,12.5,5.7,19.2
		c1.8,13.2-1.1,25.3-9.7,35.8c-5.1,6.3-11.7,10.3-19.7,11.8c-0.7,0.1-1.4,0.2-2.2,0.3c-0.9,0.1-1.4,0-1-1.2
		c1.1-4.1,2.1-8.2,2.9-12.3c0.7-3.5,1.1-7,1.4-10.6c0.4-5-0.3-10.1-0.1-15.1c0.3-6.1,1.5-11.9,3.3-17.7c2.6-8.5,4.6-17.2,5.8-26
		C49.5,57.3,49.8,52.9,50.1,48.1L50.1,48.1z"/>
	<path class="st0" d="M15.4,59.3c0.4,0.3,0.4,0.5,0.4,0.8c-0.1,8.1,2.5,15.5,6,22.7c2.8,5.6,5.9,11.1,8.1,17
		c1.8,4.8,3.1,9.7,3.6,14.9c0.3,2.9,0.5,5.8,0.4,8.7c-0.3,6.2-1.1,12.4-2.5,18.5c-0.6,2.5-0.6,2.5-3.2,1.8
		c-9.4-2.6-16.6-8.2-21.6-16.6c-3.9-6.6-6.1-13.8-6.5-21.5c-0.6-8.9,1.3-17.4,4.8-25.5c3-7,7-13.5,10.4-20.3
		C15.2,59.5,15.3,59.4,15.4,59.3L15.4,59.3z"/>
</g>
</svg>
