<?xml version="1.0" encoding="utf-8"?>
<!-- Generator: Adobe Illustrator 27.3.1, SVG Export Plug-In . SVG Version: 6.00 Build 0)  -->
<svg version="1.1" id="Layer_1" xmlns="http://www.w3.org/2000/svg" xmlns:xlink="http://www.w3.org/1999/xlink" x="0px" y="0px"
	 viewBox="0 0 2471.8 2471.8" style="enable-background:new 0 0 2471.8 2471.8;" xml:space="preserve">
<style type="text/css">
	.st0{fill:#303030;}
</style>
<g>
	<path class="st0" d="M1258.3,318.6c12.5,4.6,16.2,13.7,16.1,26.5c-0.7,65.8-0.8,131.6-1.1,197.4c-0.1,12.4-8.3,21.1-19.8,21.1
		c-11.5,0-20-8.7-19.9-21c0.2-67.8,0.6-135.6,0.9-203.4c0.1-10.9,6.7-16.7,15.8-20.6C1252.9,318.6,1255.6,318.6,1258.3,318.6z"/>
	<path class="st0" d="M2087.8,1688.3c16.6-13.9,27-29.3,29.6-50.6c10.6-87.9,19.4-175.9,16.9-264.6c-1.3-46.9-4.1-93.8-22.4-137.8
		c-16.5-39.7-47.3-65.2-86.1-82c-25-10.8-50.5-20.6-75.2-32.2c-37-17.3-56.3-47-57.4-86.9c-10.2,0-20.1-0.1-30,0.2
		c-1.1,0-2.6,2.5-3,4.1c-2.8,10.9-4.9,22.1-8.3,32.9c-6.3,20-18.4,35.3-37.2,43.4c8.6,14.8,18.2,28.7,25,43.8
		c15.5,34.1,19.6,71.1,23.2,107.9c7.4,76.2,0.9,152.1-5.6,228c-2.8,32.8-5.1,65.8-10.7,98.2c-5.7,33.1-24.9,59.1-55.4,73.2
		c-11.9,5.5-11.8,11.5-12.2,21.3c-4,93.2-8.1,186.4-12.8,279.6c-1.8,35.7-4.2,71.5-8.5,107.1c-2.9,24-18.4,41.4-38.1,54.4
		c-7.9,5.2-16.2,2.9-22.9-3.4c-6.7-6.2-8.3-13.9-4.2-22.3c1.2-2.5,2.8-5.2,5.1-6.7c18-12,22.5-29.6,23.6-50
		c4.2-75.7,10.1-151.3,13.9-227c2.9-57.1,5.2-114.2,4.7-171.3c-0.6-72.8-5.1-145.6-6-218.4c-0.4-30.6,3.4-61.4,6.9-91.9
		c1.6-13.4,8.3-25.7,20.2-33.9c7.7-5.3,16.8-7,24.3-1.3c4.7,3.6,7.5,10.6,9.6,16.6c0.9,2.6-1.1,7.8-3.5,9.9
		c-16.5,14.2-17.1,33.9-17,52.8c0.4,59.4,2.1,118.9,3.1,178.3c0.4,22.3,0.1,44.6,0.1,70c15-12.7,27.1-24.4,29.3-40.8
		c12.7-91.2,22-182.7,18.8-274.9c-1.2-34.8-5.5-69.7-11.6-104c-10-56.5-44.6-94.3-96.6-116.8c-26.1-11.3-52.8-21.4-78.3-33.9
		c-34.5-16.8-52.7-45.2-54.1-84c0-0.8-0.2-1.6-0.1-1.3c-10.4,0-20.5-0.1-30.5,0.2c-0.9,0-2.1,2.1-2.4,3.4
		c-3.3,12.4-5.4,25.2-9.9,37.1c-15.3,40.7-54.1,56.4-93.4,37.9c-35.2-16.5-59.8-44.9-80.4-76.6c-31.6-48.6-50.9-102.7-68-157.6
		c-3.1-10.1-6.3-20.2-9.9-31.8c-3.3,16.5-5.6,31.6-9.4,46.3c-5.7,22.6-12.5,44.8-18.6,67.3c-0.9,3.4-1,7.7,0.2,10.9
		c29,78.4,71.1,149.7,120.3,216.8c40.2,54.7,59.8,116.1,59.6,183c-0.5,161.1-3.5,322.3-4,483.4c-0.3,93.3,2.3,186.6,3.2,279.9
		c0.1,13.6,6.8,21.8,16.9,29c6.9,4.9,13.1,10.8,11,20.7c-3.2,14.9-15.9,21-29.8,13.7c-23.2-12.2-36.9-31.5-37.4-57.8
		c-1.7-93.3-4.3-186.6-3.7-279.9c0.9-138.5,5.1-276.9,5.9-415.4c0.2-46.1-4.3-92.5-9.9-138.3c-3.6-29.5-17.7-56.2-35.1-80.8
		c-45.4-64.1-86.9-130.6-118.7-202.7c-0.3-0.7-0.8-1.4-1.5-2.6c-5.2,11-10,21.5-15.1,32c-29.6,61-65.9,118-104.9,173.3
		c-25.5,36.1-37.9,76.5-41.5,120.2c-7.8,95.5-1.2,190.9-0.2,286.3c1.3,122.8,1.8,245.6,2,368.4c0.1,45.5-1.5,90.9-2.8,136.4
		c-0.7,27.7-13.5,48.4-38.3,61c-13.1,6.7-25.8,1.7-28.3-12.2c-1-5.8,1.8-15.7,6.2-18.5c18.3-11.7,20.3-28.2,21.1-48
		c8-203.3-0.8-406.6-2-609.9c-0.3-53.1-0.6-106.4,1.9-159.4c2.7-56.8,20.5-109.3,54.2-155.8c55.2-76.1,103.3-156.1,132.6-246.1
		c19.4-59.6,31.4-120.8,34.3-183.5c0.4-9.5-0.5-19.3-2.4-28.7c-2.1-10.5-11.5-13.5-17.8-5c-9.7,13.1-19.7,27-25,42.1
		c-18.5,52.3-34.2,105.7-52.7,158.1c-19.1,53.9-42.8,105.7-83.8,147.3c-19.4,19.7-40.6,36.9-69.1,41.2c-27,4.1-53.5-8.4-65.4-33.1
		c-7.2-14.9-10.2-31.8-15.4-47.7c-0.6-1.9-3.3-4.2-5.1-4.3c-9.1-0.4-18.2-0.2-27.3-0.2c-1.2,7.4-1.9,16.4-4.2,25
		c-7,26.8-23.5,46.8-48.1,58.9c-24,11.7-48.8,22.2-73.7,31.9c-65.2,25.6-99.3,74.2-108.8,142.6c-9.8,70.4-8.6,141-3,211.5
		c3.8,48.3,9.4,96.4,15.3,144.5c2.1,16.7,14.2,28.2,28.5,40.6c0-16.7-0.4-31.1,0.1-45.5c1.7-57.8,4.3-115.6,5-173.4
		c0.3-20.8-3.1-41.7-5.9-62.5c-0.7-5-4.6-10.2-8.3-14.1c-7.6-7.9-10.1-16.8-5.4-24.7c4.9-8.3,15.6-12,25.4-8.7
		c11.5,3.9,17.7,13.1,22.4,23.6c9.9,22.4,11.2,46.3,10.8,70.1c-1.2,76.6-4.2,153.2-4.9,229.9c-0.5,56.8,0.7,113.6,2.9,170.4
		c2.4,60.9,6.5,121.8,10.3,182.6c1.8,29.8,4,59.5,7.4,89.1c0.8,7.2,6.5,14.2,10.9,20.5c3.3,4.7,8.7,7.8,12.4,12.2
		c6.9,8.3,6.3,18.4-0.9,25.7c-7.4,7.5-17.7,8.4-26.3,2.3c-27.6-19.7-37.1-47.3-38.8-80.3c-4.6-91.3-11-182.6-16-273.9
		c-1.8-32.4-1.4-65-2.3-97.5c-0.1-1.9-2.5-4.3-4.5-5.5c-6.5-3.7-13.8-6-19.7-10.4c-29.1-21.8-44.3-51.5-46.8-87.4
		c-5.5-79.7-11.5-159.5-15.1-239.3c-2.2-49,3.9-97.8,15.7-145.6c6.6-26.7,19.3-50.2,36.6-71.4c1-1.3,2-2.6,3.4-4.3
		c-39-12.7-48.3-45.2-54.9-79.7c-0.4-1.9-3.7-4.5-5.7-4.6c-8.9-0.5-17.8-0.2-26.6-0.2c-1.3,8.1-2.1,17.2-4.5,26
		c-7,26.1-23,45.7-46.9,57.5c-23.8,11.8-48.4,22.2-73.2,31.9c-66.5,25.8-101.1,74.9-110.6,144.6c-9.3,68.5-8.4,137-3.1,205.5
		c3.8,49.5,9.7,98.8,15.5,148c2,17.3,14.2,29,28.5,41.5c0-13.9-0.3-25.8,0-37.7c1.8-60.5,4.3-120.9,5.2-181.3
		c0.3-20.8-3.2-41.7-5.9-62.5c-0.6-4.7-4.2-9.8-7.7-13.3c-8.2-8-10.8-17.3-5.7-25.5c5.2-8.5,17.4-13.4,26.1-7.6
		c8.4,5.6,18,13.8,20.7,22.7c6,20,10.9,41.2,11,61.9c0.4,63.3-2.2,126.7-2.6,190c-0.4,71.1-0.9,142.3,1,213.3
		c1.7,61.9,6.6,123.8,10.3,185.6c0.8,13.1,1.1,26.4,3.5,39.2c1.4,7.3,5.6,14.7,10.3,20.7c8.3,10.8,17.6,20.9,27,30.7
		c9.7,10,11.2,20.7,3.3,29.5c-8.2,9.2-19.3,9.3-29.9-0.1c-21.8-19.2-39.9-41.4-49.7-68.9c-3.7-10.3-2.6-22.4-3.1-33.7
		c-4.9-106-9.6-212-14.6-318c-0.1-1.6-2.2-3.6-3.8-4.4c-5.9-3.1-12.5-4.9-17.8-8.7c-31.2-22-47-52.9-49.7-90.5
		c-5.4-74.9-11.3-149.8-15-224.8c-2.4-49.8,2.5-99.5,13.3-148.4c15-67.6,56.4-112.8,118.5-140.4c21.3-9.4,43.3-17.1,64.7-26.3
		c7.7-3.3,14.7-8.4,21.8-13c20.4-12.9,23.3-33.1,22.1-54.8c-0.1-1.4-2.6-3-4.3-3.8c-44.8-21.2-75.7-54.4-85.3-103.9
		c-15-77,32.2-152.2,106.2-171.1c75.6-19.3,152.1,23.8,176.5,99.4c10.1,31.2,10.9,62.7,2.5,94.5c-11.2,42.3-40.5,67.5-78.7,84.7
		c-2.2,1-4.7,5.6-4.2,7.9c2.4,11.5,5.1,23.1,9.1,34.1c3.8,10.4,11.6,15,23.7,13.3c9.5-1.4,19.5-0.1,29.2-0.1c1,0,2,0,2.9-0.4
		c29.9-12.8,60.3-24.8,89.6-39c13.4-6.5,25.7-16.5,36.8-26.7c12.1-11.3,7.6-27.8,8.9-42.3c0.1-0.9-2.8-2.3-4.5-3.2
		c-48.1-22.9-79.2-59.3-86.7-112.9c-10-71.2,34.3-139.9,102.3-160.4c68.3-20.6,142.5,12,173.6,77.3c21.5,45,23.3,91.2,2.5,137.2
		c-14.1,31.1-40.6,48.9-70.5,62.6c-2,0.9-4.6,4.1-4.3,5.7c2.6,12,4.6,24.3,9.1,35.6c5.9,14.8,16.2,18.7,31.3,14
		c27.2-8.5,46.1-27.6,61.7-50.1c33.1-47.5,53.5-100.9,70.8-155.7c12.4-39.3,24-79,38.7-117.5c6.8-17.8,18.5-34.3,30.5-49.3
		c12.8-16,30.8-22.8,51.9-17c21.5,5.9,30.3,22.2,35.9,42c9,31.6,19.3,62.8,28.8,94.2c17.9,58.8,35.4,117.6,65.7,171.7
		c14.7,26.2,30.7,51.4,55.9,68.8c8.5,5.8,18.4,10,28.2,13.4c11.8,4.1,21.2,1.1,26.2-10.3c5.6-12.9,8.3-27.1,11.8-40.9
		c0.3-1.1-2.6-3.8-4.5-4.6c-45.7-19.6-75.4-51.9-82.8-102.5c-13-89.3,45.7-180.9,150.7-180.3c70.4,0.4,131.3,56.3,139.7,127
		c8,66.7-24.2,123.6-85.5,151.9c-2.5,1.2-4.9,5.2-5.2,8.1c-4,31.2,13.6,49.6,39.2,61.5c22,10.2,45.3,17.6,67.2,28
		c17.8,8.5,34.2,19.7,51.3,29.6c1.5,0.9,4.1,1.6,5.4,0.9c23.6-12.5,30.6-34.5,32.6-59c0.1-1.6-2.5-4.4-4.4-5.2
		c-44-19.1-73.5-49.9-82.1-98.6c-13.9-79.3,31.6-170.5,129.7-183.3c76.1-9.9,149,46.1,159.8,123.8c9.4,67.6-23.2,125.8-86.1,154.8
		c-2.1,1-4,4.6-4.2,7.1c-0.4,6.6,0,13.3,0.6,20c1.5,15.7,11.9,26,24.1,33.1c16.2,9.3,33.4,17.3,50.8,23.9
		c36.9,14,71.9,30.4,100.4,58.9c35.8,35.8,50.4,80.4,57.4,128.9c10.5,72.4,8,144.9,2.1,217.4c-3.6,45.3-7,90.7-12.6,135.8
		c-4.5,36.6-23.9,65.3-57.1,81.6c-11.1,5.4-11.9,11-12.3,20.9c-4.2,98-8.5,196.1-13.9,294c-0.8,13.9-5.7,28.3-12,40.9
		c-8.8,17.6-19.7,34.3-31.4,50.2c-8.5,11.6-21.7,12.3-30.6,4.3c-8.8-7.9-8.1-19.8,1.2-30.9c22-26.2,34.1-55.9,35.4-90.6
		c3.6-93.4,10.7-186.7,12.1-280.1c1.1-76.7-5.2-153.5-6.1-230.3c-0.4-35.1,2.9-70.5,6.8-105.4c1.2-10.7,8.6-21.4,15.2-30.7
		c6.2-8.7,16.3-11.4,26.9-7.6c11.8,4.3,17.6,18.7,9.1,27c-17.7,17.2-17.7,39-17.7,60.3c0.2,54.5,2,108.9,3.1,163.3
		c0.5,23.3,1.2,46.6,1.8,70C2087.5,1683.3,2087.6,1685.2,2087.8,1688.3z M1016.2,836c-1.3-9.5-2.1-19.2-4-28.6
		c-11.7-57.4-61.1-93.1-119.9-86.9c-52,5.5-91.7,53-91.2,109.2c0.4,45.8,33,83.8,82,99.8C943.6,949.2,1019.3,907.1,1016.2,836z
		 M703.2,889c-0.9-8.3-1.5-16.6-2.9-24.8c-9.6-57.1-57.2-95.2-114.6-91.7c-53.4,3.2-94.7,47.3-97.4,104.2
		c-2.2,46.3,28.7,86.3,77,103.9C629.4,1004,706.4,960.2,703.2,889z M1771.4,896.5c1.1,8.2,2.1,16.5,3.2,24.7
		c6.8,48.5,71,80.9,115.4,72c62.3-12.5,101.9-60.1,95.3-119.9c-6.7-60.3-62.1-102.3-121.6-92.1
		C1808.5,790.7,1772.2,836.3,1771.4,896.5z M1463.1,836.5c1.2,8.9,2.3,17.8,3.7,26.6c7.3,46.7,71,78.8,114.4,70.2
		c61.4-12.2,100.8-58,96.2-117c-4.8-61.3-61.8-105.7-121.9-95.1C1499.8,731,1464,776.1,1463.1,836.5z"/>
	<path class="st0" d="M1557,1867.7c0-79.6,0-159.3,0-238.9c0-13.7,8-22.3,20.1-22.2c11.8,0.1,19.4,8.8,19.3,22.5
		c-0.8,150.9-1.6,301.9-2.4,452.8c0,8.5-0.1,17-0.1,25.5c-0.1,13.5-8.2,22.3-20.3,22.2c-11.6-0.1-19.3-8.9-19.3-22
		c0-80,0-159.9,0-239.9C1555.2,1867.7,1556.1,1867.7,1557,1867.7z"/>
	<path class="st0" d="M925.1,1867.4c0,79.6,0,159.3,0,238.9c0,14.3-7.6,23.2-19.8,23.2c-12.2,0-19.9-8.9-20-23
		c-0.9-159.1-1.9-318.2-2.8-477.4c-0.1-9.7,3.1-17.5,12.5-21.2c8-3.2,16-1.8,21.4,4.8c3.1,3.8,5.5,9.5,5.5,14.3
		c0.3,80.1,0.2,160.3,0.2,240.4C923.2,1867.4,924.2,1867.4,925.1,1867.4z"/>
	<path class="st0" d="M584.3,1906.2c2,66.8,4,133.6,5.8,200.4c0.4,15.4-12.3,25.4-25.9,20.8c-8.8-3-13.4-9.6-13.7-18.9
		c-2.7-92.1-5.4-184.2-8.1-276.3c-1.2-41.8-2.4-83.6-3.7-125.4c-0.4-13.2,7.2-22.7,18.9-23.1c12.2-0.4,20.3,8.1,20.7,21.6
		C580.3,1772.2,582.4,1839.2,584.3,1906.2C584.3,1906.2,584.3,1906.2,584.3,1906.2z"/>
	<path class="st0" d="M1903.5,1875.5c1.7,65.9,3.3,131.9,5,197.8c0.3,13.5-7,22.6-18.7,23.1c-12,0.5-20.4-8-20.7-21.7
		c-2.9-110.1-5.8-220.1-8.7-330.2c-0.6-22.5-1.3-45-1.8-67.4c-0.2-10.2,4-18.1,14.2-21c9-2.6,17,0.1,22.2,8.2
		c1.9,3.1,3,7.1,3.1,10.8C1900,1741.9,1901.7,1808.7,1903.5,1875.5z"/>
	<path class="st0" d="M1492.5,448.7c5.9,5.2,13.9,8.9,15.7,14.7c2,6.3,0.9,16.9-3.4,21.2c-46.1,46-92.9,91.2-139.8,136.5
		c-8.1,7.9-20.3,7.2-27.8-0.7c-7.6-8-7.3-20.3,0.9-28.2c45.8-44.6,91.6-89.2,137.7-133.6C1479.7,454.7,1485.4,452.8,1492.5,448.7z"
		/>
	<path class="st0" d="M1113.9,626.3c-6.9-3.8-12.4-5.5-16.1-9.1c-45.3-43.2-90.4-86.6-135.5-130c-7.9-7.6-8.2-20-1-27.9
		c7.3-8,19.7-8.9,27.8-1.1c46,43.9,91.9,88,137.6,132.2c6.3,6.1,7.8,14.4,3.2,21.5C1126.2,617.5,1119.7,621.3,1113.9,626.3z"/>
</g>
</svg>
