<?xml version="1.0" encoding="utf-8"?>
<!-- Generator: Adobe Illustrator 27.3.1, SVG Export Plug-In . SVG Version: 6.00 Build 0)  -->
<svg version="1.1" id="Layer_1" xmlns="http://www.w3.org/2000/svg" xmlns:xlink="http://www.w3.org/1999/xlink" x="0px" y="0px"
	 viewBox="0 0 396.9 396.9" style="enable-background:new 0 0 396.9 396.9;" xml:space="preserve">
<style type="text/css">
	.st0{fill:#323232;}
</style>
<g id="Z9cqND.tif">
	<g>
		<path class="st0" d="M217.7,190.9c1.6,5.8,0.3,10.2-5,13c-4.9,2.6-9.6,1.4-14.1-1c-0.9,1.2-1.6,2.5-2.6,3.4
			c-2,1.9-4.6,2.5-7.3,2.6c-12.3,0.5-22.4-4.1-30.8-13c-4.8-5.1-7.9-11.2-11.2-17.2c-4-7.2-7.6-14.6-9.5-22.7
			c-0.4-1.8-0.5-3.6-0.9-5.5c-0.1-0.6-0.5-1.3-0.9-1.6c-2.6-2.2-5.4-4-7.8-6.4c-11.9-11.9-23.7-23.9-35.6-35.9
			c-2-2.1-4.3-3.7-7.1-4.6c-4.9-1.4-8.7,1.7-8.4,6.8c0.5,6.9,3.1,13.1,6.3,19.1c4.5,8.5,10.6,15.9,17.3,22.7
			c3.5,3.5,6.8,7.1,10.4,10.5c7.1,6.8,12.3,15,16.2,24c4.8,10.8,8.3,22.1,12,33.3c4,12.2,8.5,24.1,14.9,35.2c2.8,5,6,9.7,10.7,13.2
			c2.2,1.6,4.5,2.7,7.3,2.5c1.1-0.1,2.3,0,3.3,0.3c0.6,0.2,1.4,1,1.5,1.7c0.1,0.5-0.6,1.5-1.2,1.7c-1.6,0.4-3.2,0.5-5,0.7
			c0.2,0.5,0.4,1,0.7,1.6c3.9,8.3,7.8,16.5,11.7,24.8c0.5,1.2,0.5,2.3-0.6,3.1c-1.3,0.8-2.2,0-2.7-1c-1.5-2.8-2.8-5.7-4.2-8.5
			c-3.3-7-6.5-14-9.8-20.9c-0.2-0.4-0.5-1-0.9-1.2c-4.9-2.8-8.5-6.9-11.6-11.5c-5.3-7.7-9.1-16.2-12.3-24.9
			c-4.4-12.2-8.5-24.5-12.7-36.8c-2.6-7.4-5.8-14.6-9.7-21.5c-3.1-5.5-7.7-9.8-11.9-14.3c-6.4-6.8-12.9-13.4-18.9-20.5
			c-6.5-7.8-11.3-16.7-13.8-26.6c-0.6-2.5-0.9-5.2-0.9-7.8c0.1-6.6,6.1-11.1,12.6-9.6c4,0.9,7.1,3.2,9.8,6.1
			c4.5,4.6,8.7,9.4,13.2,13.9c8.1,8.1,16.3,16.2,24.4,24.2c1,1,2.2,1.8,3.5,2.9c1.3-6.7,4.6-11.6,10.8-14.3c6-2.7,11.9-2.7,18-0.2
			c0.2-0.9,0.4-1.7,0.6-2.4c1.8-6.4,6.5-9.8,12.6-11.5c7.1-2.1,14.1-1.8,20.7,2.4c0.2-0.5,0.3-0.8,0.5-1.2c0.6-1.7,1.1-3.5,1.9-5.2
			c3.3-6.9,9.5-10,17.1-8.9c9.5,1.3,16.5,6.7,22.2,13.9c7.1,8.9,11.7,19.1,15.5,29.8c0.7,2.1,1.4,4.3,2.2,6.8
			c0.7-1.1,1.2-1.9,1.7-2.8c3.7-6.1,7.1-12.4,11-18.3c5-7.5,11-14.2,18.3-19.6c4.6-3.4,9.5-6.1,15.4-6.5c4.3-0.3,8.2,0.8,11.7,3.1
			c2.7,1.8,3.8,5.5,2.6,9.4c-0.5,1.8-1.4,3.5-2.4,5.1c-4.7,8-9.9,15.7-14.1,23.9c-6.2,12-9.5,25.1-11.9,38.4
			c-2.6,14.6-7.4,28.5-15.4,41.1c-4.3,6.8-8.3,13.9-13.9,19.8c-2.1,2.3-4.7,4.1-7,6.2c-0.4,0.4-0.9,1-0.8,1.4
			c0.5,5.7,1.3,11.4,3.2,16.9c0.6,1.8,1.3,3.6,1.9,5.4c0.5,1.3,0.1,2.3-1.1,2.7c-1.3,0.5-2.2-0.1-2.7-1.4
			c-2.3-6.8-4.4-13.6-5.1-20.8c0-0.5-0.1-0.9-0.2-1.2c-3.1,0.4-6.1,1.4-9.1,1.2c-6.1-0.4-12.2-1.5-18.3-2.3c-1.4-0.2-2.1-1-1.8-2.4
			c0.3-1.6,1.4-1.5,2.7-1.3c4.8,0.7,9.5,1.4,14.3,1.8c8.6,0.8,15.7-2,21.2-8.9c9.3-11.7,17.4-24.1,22.7-38.1
			c2.9-7.6,4.3-15.9,6-23.9c3.8-18.4,9.8-35.8,20.3-51.5c1.7-2.5,3.4-5,4.9-7.6c1.1-1.9,2.2-4,2.8-6.1c0.8-2.9-0.3-4.8-3.2-5.8
			c-4.5-1.6-9-1.4-13.5,0.4c-5.7,2.4-10.1,6.5-14.3,10.8c-6.8,6.9-12,15-16.9,23.3c-5.3,8.9-10.5,17.8-15.9,26.7
			c-1,1.7-2.4,3.2-3.7,4.7c-0.8,1-1.9,1.2-2.9,0.3c-1-0.9-1-1.9-0.1-2.9c4.3-4.8,7.3-10.6,10.6-16.1c0.2-0.3,0.3-0.9,0.1-1.3
			c-0.9-2.7-1.9-5.4-2.7-8.1c-3.5-10.9-8.6-21-15.5-30.1c-3.8-4.9-8.4-8.9-14.4-11c-3.3-1.1-6.6-1.5-10-0.8c-3,0.6-5.4,2.1-7,4.7
			c-2.4,4-3.5,8.5-3.8,13.1c-1.1,17.4,1.9,34.1,9.8,49.7c2.1,4.1,4.9,8,7.8,11.7c3.3,4.2,7.9,3.9,11.2-0.3c3.4-4.3,3.8-9.3,2.7-14.4
			c-0.5-2.3-1-4.6-1.8-6.9c-2.6-7.5-2.5-15-1.1-22.7c0.7-3.6,1.3-7.2,1.4-10.8c0.1-2.8-0.4-5.6-0.8-8.3c-0.2-1.3,0-2.2,1.3-2.7
			c1.2-0.5,2.2,0.1,2.6,1.5c1.5,4.7,1.3,9.5,0.6,14.3c-0.7,4.4-1.4,8.7-2,13.1c-0.6,4.6,0.5,9.1,1.7,13.6c1.3,4.7,2.8,9.4,2.6,14.4
			c-0.1,4.3-1.4,8.2-4.1,11.6c-3.3,4.1-9,6.7-15.1,2.2C218.6,191.5,218.3,191.3,217.7,190.9z M185.8,119.2c-4.2,0.1-8.3,1.3-12,3.9
			c-2.4,1.7-4,4-4.4,6.9c-0.3,2.1-0.6,4.4-0.2,6.4c0.7,4.3,1.8,8.5,2.7,12.7c2.8,13.2,7.4,25.7,15.7,36.7c3.3,4.4,6.7,8.8,11.2,12.3
			c2.1,1.7,4.4,3,7.2,3.3c6,0.7,9.7-3.7,7.9-9.4c-0.2-0.6-0.4-1.1-0.6-1.6c-2.4-6-6.2-11.4-7.3-17.9c-6.2-15.3-9.4-31.1-7.7-47.6
			c0.1-1-0.2-1.5-1-2.1C193.8,120.3,190.1,119.2,185.8,119.2z M186.4,205c1.5-0.1,3-0.2,4.4-0.4c1.8-0.3,3.1-1.4,3.7-3.1
			c0.2-0.6,0-1.6-0.4-2c-1.7-2-3.5-3.8-5.2-5.8c-9-10.5-15.7-22.2-18.8-35.8c-1.7-7.5-4.5-14.7-5.1-22.5c0-0.3-0.3-0.8-0.6-1
			c-7.2-3.3-14.3-2.5-20.1,2.9c-1.9,1.8-3.2,4.1-3.6,6.7c-0.8,4.8-0.2,9.5,1.2,14.1c2.7,8.7,7.1,16.6,11.4,24.5
			c1.7,3.2,3.9,6.3,6.3,9.1C166.6,199.9,175.3,204.9,186.4,205z"/>
		<path class="st0" d="M196.4,245.3c-0.4-10.6,1.1-20.9,4.5-31c0.4-1.2,1-2.3,1.7-3.4c0.6-1,1.7-1.1,2.5-0.5
			c0.5,0.4,0.9,1.5,0.7,2.1c-1,3.5-2.3,6.9-3.2,10.4c-2.3,9.1-2.8,18.3-2.4,27.7c0,1.1,0.1,2.2,0.1,3.3c0.1,1.3-0.7,2-1.9,2.1
			c-1.3,0.1-2-0.7-2.1-1.9C196.4,251.2,196.4,248.2,196.4,245.3z"/>
	</g>
</g>
</svg>
