<?xml version="1.0" encoding="utf-8"?>
<!-- Generator: Adobe Illustrator 27.2.0, SVG Export Plug-In . SVG Version: 6.00 Build 0)  -->
<svg version="1.1" id="Layer_1" xmlns="http://www.w3.org/2000/svg" xmlns:xlink="http://www.w3.org/1999/xlink" x="0px" y="0px"
	 viewBox="0 0 170.1 170.1" style="enable-background:new 0 0 170.1 170.1;" xml:space="preserve">
<style type="text/css">
	.st0{fill:#525252;}
</style>
<g>
	<path class="st0" d="M40.6,112.8c-0.5,0.3-0.9,0.6-1.3,0.8c-2.9,1.5-5.8,3.2-8.7,4.7c-0.9,0.5-1.8,0.8-2.8,1
		c-0.4,0.1-1-0.1-1.2-0.3c-0.4-0.4,0-0.9,0.3-1.2c0.2-0.3,0.6-0.5,0.8-0.8c1-1.4,2-2.9,2.8-4.4c1.3-2.7,2.5-5.4,3.8-8.1
		c1.3-2.5,2.5-4.9,3.9-7.2c1.9-3.2,4.7-5.5,7.9-7.2c4.8-2.7,9.5-2.7,14.2,0.2c0.6,0.3,1,0.3,1.5,0.1c2.8-1,5.7-1.5,8.7-1.5
		c1.3,0,2.7,0.2,3.9,0.7c0.3,0.1,0.5,0.1,0.9,0.3c-1.3-6.7-0.5-12.9,4.3-18c-0.8-1.3-1.6-2.4-2.2-3.7c-2.7-5.3-2.4-10.3,1.2-15.1
		c1.9-2.6,4.2-4.8,7-6.5c1.8-1.2,3.7-2.2,5.4-3.4c1.5-1,3.1-2,4.6-3.2c2.4-1.7,4.6-3.8,6.4-6.3c0.3-0.5,0.7-1.2,1.3-0.8
		c0.7,0.3,0.7,1,0.6,1.5c-0.5,2.2-0.8,4.4-1.5,6.5c-0.7,2.3-1.7,4.4-2.7,6.6c-0.4,1-0.9,1.8-1.4,3.1c0.5-0.2,0.7-0.3,0.9-0.4
		c4.7-3.3,9.9-5.5,15.3-7.4c0.6-0.2,1.3-0.5,1.7,0.1c0.4,0.4,0.2,1.2-0.6,1.7c-3.9,3.4-7,7.5-10.2,11.6c-2,2.5-4,5-6.2,7.4
		c-2.6,2.9-5.7,5.3-9.2,7c-2.7,1.3-5.5,2.1-8.5,1.9c-0.7,0-1.1,0.3-1.4,0.8c-1.7,2-2.8,4.3-3.4,6.8c-1.1,5-0.5,9.7,2.5,14.2
		c1.6,2.3,3,4.8,4.5,7.2c0.2,0.3,0.3,0.5,0.7,1c0-0.6,0.1-1,0.1-1.3c0.1-7.6,4.5-14,11.6-16.8c3.6-1.3,7.2-1.1,10.7,0.4
		c0.7,0.3,1.3,0.8,1.8,1.2c0.9-0.4,1.7-0.9,2.6-1.2c6.4-2,13.4,0.8,16.7,6.6c1.6,2.9,2.5,6.1,3,9.3c0.6,3.6,1.1,7,1.6,10.6
		c0.5,2.8,1.4,5.3,2.9,7.7c0.3,0.4,0.7,1,0.1,1.3c-0.3,0.2-1,0.3-1.3,0.1c-1.5-0.8-3.1-1.6-4.4-2.6c-2.4-1.7-4.4-3.9-6.4-6.3
		c-0.4-0.4-0.8-0.9-1.3-1.4c-0.1,0.5-0.1,0.6-0.1,0.8c0.2,4.2-0.5,8.4-1.3,12.5c-0.1,0.6-0.1,1.1-0.3,1.6c-0.1,0.3-0.5,0.8-0.8,0.8
		c-0.5,0.1-0.8-0.4-0.9-0.9c-0.2-0.9-0.3-1.8-0.5-2.7c-0.9-4.5-2.7-8.6-4.9-12.5c-1.3-2.4-2.8-4.6-4-7c-1.3-2.4-2.6-5-3.1-7.8
		c-0.5-2.8-0.6-5.5,1-8.2c-0.6-0.3-1.1-0.7-1.6-0.9c-3.2-1.1-6.4-1.3-9.5,0.2c-4.6,2.2-8.1,5.5-9.4,10.5c-0.9,3.2-0.8,6.4,0.1,9.5
		c0.8,2.8,1.3,5.7,1.7,8.6c0.5,3.6-0.5,6.9-1.8,10.2c-0.4,0.9-0.8,1.2-1.3,1s-0.6-0.7-0.2-1.5c2.4-5.5,2.4-11,0.1-16.5
		c-1.6-3.9-3.7-7.5-5.9-11c-1-1.4-1.8-2.9-2.8-4.3c-0.2-0.4-0.6-0.7-0.9-1c-1.3-1-2.8-1.4-4.4-1.5c-3.2-0.2-6.2,0.5-9.1,1.5
		c0,0.4,0,0.6,0.1,0.9c1.3,5.6-0.2,10.4-4,14.4c-1.3,1.3-2.9,2.4-4.4,3.6c-1.6,1.3-3.5,2.3-5.1,3.7c-3.4,2.8-6.1,6.2-7.9,10.2
		c-0.1,0.3-0.3,0.6-0.6,0.8c-0.4,0.3-1,0.1-1.1-0.5c-0.1-0.6-0.2-1.2-0.1-1.7c0.3-3.2,0.6-6.4,1.5-9.4
		C40.6,113.3,40.6,113.2,40.6,112.8z M133,118.1c-0.7-2-1.3-3.7-1.6-5.4c-0.7-3.5-1.2-6.9-1.6-10.4c-0.5-3-1.1-5.9-2.2-8.7
		c-2.1-5-7.3-8.8-13.8-7.9c-1.5,0.2-3.1,0.6-4.2,1.8c0.2,0.3,0.3,0.6,0.4,0.8c2,3.4,3.9,6.7,6,10.1c3.1,5,6.5,9.8,10.6,14.1
		c1.5,1.6,3.4,3.1,5.1,4.6C131.9,117.5,132.4,117.7,133,118.1z M102.2,36.1c-0.4,0.3-0.6,0.3-0.7,0.4c-2.8,3.1-6.1,5.4-9.5,7.6
		c-2,1.3-4.1,2.5-6.2,3.9c-2.7,1.8-4.9,4-6.7,6.8c-3.4,5.2-1.7,11.6,1.7,15.3c0.1,0.1,0.2,0.1,0.5,0.3
		C90.9,60.6,98.7,49.9,102.2,36.1z M60,91.7c-0.4-0.3-0.6-0.5-0.9-0.7c-3.9-2.2-7.9-2.3-11.8-0.1c-3.5,1.9-6.4,4.5-8.5,8
		c-1.4,2.5-2.8,5.2-4,7.8c-1.5,3.2-2.8,6.4-4.7,9.4c-0.1,0.1-0.1,0.2-0.1,0.5c0.5-0.2,0.9-0.3,1.2-0.5c5.5-2.7,10.7-5.9,15.4-9.7
		c0.9-0.7,1.7-1.4,2.5-2.3c2.3-2.4,4.5-4.9,6.7-7.4C57.3,95.3,58.6,93.6,60,91.7z M82.9,71c1.9-0.1,3.6-0.6,5.1-1.2
		c3.4-1.3,6.1-3.5,8.8-5.9c2.8-2.6,5.1-5.6,7.4-8.6c2.5-3.4,5-6.7,8.1-9.7c0.1-0.1,0.1-0.2,0.1-0.4c-0.2,0-0.3,0-0.5,0
		c-5.3,2-10.2,4.6-14.6,8.1c-0.6,0.5-1.2,1-1.5,1.5c-2.5,3.9-5.3,7.5-8.4,11C86,67.5,84.5,69.1,82.9,71z M40.7,120.7
		c0.4-0.4,0.6-0.6,0.7-0.8c2.9-4.3,6.7-7.7,11.2-10.5c1.5-1,3-2.1,4.2-3.4c2.4-2.3,3.9-5.1,4.1-8.5c0.1-1.3,0.3-2.8-0.3-4.2
		c-0.2,0.2-0.4,0.3-0.5,0.4c-1,1.2-1.8,2.4-2.9,3.6c-4.1,4.8-8.3,9.6-13.7,13.2c-0.3,0.2-0.6,0.5-0.8,0.8
		C41.6,114.3,41,117.3,40.7,120.7z M108.1,88.9c-0.6,1.4-0.7,2.7-0.6,3.9c0.2,2.5,1,4.9,2.1,7.1c1.3,2.4,2.5,4.7,3.9,6.9
		c2.4,4,4.5,8.1,5.8,12.6c0.1,0.2,0.2,0.4,0.3,0.6c0.1-0.1,0.2-0.1,0.2-0.1c0.7-3.4,0.9-6.8,0.6-10.2c-0.1-1.3-0.5-2.5-1.3-3.6
		c-1.1-1.3-2-2.8-2.9-4.2c-2.4-3.9-4.8-8-7.2-11.9C108.7,89.7,108.5,89.4,108.1,88.9z"/>
</g>
</svg>
