<?xml version="1.0" encoding="UTF-8"?>
<svg id="Layer_1" data-name="Layer 1" xmlns="http://www.w3.org/2000/svg" viewBox="0 0 170.1 170.1">
  <defs>
    <style>
      .cls-1 {
        fill: #525252;
        stroke: #525252;
        stroke-miterlimit: 10;
        stroke-width: .5px;
      }
    </style>
  </defs>
  <g id="OVNzG8.tif">
    <g>
      <path class="cls-1" d="M78.51,137.95c-.84-.12-1.68-.21-2.5-.38-2.98-.62-5.57-1.96-7.75-4.11-2.3-2.28-3.41-5.08-3.74-8.26-.49-4.73,.72-9.09,2.8-13.28,1.24-2.49,2.45-5,3.59-7.54,1.07-2.38,1.68-4.89,1.76-7.52,.07-2.67-.28-5.26-1.55-7.66-.14-.27-.17-.52,.07-.74,.22-.19,.44-.16,.7-.02,.46,.25,.96,.44,1.44,.67,3.12,1.51,5.74,3.66,7.98,6.28,4.44,5.18,7.83,10.99,9.94,17.5,1.47,4.52,1.76,9.15,.61,13.8-.89,3.59-2.74,6.59-5.62,8.96-1.67,1.37-3.57,2.07-5.7,2.2-.19,.01-.38,.06-.57,.09h-1.45Zm1.87-18.01c-.15-.03-.21-.04-.27-.04-1.81,.01-3.6-.22-5.34-.71-1.7-.48-3.38-1.03-5.06-1.56-.28-.09-.44-.29-.34-.59,.11-.31,.34-.46,.68-.37,.15,.04,.29,.1,.43,.15,2.23,.79,4.48,1.49,6.83,1.8,1.01,.13,2.04,.18,3.15,.28v-5.07c-2.29,.1-4.55-.2-6.8-.63-.46-.09-.92-.2-1.34-.38-.15-.06-.26-.4-.23-.59,.02-.13,.28-.27,.46-.33,.14-.04,.33,.03,.49,.05,1.64,.26,3.28,.56,4.92,.76,.81,.1,1.64,.02,2.58,.02-.25-1.56-.48-3.06-.72-4.57-.18,.01-.25,.01-.32,.02-1.5,.12-2.99,.03-4.47-.26-.5-.1-.74-.36-.65-.7,.13-.47,.5-.4,.85-.35,.46,.07,.92,.2,1.39,.21,.96,.03,1.92,.01,2.97,.01-1.48-5.55-3.13-10.95-6.42-15.69-.03,.14,0,.27,.02,.4,.57,2.27,.74,4.56,.42,6.89-.32,2.39-1.08,4.66-2.08,6.84-1.27,2.77-2.63,5.49-3.87,8.26-1.33,2.95-2.23,6.01-2.19,9.3,.03,2.22,.28,4.39,1.24,6.41,1.46,3.06,3.94,5.01,6.99,6.29,.84,.35,1.73,.57,2.68,.88,.71-1.95,1.37-3.79,2.06-5.69-.32-.05-.51-.09-.7-.11-1.78-.21-3.5-.69-5.17-1.34-.41-.16-.79-.44-1.15-.71-.23-.17-.26-.46-.03-.63,.16-.12,.49-.22,.63-.14,1.34,.79,2.82,1.16,4.31,1.5,.76,.17,1.54,.24,2.34,.36,.31-1.48,.6-2.86,.89-4.27-.18-.03-.26-.05-.35-.06-1.64-.28-3.29-.5-4.91-.85-1.48-.32-2.89-.88-4.21-1.64-.3-.17-.42-.4-.24-.71,.17-.3,.44-.34,.74-.19,.05,.03,.1,.06,.16,.09,2.75,1.37,5.7,1.96,8.73,2.25,.09,0,.27-.14,.28-.23,.21-1.44,.4-2.88,.6-4.36Zm.47,4.73c1-.08,1.96-.08,2.89-.24,1.02-.18,2.02-.52,3.03-.75,.19-.04,.49,.05,.61,.2,.1,.12,.08,.44-.02,.6-.08,.14-.32,.21-.5,.27-1.87,.68-3.81,.97-5.79,.91-.31,0-.46,.05-.5,.4-.07,.58-.22,1.16-.34,1.74-.15,.7-.31,1.4-.47,2.16,1.98,0,3.86-.11,5.39-1.49,.27-.24,.55-.28,.8,0,.26,.28,.2,.59-.09,.79-.59,.41-1.18,.85-1.84,1.13-1.3,.56-2.71,.6-4.1,.62-.35,0-.48,.12-.59,.44-.5,1.52-1.04,3.03-1.57,4.54-.09,.25-.22,.49-.39,.87,.87,0,1.64,.02,2.41,0,2.33-.06,4.4-.79,6.19-2.34,1.79-1.55,3.14-3.4,4.01-5.59,1.97-4.94,1.98-9.99,.45-15.01-1.61-5.28-4.12-10.15-7.34-14.63-2.03-2.82-4.38-5.34-7.22-7.37-.53-.38-1.09-.73-1.64-1.09,3.18,4.95,4.94,10.43,6.41,16.12,.67-.25,1.31-.47,1.93-.74,.34-.14,.65-.22,.86,.16,.23,.41-.07,.64-.38,.78-.59,.26-1.2,.49-1.82,.68-.31,.09-.42,.2-.34,.53,.14,.65,.25,1.31,.35,1.97,.12,.76,.22,1.51,.34,2.31,1.27-.17,2.44-.53,3.56-1.09,.14-.07,.28-.2,.4-.19,.23,.02,.53,.07,.65,.23,.09,.11,0,.47-.14,.61-.2,.21-.48,.38-.76,.47-1.11,.36-2.22,.69-3.34,.99-.28,.07-.36,.16-.36,.44-.01,1.39-.05,2.79-.08,4.18,0,.16,0,.32,0,.51,1.76-.16,3.45-.4,5.05-1.05,.33-.13,.64-.17,.82,.19,.19,.37-.05,.63-.36,.76-.5,.21-1.01,.42-1.54,.53-1.34,.28-2.7,.5-4.07,.75-.17,1.5-.35,3.05-.55,4.74Z"/>
      <path class="cls-1" d="M106.14,77.89c0,5.31-.74,9.95-1.79,14.55-.8,3.53-1.67,7.04-2.95,10.43-1,2.64-2.27,5.15-3.77,7.54-.25,.4-.54,.77-.86,1.11-.43,.47-.91,.44-1.22-.13-.37-.66-.65-1.37-.96-2.05-1.38-2.97-2.76-5.93-4.58-8.66-2.47-3.69-5.56-6.79-9.05-9.5-3.34-2.59-6.63-5.24-10.03-7.75-4.62-3.41-7.39-7.94-8.45-13.53-1.15-6.03-.02-11.56,3.83-16.44,1.48-1.87,3.34-3.26,5.49-4.31,1.82-.88,3.65-1.68,5.64-2.09,4.61-.95,9.04-.35,13.36,1.47,3.82,1.6,6.63,4.31,8.76,7.76,2.86,4.63,4.95,9.6,5.98,14.97,.45,2.37,.63,4.78,.6,6.62Zm-9.21,31.58c.06-.08,.12-.17,.18-.25,1.4-2.21,2.54-4.55,3.39-7.02,2.32-6.72,3.92-13.61,4.47-20.71,.3-3.92,.13-7.82-.84-11.65-1.23-4.85-3.06-9.44-5.89-13.6-1.38-2.03-2.92-3.94-5.05-5.23-4.83-2.94-10.03-4.03-15.63-2.91-2.49,.5-4.67,1.71-6.88,2.87-.04,.02-.06,.06-.04,.05,1.82,1.69,3.64,3.37,5.49,5.08,.16-.09,.4-.22,.64-.35,2-1.09,4.04-2.07,6.27-2.6,.44-.11,.71,.02,.77,.37,.07,.41-.2,.56-.53,.65-.51,.14-1.02,.27-1.52,.44-1.75,.61-3.39,1.45-5.02,2.4,.98,1.26,1.94,2.48,2.9,3.71,.19-.11,.35-.2,.51-.3,3.71-2.16,7.7-2.75,11.91-2.16,.43,.06,.67,.33,.6,.65-.09,.41-.39,.46-.74,.4-2.47-.41-4.92-.22-7.34,.38-1.52,.38-2.93,1.02-4.25,1.86,.03,.07,.03,.12,.06,.15,1.09,1.53,2.19,3.05,3.29,4.57,.07,.09,.29,.16,.4,.12,2.48-.93,5.07-1.42,7.68-1.75,1.1-.14,2.23-.13,3.35-.15,.33,0,.6,.19,.57,.57-.03,.41-.34,.5-.69,.49-.3-.01-.61-.06-.91-.05-2.47,.12-4.9,.54-7.29,1.15-.78,.2-1.55,.47-2.35,.71,1.02,1.63,1.99,3.18,2.97,4.75,.17-.07,.32-.13,.47-.19,2.49-1.03,5.06-1.64,7.77-1.57,.53,.01,1.06,.08,1.57,.18,.29,.06,.46,.31,.37,.63-.08,.31-.31,.43-.63,.38-2.04-.32-4.05-.05-6.02,.48-1.01,.27-2,.65-3.02,.98,.9,1.75,1.75,3.41,2.61,5.09,.23-.08,.44-.15,.65-.23,1.99-.72,4.02-1.11,6.14-.96,.51,.04,.83,.28,.78,.64-.07,.48-.44,.46-.8,.43-1.25-.09-2.49-.03-3.7,.28-.9,.23-1.78,.52-2.67,.79,.68,1.81,1.31,3.52,1.95,5.23,.59-.12,1.17-.26,1.75-.34,.85-.11,1.71-.25,2.57,0,.31,.1,.53,.26,.44,.62-.09,.35-.33,.46-.69,.41-.46-.06-.94-.13-1.4-.08-.78,.08-1.56,.25-2.37,.39,1.25,4.01,2.44,7.91,3.03,11.95,.59,4.04,.66,8.12,.73,12.21Zm-18.22-48.17c-.98-1.26-1.94-2.49-2.9-3.73-.43,.27-.82,.51-1.2,.76-1.47,.98-2.89,2.01-3.84,3.55-.25,.4-.58,.52-.85,.31-.35-.27-.23-.57-.04-.88,.68-1.12,1.6-2.01,2.65-2.78,.83-.61,1.67-1.19,2.54-1.81-1.65-1.87-3.51-3.5-5.5-5.03-.28,.24-.54,.44-.78,.67-1.93,1.83-3.37,3.99-4.38,6.46-1.43,3.51-1.61,7.12-.91,10.8,.96,5,3.23,9.22,7.34,12.36,3.8,2.91,7.58,5.84,11.33,8.82,3.41,2.71,6.44,5.8,8.83,9.47,1.76,2.7,3.14,5.59,4.49,8.51,.07,.14,.14,.28,.22,.43,.41-8.08-.82-15.87-3.6-23.5-.72,.4-1.43,.8-2.14,1.19-.24,.13-.48,.31-.73,.34-.19,.02-.5-.13-.56-.28-.07-.16,.07-.42,.16-.63,.03-.08,.17-.11,.27-.16,.9-.5,1.79-1,2.76-1.54-.62-1.67-1.25-3.36-1.91-5.13-1.12,.59-2.17,1.13-3.2,1.69-.96,.52-1.88,1.1-2.62,1.93-.2,.23-.46,.31-.73,.11-.28-.21-.3-.51-.09-.76,.27-.32,.55-.67,.9-.88,1.57-.94,3.16-1.85,4.74-2.76,.17-.1,.34-.17,.58-.29-.87-1.7-1.71-3.35-2.56-5-.19,.08-.3,.13-.41,.18-2.42,1.25-4.53,2.91-6.41,4.86-.14,.14-.24,.31-.38,.45-.2,.22-.45,.33-.72,.14-.29-.2-.3-.48-.12-.76,.1-.17,.23-.32,.36-.46,1.45-1.54,3.04-2.91,4.84-4.03,.73-.46,1.48-.88,2.22-1.32,0-.04,0-.07-.02-.09-.92-1.48-1.85-2.95-2.76-4.43-.15-.25-.31-.18-.49-.08-.88,.52-1.8,1-2.64,1.59-2.13,1.5-3.72,3.5-5.09,5.69-.19,.31-.42,.54-.81,.34-.3-.15-.34-.49-.11-.86,2.03-3.26,4.57-5.99,8.1-7.67,.08-.04,.15-.09,.28-.16-1.15-1.59-2.28-3.15-3.43-4.74-.48,.34-.91,.63-1.32,.93-2.56,1.89-4.83,4.04-6.26,6.96-.05,.09-.1,.22-.19,.25-.2,.07-.47,.19-.6,.1-.15-.1-.24-.38-.25-.59,0-.18,.13-.36,.22-.54,1.3-2.44,3.1-4.43,5.26-6.12,.8-.62,1.61-1.23,2.46-1.87Z"/>
      <path class="cls-1" d="M74.38,40.93c-.13,.84-.21,1.68-.39,2.51-.69,3.1-4.53,5.22-7.83,3.76-2.36-1.04-3.73-2.9-4.55-5.25-.72-2.06-.82-4.14,.11-6.16,.93-2.03,2.53-3.28,4.81-3.32,1.95-.03,3.72,.63,5.16,2.01,1.7,1.63,2.63,3.94,2.7,6.45Zm-1.05-.01s-.04-.01-.06-.02c-.04-.42-.06-.85-.12-1.26-.44-2.83-1.84-4.89-4.66-5.81-2.93-.97-5.48,.49-6.18,3.5-.4,1.73-.09,3.36,.57,4.96,.72,1.77,1.88,3.11,3.65,3.9,2.32,1.03,4.43,.07,5.73-1.48,.27-.33,.49-.75,.59-1.16,.21-.86,.33-1.75,.48-2.62Z"/>
      <path class="cls-1" d="M76.77,38.13c.08-1.43,.36-2.85,1.3-4.09,1.68-2.2,4.84-1.35,5.85,.2,.56,.86,.82,1.82,.92,2.82,.06,.63,.05,1.27,.04,1.9-.03,1.47-.74,2.63-1.72,3.65-1.35,1.4-3.12,1.45-4.57,.14-1.34-1.21-1.79-2.79-1.82-4.61Zm1.08-.26c0,1.75,.39,2.93,1.16,3.8,1.1,1.23,2.4,1.26,3.52,.06,.12-.13,.24-.27,.35-.42,1.37-1.81,1.15-3.78,.54-5.75-.35-1.13-1.23-1.68-2.39-1.78-1.2-.11-1.98,.51-2.51,1.51-.49,.91-.65,1.91-.66,2.58Z"/>
      <path class="cls-1" d="M91.68,36.43c1.51,0,2.71,1.08,2.9,2.65,.17,1.35-.04,2.66-.49,3.93-.39,1.12-1.18,1.93-2.23,2.47-1.33,.69-2.73,.38-3.56-.88-1.66-2.51-1.2-5.84,1.57-7.63,.51-.33,1.16-.45,1.75-.66,.02,.04,.03,.08,.05,.13Zm1.99,3.54s-.04-.01-.06-.02c-.02-.23-.04-.45-.07-.68-.25-1.58-1.58-2.28-2.95-1.48-2.35,1.36-2.77,4.2-1.34,6.3,.47,.69,1.26,.86,2.02,.5,.92-.43,1.6-1.12,1.89-2.1,.24-.82,.35-1.68,.51-2.53Z"/>
      <path class="cls-1" d="M103.33,46.19c.1,3.2-2.48,4.86-4.61,5.01-1.09,.08-1.92-.55-2.46-1.45-1.33-2.22-.55-6.62,3.33-7.37,1.7-.33,3.33,.94,3.63,2.77,.06,.34,.08,.69,.11,1.04Zm-6.63,1.21c.08,.44,.11,.9,.24,1.33,.34,1.11,1.31,1.61,2.42,1.3,2.2-.63,3.29-2.5,2.79-4.78-.32-1.49-1.55-2.17-2.99-1.65-1.49,.54-2.43,2.01-2.46,3.81Z"/>
      <path class="cls-1" d="M101.95,54.91c.02-2.3,2-4.26,4.17-4.1,1.57,.11,3.1,1.57,2.99,2.99-.12,1.51-.85,2.74-2.2,3.5-1.24,.7-2.49,.72-3.73-.06-.87-.55-1.24-1.33-1.23-2.33Zm4.01-3.05c-1.34,0-2.46,.97-2.84,2.32-.19,.68-.25,1.38,.31,1.91,.6,.57,1.33,.81,2.17,.6,1.3-.33,1.98-1.24,2.38-2.44,.16-.48,.1-.93-.2-1.33-.5-.66-1.16-1.04-1.81-1.05Z"/>
    </g>
  </g>
</svg>