<?xml version="1.0" encoding="UTF-8"?>
<svg id="Layer_1" data-name="Layer 1" xmlns="http://www.w3.org/2000/svg" viewBox="0 0 170.1 170.1">
  <defs>
    <style>
      .cls-1 {
        fill: #525252;
        stroke: #525252;
        stroke-miterlimit: 10;
        stroke-width: .53px;
      }
    </style>
  </defs>
  <g id="y3ggmd.tif">
    <g>
      <path class="cls-1" d="M151.21,90.58c-.15,1.01-.33,2.02-.44,3.03-.55,5.2-3.25,9.07-7.45,11.98-2.15,1.49-4.33,2.96-6.78,3.9-.96,.37-2.01,.49-3.02,.72-1.66,.37-3.35,.28-5.03,.28-6.77,0-13.53,0-20.3,0-.18,0-.37,0-.63,0v13.81c.08,0,.21,0,.34,0,.87-.02,1.75-.05,2.62-.03,.2,0,.49,.18,.56,.35,.07,.17-.05,.45-.13,.66-.05,.12-.19,.2-.28,.3-2.45,2.51-4.89,5.02-7.34,7.53-.52,.54-.74,.52-1.27-.02-2.42-2.47-4.84-4.94-7.27-7.41-.1-.1-.24-.18-.28-.3-.09-.25-.24-.55-.17-.75,.08-.19,.4-.37,.64-.4,.64-.07,1.28-.05,1.92-.06,.27,0,.55,0,.87,0v-13.64h-7.33v20.73c.79,0,1.54,0,2.28,0,.35,0,.71-.05,1.05,.03,.2,.04,.43,.25,.51,.44,.06,.14-.05,.43-.18,.55-2.67,2.56-5.37,5.1-8.04,7.67-.52,.5-.9,.51-1.42,0-2.57-2.56-5.18-5.08-7.77-7.61-.25-.24-.45-.49-.27-.84,.18-.35,.49-.32,.84-.28,1.02,.1,2.03,.16,3.13,.25-.05-7.02-.11-13.96-.16-20.93h-7.36v13.03c.58-.04,1.2-.09,1.81-.13,.41-.03,.83-.1,1.23-.06,.23,.03,.52,.19,.66,.38,.18,.27,.02,.54-.21,.77-1.28,1.29-2.56,2.59-3.84,3.89-1.28,1.3-2.56,2.59-3.84,3.88-.48,.48-.69,.45-1.17-.04-2.44-2.47-4.9-4.93-7.35-7.39-.13-.13-.3-.24-.38-.4-.12-.24-.27-.55-.2-.77,.05-.17,.42-.33,.65-.33,.92,0,1.83,.07,2.75,.11,.15,0,.3,0,.52,0-.06-4.32-.12-8.62-.18-12.99-.23,0-.43,0-.62,0-7.39,0-14.79-.05-22.18,.02-3.02,.03-5.83-.7-8.58-1.82-2.74-1.11-4.87-2.99-6.79-5.19-2.81-3.22-4.8-6.84-5.7-11.04-.96-4.49-.44-8.84,1.5-12.98,2.96-6.32,7.86-10.59,14.31-13.12,1.68-.66,3.46-.91,5.27-.75,.1,0,.21,0,.28,0-.75-8.29,1.92-15.03,9.28-19.24,7.32-4.19,14.5-3.27,21.24,1.73,.29-1.04,.53-2.01,.84-2.96,1.06-3.21,2.72-6.05,5.39-8.2,2.46-1.98,5.3-2.93,8.42-3.11,5.05-.29,9.48,1.43,13.58,4.22,3.43,2.33,5.53,5.53,6.32,9.57,.19,.95,.17,1.94,.25,2.92,.01,.16,0,.33,0,.54,.11-.05,.18-.07,.24-.11,5.05-3.04,10.29-3.19,15.58-.78,4.64,2.12,8.06,5.52,10.11,10.24,.73,1.69,.96,3.47,1.03,5.28,.02,.46,.18,.6,.59,.72,5.88,1.66,10.54,4.97,13.82,10.17,1.38,2.19,2.14,4.63,2.69,7.13,.33,1.52,.52,3.07,.78,4.6,.02,.13,.05,.26,.08,.4v1.84Zm-55.01,34.7s-.03,.09-.04,.14c2.17,2.21,4.34,4.42,6.54,6.66,2.15-2.21,4.26-4.37,6.36-6.53-.59-.08-1.13-.08-1.67-.03-.78,.07-1.09-.19-1.08-.96,.03-4.79,.06-9.58,.09-14.37,0-.11-.03-.25,.02-.31,.13-.17,.28-.39,.46-.44,.36-.09,.75-.1,1.13-.1,7.47,0,14.94,0,22.41,0,.63,0,1.26-.02,1.88-.1,1.82-.23,3.65-.46,5.26-1.45,1.95-1.2,3.96-2.34,5.8-3.68,3.13-2.28,5.25-5.25,6-9.17,.66-3.44,.91-6.83,.02-10.27-.52-2.03-.96-4.09-1.93-5.96-3.03-5.84-7.83-9.46-14.14-11.17-.11-.03-.25-.07-.35-.03-.79,.24-1.01,.07-.94-.73,.19-2.34-.19-4.59-1.24-6.68-2.14-4.23-5.43-7.3-9.82-9.08-4.93-2.01-9.7-1.74-14.21,1.27-.24,.16-.5,.29-.77,.39-.48,.17-.78,0-.86-.5-.05-.34-.06-.7-.03-1.05,.23-3.54-.84-6.66-3.07-9.4-1.27-1.55-2.86-2.69-4.57-3.71-3.78-2.25-7.8-3.39-12.22-2.87-2.79,.33-5.33,1.29-7.39,3.24-2.88,2.72-4.35,6.19-5.14,9.99-.23,1.1-.79,1.36-1.75,.75-1.14-.72-2.27-1.45-3.46-2.08-3.5-1.85-7.19-2.61-11.13-1.71-2.56,.58-5.1,1.39-7.13,3.02-5.69,4.55-8.27,10.42-6.83,17.77,.12,.62-.19,.99-.8,.85-1.92-.44-3.78-.18-5.59,.48-5.88,2.15-10.32,6-13.32,11.48-2.3,4.21-2.93,8.7-1.92,13.41,.96,4.44,3.18,8.16,6.29,11.42,3.6,3.78,8.07,5.55,13.21,5.59,7.79,.06,15.58,.02,23.37,.02,.77,0,.84,.06,.94,.79,.03,.23,.06,.46,.06,.68,.03,1.88,.05,3.76,.08,5.65,.03,2.45,.07,4.9,.11,7.34,0,.54-.21,.79-.74,.85-.26,.03-.52,.02-.78,.01-.5-.02-.99-.05-1.47-.08,2.19,2.17,4.36,4.32,6.57,6.5,2.05-2.08,4.19-4.24,6.41-6.49-.44,.03-.75,.05-1.05,.07-.31,.02-.61,.05-.92,.06-.77,.01-1.06-.26-1.06-1.04,.03-4.42,.06-8.85,.1-13.27,0-.74,.37-1.08,1.11-1.08,2.33,0,4.65,0,6.98,0,.22,0,.46-.09,.66-.21,.45-.26,.92-.04,.97,.48,.01,.14,0,.28,.01,.41,.05,7.01,.1,14.02,.16,21.03,0,.18,0,.37,0,.55,.06,.86-.05,.98-.92,.98-.65,0-1.29,0-2.04,0,2.22,2.17,4.36,4.27,6.53,6.39,2.27-2.17,4.49-4.29,6.8-6.5-.82,0-1.49,0-2.16,0-.65,0-.82-.18-.78-.82,.01-.18,0-.37,0-.55-.03-6.92-.05-13.83-.08-20.75,0-.15-.01-.31,0-.46,.04-.38,.26-.58,.64-.58,2.62,.01,5.23,.03,7.85,.04,.18,0,.37,0,.55-.02,.58-.06,.79,.11,.78,.71,0,4.87-.01,9.73-.03,14.6,0,.62-.22,.81-.85,.77-.63-.04-1.27-.07-1.9-.11Z"/>
      <path class="cls-1" d="M80.68,80.63c.06-2.68,.58-5.21,2.12-7.45,2.23-3.25,5.4-4.57,9.26-4.3,4.98,.35,8.13,3.95,9.07,8.22,.71,3.23,.61,6.44-.83,9.47-1.78,3.73-4.78,5.66-8.95,5.77-5.51,.15-9.46-3.61-10.36-8.85-.16-.95-.21-1.91-.3-2.87Zm17.81-.04c-.03-1.47-.2-2.96-.8-4.36-1.13-2.61-3.05-4.23-5.94-4.45-2.84-.22-5.17,.83-6.57,3.33-2,3.58-2,7.31-.06,10.91,1.33,2.46,3.59,3.56,6.38,3.43,2.63-.11,4.56-1.4,5.82-3.7,.88-1.6,1.12-3.35,1.16-5.17Z"/>
      <path class="cls-1" d="M59.1,80.63c.06-2.88,.67-5.57,2.44-7.9,2.25-2.95,5.31-4.1,8.95-3.84,2.55,.18,4.72,1.2,6.46,3.08,.65,.71,.73,1.14,.33,1.75-.43,.65-1.23,.92-1.98,.62-.28-.11-.56-.28-.75-.5-2.43-2.88-8.45-3.12-11.05,1.4-1.1,1.92-1.38,3.99-1.28,6.15,.1,2.15,.68,4.13,2.12,5.79,2.58,2.96,7.3,3.12,10.09,.36,.83-.82,1.5-.97,2.33-.51,.82,.46,.99,1.33,.37,2.04-1.82,2.05-4.12,3.12-6.85,3.28-2.73,.16-5.23-.49-7.33-2.31-1.99-1.73-3.1-3.96-3.54-6.52-.16-.95-.21-1.91-.31-2.87Z"/>
      <path class="cls-1" d="M106.76,95.64c.27,.01,.44,.03,.6,.03,1.15,0,2.3,0,3.44,0,.15,0,.31,0,.46,.03,.37,.07,.55,.32,.53,.69-.02,.37-.23,.6-.62,.6-1.81,0-3.61,0-5.42,0-.4,0-.57-.23-.54-.63,.06-.96,.34-1.86,.95-2.59,.9-1.08,1.88-2.08,2.82-3.14,.39-.45,.76-.92,1.11-1.4,.39-.54,.45-1.16,.34-1.8-.14-.83-.73-1.31-1.69-1.4-.81-.07-1.49,.35-1.76,1.1-.08,.21-.12,.44-.21,.65-.18,.44-.53,.61-.96,.48-.42-.13-.49-.45-.44-.84,.23-1.74,1.6-2.9,3.33-2.82,1.96,.09,3.18,1.29,3.27,3.14,.06,1.2-.41,2.18-1.18,3.04-.71,.78-1.47,1.52-2.18,2.29-.48,.52-.94,1.05-1.37,1.6-.2,.25-.3,.58-.48,.96Z"/>
    </g>
  </g>
</svg>