<?xml version="1.0" encoding="utf-8"?>
<!-- Generator: Adobe Illustrator 27.2.0, SVG Export Plug-In . SVG Version: 6.00 Build 0)  -->
<svg version="1.1" id="Layer_1" xmlns="http://www.w3.org/2000/svg" xmlns:xlink="http://www.w3.org/1999/xlink" x="0px" y="0px"
	 viewBox="0 0 170.1 170.1" style="enable-background:new 0 0 170.1 170.1;" xml:space="preserve">
<style type="text/css">
	.st0{fill:#525252;stroke:#525252;stroke-width:0.5;}
</style>
<g>
	<path class="st0" d="M29.7,83.2c0.1-6,0.8-11.9,3-17.5c5.3-13.3,14.1-23.4,26.9-30c3.1-1.6,6.2-3,9.4-4.1c3.8-1.4,7.8-2.1,11.8-2.3
		c2.1-0.1,4.2-0.2,6.3-0.1c4.6,0.3,9,1.1,13.4,2.4c4.9,1.4,9.6,3.4,14,6c6.5,3.8,11.6,8.9,15.7,15.1c4.5,6.8,7.6,14.2,9.4,22.1
		c1,4.2,1.1,8.4,0.8,12.7c-0.5,6.9-2.6,13.3-5.6,19.4c-1.6,3.3-3.5,6.5-5.3,9.7c-3.5,6-8.3,10.6-14.2,14.3c-3.9,2.4-8,4.5-12.3,6
		c-2.7,1-5.6,1.5-8.4,1.8c-2.2,0.2-4.5,0.4-6.7,0.4c-9.5,0.1-18.6-1.4-27.3-5.5c-5-2.4-9.3-5.7-13.3-9.5
		c-5.9-5.7-10.6-12.1-13.9-19.6c-1.6-3.8-2.6-7.7-3.1-11.7C30.1,89.6,30,86.4,29.7,83.2z M75.3,95c0.5-0.5,0.9-1,1.3-1.4
		c0.3-0.3,0.4-0.7,0.4-1.1c-0.1-2.8-0.2-5.7-0.3-8.5c-0.1-2.1-0.1-4.2-0.2-6.3c-0.1-3.5,0.1-7.1,0.6-10.6c0.3-2.2,1.1-4.3,2.5-6.1
		c0.5-0.7,1-1.4,1.5-2.1c1.3-1.7,2.1-3.6,2.4-5.7c0.1-0.7,0.3-1.4,0.1-2.2c-0.5,0-1.1,0-1.6,0c-0.7,0-0.8-0.1-0.8-0.9
		c0-0.5,0-1.1,0-1.6c0-0.8,0.1-0.9,0.9-0.9c2.4,0,4.7,0,7.1,0.1c1.5,0,3,0,4.5,0.1c0.7,0,0.8,0.1,0.8,0.8c0,0.6,0,1.2,0,1.7
		c0,0.7-0.1,0.8-0.9,0.8c-0.5,0-1,0-1.6,0c0,0.3,0,0.4,0,0.6c0.2,2.4,0.9,4.5,2.3,6.4c0.8,1.2,1.7,2.4,2.5,3.6
		c1.3,1.9,2,4.1,2.2,6.4c0,0.4,0.1,0.8,0.2,1.4c7.8-8.3,15.5-16.4,23.3-24.7c-0.3-0.2-0.5-0.3-0.7-0.5c-1.2-1-2.4-2.1-3.7-3.1
		c-4.4-3.3-9.2-5.7-14.3-7.4c-5.2-1.8-10.6-3-16.1-3.5c-2.7-0.2-5.3-0.1-8,0.1c-2,0.2-4,0.4-5.9,0.9c-8.5,2.1-16.1,6-23,11.3
		c-6,4.6-10.5,10.5-14.1,17.1c-3.1,5.7-5.1,11.8-5.5,18.3c-0.3,4.4-0.3,8.9,0.2,13.3c0.6,5.4,2.1,10.5,4.5,15.3
		c3.1,6.3,7.4,11.6,12.3,16.5c0.1,0.1,0.2,0.1,0.3,0.2c1.2-1.1,13.4-14.1,13.7-14.6c-0.1-0.1-0.1-0.2-0.2-0.3
		c-2.5-3.2-2.6-8.9-0.6-12.4c2.4-4.3,8.5-6,12.9-2.1C74.6,94.3,74.9,94.6,75.3,95z M99.2,90.7c0.1,0,0.1,0,0.2,0
		c0.1-0.2,0.2-0.5,0.3-0.7c0.4-1.1,0.9-2.2,1.3-3.3c0.8-1.8,1.9-3.5,3.4-4.8c1.9-1.8,4.1-3,6.8-3.1c3.7-0.1,6.6,1.3,8.7,4.4
		c1,1.5,1.4,3.1,1.3,4.8c-0.1,2.2-1,4.2-2.5,5.9c-0.8,0.9-1.7,1.7-2.6,2.5c-1.3,1.1-2.6,2.1-3.9,3.1c-1.4,1.1-2.5,2.6-3.2,4.2
		c-0.5,1.1-0.9,2.3-1.3,3.5c-0.6,1.6-1.2,3.1-2.1,4.5c-1.3,2.1-3,3.9-5.2,5.1c-2.1,1.2-4.4,1.6-6.8,1.1c-1.9-0.4-3.5-1.4-4.9-2.8
		c-0.2-0.2-0.4-0.4-0.6-0.6c-0.1,0.2-0.1,0.3-0.1,0.3c0,0.2-0.1,0.4-0.1,0.6c-0.6,3.8-2.6,6.7-6.1,8.5c-1,0.5-2.1,0.8-3.3,0.9
		c-2.5,0.1-4.7-0.7-6.6-2.4c-2.8-2.4-4.2-5.5-4.3-9.2c0-0.4,0-0.8,0-1.2c-2-0.3-3.5-1.4-4.9-2.7c-4.6,4.9-9.1,9.7-13.7,14.5
		c0.1,0.1,0.1,0.2,0.1,0.2c0.2,0.2,0.3,0.3,0.5,0.5c5.3,4.8,11.4,8.3,18.2,10.5c5.9,1.9,12.1,2.6,18.3,2.7c2.9,0.1,5.8-0.1,8.7-0.5
		c2.6-0.3,5.2-0.8,7.6-1.7c4.8-1.7,9.3-4,13.5-6.7c5.3-3.4,9.5-7.8,12.7-13.2c1.5-2.5,2.9-5,4.3-7.5c3.4-6.5,5.9-13.4,6.5-20.9
		c0.2-2.9,0.2-5.8-0.2-8.6c-0.5-3.6-1.4-7.2-2.6-10.6c-2.8-8.2-6.9-15.5-12.8-21.9c-0.3-0.3-0.6-0.6-0.9-0.9
		c-0.3,0.3-0.5,0.6-0.7,0.8c-7.3,7.8-14.7,15.6-22,23.4c-0.7,0.7-1,1.5-1,2.5c0,5.9,0,11.8-0.1,17.6C99.2,90.2,99.2,90.5,99.2,90.7z
		 M88,112.7c0.2,0.3,0.3,0.6,0.4,0.8c2.3,3.1,5.6,4.6,9.4,3.6c2.5-0.7,4.4-2.1,6-4.2c1.3-1.7,2.2-3.6,3-5.7c0.5-1.3,0.9-2.6,1.5-3.8
		c0.7-1.7,1.7-3.1,3.1-4.3c0.5-0.5,1.1-0.9,1.7-1.3c0.9-0.7,1.8-1.4,2.7-2.1c1.2-0.9,2.2-2,3-3.2c1-1.5,1.6-3.2,1.5-5
		c-0.3-3.5-2.1-5.9-5.3-7.1c-3.5-1.3-6.7-0.6-9.5,1.8c-1.2,1-2.2,2.3-2.9,3.7c-0.5,1-0.9,1.9-1.3,2.9c-0.6,1.3-1.1,2.7-1.7,4
		c-0.9,2-2.1,3.7-3.9,4.9c-0.3,0.3-0.4,0.5-0.3,0.9c0.3,1.4,0.3,2.8,0,4.2C94.3,107.2,92.1,110.6,88,112.7z M84.6,51.1
		c0,0.2,0,0.4-0.1,0.5c0,0.7,0,1.4-0.1,2.1c-0.3,1.8-1,3.4-2,4.9c-0.9,1.4-1.8,2.7-2.7,4c-0.4,0.6-0.7,1.2-0.9,1.8
		c-0.4,1.2-0.7,2.4-0.9,3.7c-0.5,2.8-0.6,5.6-0.5,8.5c0.1,4.9,0.3,9.9,0.5,14.8c0,0.2,0,0.3,0.1,0.6c0.3-0.3,0.5-0.5,0.7-0.7
		c4.5-4.8,9.1-9.6,13.6-14.5c1.8-2,3.7-3.9,5.5-5.9c0.2-0.2,0.4-0.5,0.4-0.8c-0.1-2.9-0.7-5.7-2.4-8.1c-0.5-0.7-0.9-1.3-1.4-2
		c-0.6-0.9-1.2-1.7-1.7-2.6c-0.9-1.4-1.4-3-1.5-4.6c0-0.6-0.1-1.1-0.2-1.7C88.9,51.1,86.8,51.1,84.6,51.1z M68.6,113.3
		c0.1,0.7,0.1,1.4,0.2,2c0.6,3.1,2.2,5.7,4.9,7.4c3.1,2,6.5,1.8,9.4-0.4c3.1-2.5,4.6-5.8,3.9-9.8c-0.7-4.5-3.4-7.4-7.5-9.1
		c-1-0.4-2.1-0.4-3.1-0.2C72.8,104.1,68.5,108.2,68.6,113.3z M87.8,111.6c0.9-0.3,1.6-0.8,2.2-1.3c2-1.8,3.4-4,4.1-6.5
		c1.1-3.9,0.1-7.3-2.7-10.1c-1.4-1.4-3.2-2.3-5.2-2.4c-3.2-0.2-7.1,2.2-8.4,5.1c-0.4,0.8-0.7,1.7-0.2,2.7c0.2,0.4,0.3,0.8,0.3,1.3
		c0.1,0.6,0.2,1.2,0.3,1.8C83.2,103.5,86.5,106.5,87.8,111.6z M94.9,97.2c1.4-1,2.4-2.3,3.2-3.7c0.1-0.2,0.1-0.5,0.1-0.7
		c0-6.6,0.1-13.3,0.1-19.9c0-0.3,0-0.5-0.1-1c-0.3,0.3-0.6,0.6-0.8,0.8c-5,5.3-9.9,10.5-14.8,15.8c-1.4,1.5-2.9,3-4.3,4.6
		c-0.3,0.3-0.5,0.6-0.2,1c0.2-0.2,0.5-0.4,0.7-0.6c1-1,2.1-1.8,3.4-2.4c1.5-0.7,3.2-1,4.8-0.6c3.5,0.7,5.9,2.8,7.4,6
		C94.6,96.6,94.7,96.9,94.9,97.2z M62.9,108.2c4-4.2,7.9-8.4,11.8-12.5c-1.6-1.8-3.4-2.9-5.7-2.9c-3.3,0-5.8,1.6-7.2,4.6
		c-1.1,2.4-1.2,4.9-0.6,7.5C61.5,106.1,62,107.2,62.9,108.2z M75.2,96.4c-3.9,4.2-7.8,8.3-11.7,12.4c1.1,1.4,3.2,2.6,4.4,2.3
		c0.5-2.3,1.6-4.2,3.3-5.9c1.7-1.7,3.6-2.8,6-3.2C77.2,99.9,76.5,98.1,75.2,96.4z M82.1,50c1.8,0.2,10.9,0.2,11.4,0
		c0-0.4,0-0.8,0-1.3c-0.9-0.2-10.7-0.2-11.4,0C82.1,49.1,82.1,49.6,82.1,50z M75.9,95.7c0.2,0.3,0.4,0.6,0.7,1
		c0.3-0.8,0.8-1.3,0.4-2.2C76.6,94.9,76.3,95.3,75.9,95.7z"/>
	<path class="st0" d="M112.9,81.3c0.8,0.1,1.5,0.3,2.3,0.4c0.5,0.1,0.6,0.4,0.5,0.7c-0.2,0.4-0.5,0.3-0.8,0.2
		c-1.6-0.5-3.1-0.4-4.6,0.1c-0.7,0.3-1.4,0.7-2,1.1c-0.2,0.1-0.3,0.2-0.5,0.3c-0.2,0.1-0.5,0.2-0.6-0.1c-0.1-0.2-0.1-0.5,0-0.6
		c0.2-0.3,0.5-0.5,0.7-0.6C109.5,81.9,111.1,81.4,112.9,81.3z"/>
	<path class="st0" d="M95.7,67.3c-0.1,0.1-0.2,0.3-0.4,0.4c-0.3,0.1-0.5-0.1-0.5-0.4c-0.1-0.6-0.2-1.1-0.3-1.7
		c-0.5-2-1.3-3.8-2.8-5.2c-0.1-0.1-0.3-0.2-0.3-0.4c0-0.2,0-0.4,0.1-0.5c0.1-0.1,0.4-0.1,0.5-0.1c0.2,0.1,0.3,0.3,0.5,0.4
		c1.5,1.6,2.5,3.5,2.9,5.7C95.5,66.1,95.6,66.6,95.7,67.3z"/>
	<path class="st0" d="M71.2,113.7c0.1-0.3,0.1-0.5,0.2-0.8c0.1-0.1,0.3-0.3,0.4-0.2c0.2,0,0.3,0.2,0.4,0.3c0.1,0.2,0,0.4,0,0.6
		c0,2.1,0.7,3.8,2.1,5.4c0.1,0.2,0.4,0.3,0.4,0.5c0.1,0.2,0,0.4-0.1,0.6c-0.1,0.1-0.4,0.1-0.5,0c-0.2-0.1-0.3-0.3-0.5-0.4
		C72.1,117.9,71.2,115.9,71.2,113.7z"/>
	<path class="st0" d="M91.8,98.3c-0.1,0.1-0.2,0.3-0.4,0.4c-0.2,0-0.4-0.1-0.5-0.3c-0.1-0.1-0.1-0.3-0.2-0.5
		c-0.5-1.2-1.2-2.3-2.3-3.1c-0.1-0.1-0.3-0.1-0.3-0.3c-0.1-0.2-0.1-0.4,0-0.5c0.1-0.1,0.3-0.2,0.5-0.1c0.2,0.1,0.5,0.2,0.6,0.3
		c1.2,1,1.9,2.2,2.5,3.6C91.7,97.9,91.7,98,91.8,98.3z"/>
</g>
</svg>
