<?xml version="1.0" encoding="utf-8"?>
<!-- Generator: Adobe Illustrator 27.3.1, SVG Export Plug-In . SVG Version: 6.00 Build 0)  -->
<svg version="1.1" id="Layer_1" xmlns="http://www.w3.org/2000/svg" xmlns:xlink="http://www.w3.org/1999/xlink" x="0px" y="0px"
	 viewBox="0 0 396.9 396.9" style="enable-background:new 0 0 396.9 396.9;" xml:space="preserve">
<style type="text/css">
	.st0{fill:#323232;}
</style>
<g id="l0NgfR.tif">
	<g>
		<path class="st0" d="M321.2,208.6c-1.3,7.5-6.3,12.7-11,18.1c-10.1,11.7-22,21.4-33.9,31.2c-7.5,6.2-14.8,12.6-22.3,18.8
			c-8.8,7.2-18.4,12.8-29.6,15.3c-9.8,2.2-19.6,2.5-29.5,1.5c-12.6-1.3-25.3-2.8-37.9-4c-4.6-0.4-9.4-0.6-14-0.4
			c-6.2,0.3-11.4,3.4-15.9,7.4c-5.7,5-10.1,11.1-13.6,17.8c-2.7,5-5,10.2-7.5,15.3c-0.1,0.2-0.1,0.6-0.3,0.7c-0.6,0.4-1.4,1-2,1
			c-1.1-0.1-1.2-1.2-0.9-2.1c0.4-1.1,1-2.2,1.4-3.3c4.4-10,9.4-19.7,16.9-27.8c4.9-5.3,10.4-9.8,17.8-11.5
			c5.9-1.3,11.8-1.1,17.7-0.5c13.2,1.4,26.3,3,39.5,4.2c9.4,0.9,18.8,0.7,28.1-1.5c10.5-2.5,19.6-7.6,27.8-14.5
			c11.7-9.8,23.3-19.6,35-29.4c9.6-8.1,18.5-16.8,26.3-26.7c2.2-2.8,4.1-5.7,4.6-9.4c0.1-0.8,0-2-0.5-2.4c-0.4-0.3-1.7,0-2.3,0.4
			c-6.1,3.4-12.1,6.9-18.1,10.4c-19.1,11-39.2,20-60.2,26.5c-11,3.4-22.3,5.1-33.8,4.9c-5.5-0.1-10.9-0.7-16.1-2.7
			c-2-0.8-4.1-2-5.6-3.5c-3.8-3.7-2.9-8.8,1.7-11.4c4.2-2.4,8.9-3.3,13.7-3.9c9-1.1,18.1-1.9,27.2-3.1c4.2-0.5,8.4-1.3,12.6-2.4
			c2-0.5,3.9-1.7,5.7-2.8c0.9-0.5,1.6-1.4,2.2-2.3c1.4-2.1,0.9-4.4-1.4-5.3c-3.2-1.2-6.5-2.3-9.9-2.8c-13.3-2.2-26.8-3.5-40.3-4.2
			c-14.7-0.7-28.4,2.5-41.6,8.9c-13.4,6.6-25.6,14.9-36.8,24.8c-13.9,12.3-26.3,25.8-37.9,40.2c-2.6,3.3-4.7,7-7,10.5
			c-0.3,0.5-0.6,1.1-1,1.4c-0.6,0.3-1.5,0.7-2,0.5c-0.9-0.4-1-1.3-0.5-2.2c2-3.2,3.9-6.5,6.1-9.5c10-13.4,21.5-25.5,33.5-37.1
			c8.6-8.4,17.8-16.2,28.1-22.5c11.2-6.9,22.8-13.1,35.7-16.2c8.8-2.1,17.7-2,26.6-1.8c11.7,0.4,23.3,1.8,34.8,3.6
			c3.4,0.5,6.8,1.2,10.1,2c1.5,0.4,3,1.1,4.3,1.9c3.2,2,4,5.2,2.2,8.5c-1.7,3.2-4.5,5.4-7.9,6.6c-6.4,2.2-13,3-19.7,3.8
			c-9.1,1-18.3,2-27.4,3.3c-3,0.5-5.9,2.1-8.7,3.3c-1.6,0.7-1.7,2-1.3,3.4c0.7,2.5,2.5,4.1,4.8,4.8c2.9,0.9,5.8,1.4,8.8,2
			c7.5,1.5,15,0.6,22.5-0.3c19.6-2.5,37.6-10.1,55.1-18.5c13.5-6.5,26.3-14.3,39.5-21.5c0.9-0.5,1.9-1,2.9-1.1
			c2.9-0.5,4.3,0.6,5.6,3.9C321.2,207.6,321.2,208.1,321.2,208.6z"/>
		<path class="st0" d="M282.3,120.9c0,3.9,0,7.5,0,11.2c0,2.1-0.7,2.7-2.9,2.9c-3,0.3-6.1,0.6-9.4,0.9c0.6,0.7,1.1,1.3,1.5,1.8
			c9.2,10.7,9.1,24.1,4.2,33.7c-3,5.9-8.2,9.5-13.7,12.6c-10.2,5.7-20.4,4.4-30.3-0.7c-11.6-5.9-17.4-15.8-19.5-28.4
			c-2-12.5,8.1-26.4,19.8-30.6c7.1-2.5,14.2-3.1,21.5-0.9c0.4,0.1,1.1-0.3,1.5-0.7c9.5-10.1,18.9-20.1,28.3-30.2
			c2.1-2.2,4-4.6,6.1-6.8c0.3-0.3,0.8-0.5,1.2-0.6c5.9-1.3,11.9-2.6,17.8-4c2.8-0.6,4,0.3,3.7,3.2c-0.5,5.9-1,11.7-1.5,17.6
			c-0.1,1.4-0.7,2.3-2.2,2.5c-3.4,0.4-6.7,0.9-10.1,1.2c-1.1,0.1-1.5,0.4-1.5,1.6c0.1,3.5,0,7,0,10.4c0,2.1-0.6,2.6-2.7,2.6
			C290.3,120.4,286.5,120.7,282.3,120.9z M308.9,84.3c-0.3,0-0.4,0-0.5,0c-5.3,1.2-10.7,2.4-16,3.6c-0.4,0.1-0.9,0.4-1.2,0.8
			c-2.6,2.7-5.2,5.5-7.7,8.2c-9.2,9.9-18.5,19.7-27.7,29.6c-0.7,0.8-1.4,1-2.4,0.5c-1.1-0.5-2.2-1.1-3.3-1.3
			c-6.2-1.1-12.3-0.5-18.1,2c-8.7,3.6-18.5,15.2-16.5,27c1.8,10.4,6.3,18.9,15.5,24.4c6.8,4.1,14.1,6.2,22.1,4.8
			c5-0.9,9.1-3.6,13.1-6.5c8.2-6,10.6-14.3,9.5-23.9c-0.7-6.6-4.3-11.9-8.8-16.6c-0.6-0.7-1.3-1.9-1.1-2.6c0.2-0.7,1.5-1.2,2.5-1.4
			c3.3-0.5,6.6-0.7,9.9-1.1c0.4-0.1,1.1-0.5,1.1-0.7c0.1-3.6,0.3-7.1,0.2-10.7c0-1.5,0.4-2.3,1.8-2.5c0.6-0.1,1.2-0.1,1.7-0.2
			c3.5-0.3,7.1-0.5,10.7-0.8c0-0.5,0.1-0.9,0.1-1.3c0-3.1,0-6.3,0-9.4c0-2.6,0.7-3.3,3.2-3.6c3.1-0.4,6.2-0.7,9.3-1
			c1-0.1,1.4-0.4,1.4-1.5c0.1-3.3,0.4-6.5,0.7-9.8C308.4,88.3,308.7,86.3,308.9,84.3z"/>
		<path class="st0" d="M235.1,158.1c4.1,0,7.7,3.4,7.7,7.1c0,3.4-3.3,6.4-7,6.4c-3.9,0-7.1-3.3-7.1-7.2
			C228.8,160.7,231.3,158.1,235.1,158.1z M235.1,161.3c-2,0-3.1,1.2-3.2,3.1c0,2.2,1.7,4.1,3.9,4.1c1.9,0,3.6-1.4,3.7-3.1
			C239.6,163.2,237.5,161.3,235.1,161.3z"/>
	</g>
</g>
</svg>
