<?xml version="1.0" encoding="utf-8"?>
<!-- Generator: Adobe Illustrator 27.3.1, SVG Export Plug-In . SVG Version: 6.00 Build 0)  -->
<svg version="1.1" id="Layer_1" xmlns="http://www.w3.org/2000/svg" xmlns:xlink="http://www.w3.org/1999/xlink" x="0px" y="0px"
	 viewBox="0 0 2834.6 2834.6" style="enable-background:new 0 0 2834.6 2834.6;" xml:space="preserve">
<style type="text/css">
	.st0{fill:#30313D;}
</style>
<g>
	<path class="st0" d="M549.7,2125c6.2-7.6,11.8-15.7,18.6-22.6c65.5-66.2,131.3-132.1,196.7-198.5c26.2-26.6,51.6-54,77.1-81.2
		c1.6-1.7,2.7-5.7,1.9-7.7c-4.8-12.6-9.2-25.5-15.6-37.2c-13.7-24.9-12.8-49.9,2.3-72.5c17.1-25.5,36.9-49.2,56.7-72.7
		c15.8-18.7,33.2-36,50-53.8c7.2-7.6,11.4-15.7,8.1-26.6c-31-101.1-22.4-200.2,14.7-298c35.6-93.9,96.3-169,174.2-230.9
		c22.2-17.6,45.1-34.3,67.4-51.7c2.1-1.6,3.8-5.5,3.4-8c-8.2-62.4-16.4-124.8-25.2-187c-2.8-20,2.1-37.5,15.6-51.7
		c26-27.4,53.1-53.8,79.7-80.6c0.9-0.9,2.2-1.6,3-2.6c12.3-14.9,18.3-14.9,35-5.2c68.6,40,128,92.3,190.2,140.8
		c1.9,1.5,6.9,1.5,8.8,0.1c47.8-36.7,88.7-80.6,131-123.1c25.4-25.5,51-50.9,77.9-74.7c21-18.6,46.1-30.4,74.7-32.9
		c0.6-0.1,1.2-0.5,1.8-0.7c6,0,12,0,18,0c5.7,1,11.4,1.9,17.1,3.1c51.2,10.9,83.9,51.7,80.6,101.9c-1.9,29.5-13,56.2-28.3,81.3
		c-22.8,37.3-53,68.3-84.4,98.3c-37,35.3-73.9,70.7-111,105.9c-3.6,3.4-3,5.4,0.3,8.6c46.7,45.7,93.2,91.5,139.7,137.4
		c20.7,20.4,41.3,40.9,62.1,61.4c2.5-2.2,3.9-3.4,5.3-4.6c54.5-50.2,108.6-100.9,163.7-150.5c27.3-24.6,57.7-45.2,93.5-56.2
		c49.7-15.3,85.9-5,113.9,31.5c11.6,15.2,17.1,32.4,19.6,51c0,5.7,0,11.3,0,17c-1.2,7.2-2.2,14.4-3.7,21.6
		c-5.7,26-21.5,45.9-40.2,63.7c-60.6,57.6-121.4,115.1-182.1,172.7c-9.3,8.8-18.8,17.5-27.7,26.7c-1.4,1.4-1.6,6-0.3,7.5
		c40.1,48.8,80.6,97.2,120.5,146.2c12.4,15.2,22.4,32.3,34.1,48c12.5,16.7,9.5,27-1.8,43.6c-9.1,13.3-21.4,24.6-32.8,36.2
		c-13.2,13.4-27,26.2-40.4,39.4c-20.1,19.8-43.2,26.7-71.6,22.2c-58.7-9.2-117.7-16.6-176.6-24.4c-2.6-0.3-6.7,1.6-8.3,3.9
		c-40.4,55.5-82.1,109.9-135.2,154c-96.4,80.1-207.1,122.1-333.1,120.5c-36.5-0.4-72.3-6.3-107.1-17.2c-13.2-4.1-23.2-1.2-33.4,8.2
		c-32.1,29.8-64.6,59.3-97.8,87.8c-17.3,14.8-36.9,27.2-60.5,28.2c-10.5,0.4-21.7-2.5-31.8-6c-15-5.2-29.4-12.4-44.2-18.4
		c-1.9-0.8-5.5-0.1-7,1.3c-93.9,91.8-187.6,183.8-281.4,275.6c-6.6,6.4-14.3,11.7-21.5,17.6c-1.7,0-3.3,0-5,0
		c-17.9-7.5-21.5-20.6-9.8-36.4c2.3-3.1,4.8-6,7.5-8.7c90.3-88.8,180.6-177.5,271-266.3c3.1-3.1,6.4-6,10-9.2
		c-44.1-32.2-78.9-72.3-110.2-116.9c-1,1.5-1.4,2.3-1.9,2.9c-59.7,61.9-119.1,124.1-179.2,185.5c-31.6,32.3-64,63.7-96.7,94.8
		c-16.3,15.4-29.9,12.7-39.6-5.8C549.7,2129,549.7,2127,549.7,2125z M2064.3,1622.7c4.2-2.5,10.4-4.9,14.9-9.2
		c23.9-23,47.2-46.5,70.9-69.7c3.8-3.7,3.6-6.5,0.5-10.5c-30.1-38.4-59.9-77-90.3-115.2c-23.4-29.4-49.9-56.6-71-87.6
		c-44-64.6-90.8-126.4-147.7-180.5c-66.7-63.5-131.7-128.9-197-194c-61.9-61.8-128.2-118.4-197-172.4
		c-46.6-36.6-91.9-75.1-143-105.6c-1.9-1.1-6.3-0.8-7.8,0.7c-23.5,23.4-46.8,47-70,70.6c-6.6,6.7-8.9,14.3-7.5,24.1
		c8.2,56.5,14.6,113.3,24.2,169.5c5.2,30.5-1,53.2-28.5,69.2c-10.7,6.2-20.6,14.1-30.5,21.7c-50,38.7-97.7,80-133.1,133
		c-64,95.8-98.5,199.8-80.5,316.4c3.6,23.5,8.8,48.3,19.8,69c52.1,97.6,124.6,179.1,207.8,251.3c28.2,24.5,57.7,46.2,95.9,55.8
		c63.9,16,127.2,20.6,191.7,6.2c109.7-24.5,200.6-80,272.6-166c22.3-26.7,43-54.7,63.7-82.7c12.4-16.7,28-24.6,48.7-21.5
		c31.4,4.7,62.8,9.6,94.3,14.1C1997.8,1614,2029.9,1618.1,2064.3,1622.7z M971.2,1599.7c-28.4,31.3-56.7,61.4-83.5,92.7
		c-10.6,12.4-18.4,27.3-26.2,41.7c-2.5,4.6-3,12.3-1,17.1c9,21.7,17.1,44.2,29.5,64c45,71.5,102.3,130,182,163.3
		c8.7,3.6,16.9,5,25.2-0.1c11.1-6.8,23.1-12.3,32.9-20.6c23-19.2,45-39.6,67.2-59.7c9-8.1,17.7-16.5,26.1-24.4
		C1122,1798.4,1038.8,1707.3,971.2,1599.7z M1542.1,806.9c37.5,34.5,75.2,69.2,113,103.8c0.8,0.7,3.7,0.4,4.5-0.4
		c5.9-5.9,11.2-12.3,17.3-18c38.8-36.8,78.1-73,116.3-110.4c29.4-28.7,56.2-59.8,72-98.5c7-17.1,11.8-34.8,6.8-53.5
		c-8.9-33.4-52.1-53.1-88.2-40.4c-24,8.4-43.5,23.6-61.2,41.2c-42.4,42.2-84.3,84.8-126.9,126.8
		C1578.1,774.6,1559.4,790.9,1542.1,806.9z M2008.2,1285.7c0.4-0.3,1.6-1.2,2.6-2.2c70.6-67.2,141.3-134.3,211.8-201.6
		c14-13.3,22.2-29.5,24.8-48.8c4.3-31.4-18.7-74.3-63.9-66.6c-27.8,4.7-51.2,17.7-73.4,34.1c-52.8,39.1-99.6,84.9-146.9,130.2
		c-14.5,13.9-27.6,29.1-40.5,42.9C1950.7,1210.1,1979.4,1247.8,2008.2,1285.7z"/>
	<path class="st0" d="M1430,1324.5c40.3-11.8,79.6-23.9,119.2-34.7c14.1-3.8,29.1-6.3,43.7-6.5c26.1-0.3,42.3,21.6,33.4,46.2
		c-9,25-20.2,49.3-31.7,73.2c-47.8,99.1-96,197.9-144.1,296.7c-7.4,15.1-25.8,15.4-36.2,1.6c-8.4-11.2-9.1-23.4-6.9-36.1
		c10.9-63.4,22-126.8,33.1-190.2c1.2-6.7,2.4-13.4,3.5-20.2c0.1-0.4-0.2-0.9-0.2-1.1c-27.3,9.3-54.2,19.4-81.7,27.6
		c-31,9.3-62.5,17-93.9,25c-4.7,1.2-10,1-14.9,0.4c-22-2.7-32.3-19.6-23.7-41.1c11.8-29.5,24.4-58.6,37.3-87.7
		c44.6-101.1,89.6-202,143.4-298.7c12.7-22.9,28.1-44.4,43.1-66c4.2-6.1,10.6-11.3,17.1-15c16.1-9.3,35.5,1.3,33.9,19.7
		c-2,22.8-5.7,45.6-11.4,67.7c-17.5,68.5-36.3,136.6-54.5,204.9C1435.3,1301.5,1432.8,1312.9,1430,1324.5z M1272.9,1464.9
		c3-0.6,4.9-0.9,6.8-1.4c28.6-8.3,57.4-16,85.7-25.2c26.9-8.7,53-19.6,79.9-28.3c21.6-7,36.5,3.1,39.1,25.3
		c0.9,7.7,0.9,15.8-0.5,23.3c-6.6,35.2-13.8,70.2-20.8,105.3c-2.3,11.7-4.5,23.4-6.7,35.2c0.8,0.3,1.6,0.6,2.5,0.9
		c42.9-92.1,85.9-184.1,129.7-278c-11.6,2.5-21.2,3.9-30.4,6.6c-42,12.3-83.8,25-125.7,37.6c-25.3,7.6-42.5-4.5-42.4-30.8
		c0.1-12,1.4-24.4,4.5-36c13.4-50.1,27.9-100,41.7-150c5.4-19.7,10.1-39.5,15.1-59.3C1382.2,1210.2,1327.4,1336.9,1272.9,1464.9z"/>
</g>
</svg>
