<?xml version="1.0" encoding="utf-8"?>
<!-- Generator: Adobe Illustrator 27.3.1, SVG Export Plug-In . SVG Version: 6.00 Build 0)  -->
<svg version="1.1" id="Layer_1" xmlns="http://www.w3.org/2000/svg" xmlns:xlink="http://www.w3.org/1999/xlink" x="0px" y="0px"
	 viewBox="0 0 396.9 396.9" style="enable-background:new 0 0 396.9 396.9;" xml:space="preserve">
<style type="text/css">
	.st0{fill:#323232;}
</style>
<g id="_x39_smCCA.tif">
	<g>
		<g>
			<path class="st0" d="M135,235.9c-2.4-3.4-5.6-5.5-9.6-6.2c-3.4-0.6-6.4,0.1-8.8,2.2c-1.2,1.1-1.8,2.5-1.5,4
				c1.3,7,5.3,11.2,11.7,12.2c0.5,0.1,1,0.1,1.5,0.1c2,0,4-0.7,5.5-1.9c1.6-1.3,2.6-3.1,2.7-5.1C136.7,239.3,136.2,237.6,135,235.9z
				 M136.1,241.2c-0.3,4.1-4.5,7.2-9.3,6.5c-6.7-1-10.3-5.6-11.4-11.9c-0.3-1.4,0.3-2.7,1.4-3.6c2.5-2.1,5.4-2.7,8.5-2.1
				c3.9,0.7,7.1,2.8,9.4,6.1C135.7,237.5,136.3,239.1,136.1,241.2z"/>
			<path class="st0" d="M364.7,204.1c-0.7-1.3-1.9-0.8-2.5-0.6c-0.7,0.2-1.5,0.5-2.2,0.8c-2.1,0.8-4.2,1.6-6.4,2.1
				c-4.7,1.1-9.6,2.1-14.2,3c-2.8,0.6-5.6,1.1-8.4,1.7c-3.3,0.7-6.6,1.4-9.8,2.2c-9,2.1-18.3,4.2-27.6,5.1c-4.1,0.4-6.8,2-8.6,5
				c-0.3,0.4-0.6,0.9-1,1.4c-0.6,0.7-1.2,1.4-1.8,2.2l-0.3,0.4c0-0.1,0-0.2-0.1-0.4c-0.1-0.8-0.3-1.5-0.4-2.2
				c-0.3-1.2-0.7-2.2-1.1-3.1c-4.2-9.4-8.8-16.5-14.4-22.5c-7.1-7.6-15.4-14.6-24.8-20.8c-7.3-4.8-17-11.1-27.6-16.2
				c-7.4-3.6-14.2-4.8-20.9-3.8c-0.7,0.1-1.4,0.2-2.1,0.3l-0.5,0.1c0.1-0.2,0.1-0.4,0.1-0.6c1-3.9,1.3-7.5,0.9-10.8
				c-0.4-2.7-1.2-5-2.5-7.1c-0.6-1-1.5-1.2-2.4-0.7c-0.9,0.5-1.1,1.3-0.6,2.2c3.1,5.6,3.1,11.8-0.1,18.9c-1.4,3.2-3.8,5.6-7,6.8
				c-3,1.2-6,1.8-9,1.7c-2.4,0-3.8-0.4-4.6-1.3c-0.8-0.9-1.1-2.3-1-4.8l0.1-3c0.2-3.8,0.4-7.8,0.4-11.6c0-2.9,0.9-5.3,2.6-7.5
				c2.1-2.5,4.8-4,8.1-4.5l0.3,0c9.1-1.3,18.5-2.7,27.8-3.9c4.5-0.6,8.4-0.1,11.8,1.6c6.4,3.1,13.2,4.9,19,6.3
				c4.3,1,9.3,2.3,14.1,4.7c6,2.9,11.2,5.8,15.1,10.5c1.8,2.2,3.6,4.4,5.3,6.6c0.8,1,1.7,1.2,2.6,0.5c0.4-0.3,0.7-0.7,0.7-1.1
				c0.1-0.5-0.1-1-0.5-1.5c-0.4-0.6-0.9-1.2-1.3-1.8l-0.3-0.4h0c2-0.4,4-0.8,6.1-1.2c4.2-0.8,8.4-1.6,12.6-2.4l5.4-1.1
				c6.5-1.3,13.2-2.6,19.8-4c4.2-0.9,8.4-2,12.4-3c2.8-0.7,5.7-1.4,8.5-2.1c1.6-0.4,3.2-0.6,4.7-0.8c0.6-0.1,1.2-0.2,1.9-0.3
				c1.5-0.2,1.7-1.2,1.6-1.8c-0.1-0.5-0.2-1-0.6-1.2c-0.4-0.3-0.8-0.4-1.4-0.3c-0.1,0-0.3,0-0.4,0c-0.2,0-0.5,0-0.7,0.1
				c-1.4,0.3-2.8,0.6-4.2,0.8c-3.4,0.7-6.9,1.3-10.3,2.1c-2.8,0.6-5.5,1.4-8.2,2.1c-3.9,1-8,2.1-12,2.9c-8,1.6-16.2,3.1-24.1,4.6
				c-4.3,0.8-8.5,1.6-12.8,2.4c-0.6,0.1-0.9-0.1-1.4-0.6c-3.3-3.9-6.8-6.9-10.7-9c-6.5-3.6-12.6-6.1-18.5-7.6l-1-0.2
				c-6.7-1.6-13.6-3.2-19.8-6.4c-4-2-8.4-2.6-14.4-1.8c-5.5,0.7-10.6,1.4-15.6,2.1c-1,0.1-1.9,0.3-2.9,0.4c-3.5,0.5-7,1-10.5,1.8
				c-6,1.4-10.1,5.3-11.8,11.2c-0.1,0.5-0.2,1-0.3,1.5c0,0.1,0,0.2-0.1,0.3c-7-1.1-13.4-0.8-19.7,0.9c-4.9,1.3-8.8,1.5-12.4,0.7
				l-2.7-0.6c-8.7-1.9-17.8-3.8-26.6-5.9c-2.5-0.6-5-1.2-7.5-1.8c-11.6-2.7-23.7-5.4-35.1-9.7c-0.8-0.3-1.7-0.3-2.6-0.3
				c-0.6,0-1.1,0.3-1.4,0.7c-0.3,0.4-0.2,1,0.1,1.4c0.3,0.6,1,0.9,1.5,1.1l2.6,0.8c11.1,3.4,22.6,7,34.2,9.3
				c7.4,1.5,14.8,3.2,22,4.9c4.1,1,8.4,2,12.5,2.9c5.7,1.3,10.3,1.3,14.7,0.1c6.6-1.9,13.2-2.2,19.6-1.2l0.1,0
				c0.6,0.1,0.6,0.1,0.6,0.5c0,1.1-0.1,2.3-0.1,3.4c0,1.1,0,2.3-0.1,3.4c0,0.9-0.1,1.9-0.1,2.9c-0.1,1.8-0.2,3.6-0.1,5.4
				c0.1,3.9,2.4,6.5,6,6.9c7.5,0.8,17.8-1.4,22.2-10.4c0.2,0,0.3,0,0.5,0c0.6,0,1.1,0.1,1.7-0.1c6.4-1.4,12.8-0.6,19.1,2.3
				c17.1,8,32.8,18.3,46.7,30.5c9,7.9,15.8,17.4,20.5,28.4c1.1,2.6,1.5,4.9,1.3,7c-0.4,3.3-2,6-5.1,8.5c-1.2,1-2.6,2-3.8,2.9
				c-0.5,0.4-0.9,0.7-1.4,1.1c-0.2,0.2-0.5,0.4-0.7,0.5c-0.3-0.6-0.6-1.3-0.9-1.9c-0.8-1.7-1.5-3.3-2.5-4.8c-2.6-4-5.1-7.5-7.5-10.6
				c-7.2-9.1-14.7-19.1-20.6-30.4c-0.2-0.4-0.4-0.8-0.5-1.2c-0.1-0.7-0.3-1.1-0.7-1.4c-0.4-0.2-0.8-0.3-1.3-0.2
				c-0.5,0.1-0.9,0.3-1.1,0.7c-0.3,0.4-0.3,1-0.1,1.6c0.3,0.9,0.7,2.1,1.3,3.2c4.1,7.1,9.1,15.4,14.9,22.8
				c3.7,4.7,7.2,9.6,10.6,14.4c0.9,1.3,1.9,2.6,2.8,3.9c2.5,3.5,2.7,7.1,0.6,11.2c-3.4,6.6-7.6,10.4-13.4,12
				c-0.2,0.1-0.5,0.1-0.7,0.2c0-0.3,0-0.5,0-0.8c0-0.8,0-1.6,0-2.4c-0.5-5.2-3.2-9.6-5.7-13.1c-1-1.4-1.9-2.8-2.9-4.1
				c-3.4-4.7-6.8-9.6-10.1-14.5l-0.4-0.6c-2.4-3.6-4.9-7.3-4.8-12c0-0.5-0.1-0.9-0.4-1.2c-0.3-0.3-0.7-0.5-1.2-0.5
				c-0.5,0-0.9,0.2-1.2,0.5c-0.3,0.3-0.5,0.7-0.5,1.2v0.3c0,1,0,2.1,0.2,3.1c1,4.6,3.5,8.5,5.9,12.1c2.5,3.6,5,7.1,7.5,10.6
				c1.8,2.5,3.5,5,5.3,7.5c1.8,2.5,3.5,5.3,4.5,8.5c1.2,3.9,0.5,7.1-2.2,9.4c-2.8,2.4-5.8,4.5-8.4,6.2c-0.9,0.6-2,1-3.1,1.4
				c-0.4,0.1-0.8,0.3-1.2,0.4c0.1-5.5-2.6-9.4-5.4-13c-0.4-0.4-0.7-0.9-1.1-1.3c-0.4-0.5-0.7-0.9-1.1-1.4c-0.9-1.1-1.7-2.2-2.6-3.3
				c-2.1-2.7-4.3-5.4-6.2-8.3c-2.3-3.4-4.8-7.5-5-12.5c0-0.7-0.9-1.4-1.4-1.6c-0.4-0.1-0.8-0.1-1.1,0.1c-0.4,0.2-0.7,0.7-0.8,1.3
				c-0.1,0.4-0.1,1,0,1.5c0.6,4,2.1,7.9,5.1,12.6c2.7,4.3,6,8.3,9.2,12.1c0.6,0.7,1.2,1.5,1.8,2.2c1.8,2.1,3.7,4.7,4.6,7.9
				c0.8,2.5,0.6,4.4-0.4,6.1c-1.3,2-2.6,3.7-4,5.1c-2.2,2.2-4.7,3.4-7.5,3.6c-3.9,0.3-7.1-1.5-9.8-5.5c-1-1.4-1-1.4,0-2.6
				c4.5-5.9,4.8-16.4,0.5-22.4c-1.8-2.5-3.9-4-6.6-4.7c-0.5-0.1-1-0.2-1.6-0.3c-0.1,0-0.2,0-0.3-0.1c2.5-6.5,0.6-12.2-5.2-16.2
				c-5.6-3.8-11.8-3.6-17.3,0.5c-0.4-0.4-0.8-0.7-1.2-1c-1-0.9-2-1.8-3.1-2.6c-4.5-3.4-9.8-3.8-16.1-1.3c-4.5,1.8-8.4,4.6-12.7,8.3
				l-1.3,1.1c-1.5-5.2-4.9-8.9-10.3-10.9c-5.6-2.1-10.6-1.2-14.8,2.7c-0.3-0.2-0.6-0.3-0.9-0.5c-0.8-0.5-1.6-0.9-2.5-1.2
				c-1.4-0.5-2.7-1-4.1-1.5c-4.1-1.5-8.3-3.1-12.5-4.3c-11.2-3.1-22.9-3.7-33.8-3.9c-5.8-0.1-11.7-0.1-17.4-0.2
				c-2.5,0-4.9,0-7.4-0.1c-0.2,0-0.5,0-0.8,0.1c-0.6,0.1-1.7,0.4-1.7,1.7c0,1.5,1.3,1.7,1.7,1.7c0.5,0.1,1.1,0.1,1.6,0.1h0.5
				c3.3,0.1,6.7,0.1,10,0.1c7.4,0.1,15.1,0.1,22.6,0.4c8.6,0.3,17.2,1.6,25.7,3.8c6.2,1.7,11.7,3.8,16.9,6.5
				c0.2,0.1,0.5,0.5,0.6,0.8c0.1,0.6,0.2,1.3,0.2,1.9c0.1,1.1,0.2,2.2,0.5,3.3c2.6,7.7,8.9,12.1,16.5,11.5c0.4,0,0.8-0.1,1.2-0.1
				l0.2,0c0,0.2,0,0.4,0.1,0.6c0.1,0.7,0.1,1.4,0.2,2.1c0.9,5.4,3.5,9.8,7.6,12.9c2.3,1.7,4.5,2.4,6.8,2c1.8-0.3,3.7-0.7,5.9-1.3
				c1.1-0.3,2.1-0.7,3.1-1.1c0.3-0.1,0.7-0.2,1-0.4c1.8,5.1,5,8.8,9.2,10.3c4.3,1.5,9.3,0.7,14.4-2.6l0.1,0.1
				c0.2,0.2,0.5,0.4,0.8,0.7c2.4,2.4,5.4,4.4,9.4,6.1c3.1,1.3,6.7,2.4,10.6,0.7c0,0,0,0.1,0.1,0.1c0.2,0.3,0.3,0.5,0.5,0.8
				c0.3,0.4,0.7,0.8,1,1.2c0.9,1.1,1.8,2.2,2.8,3.2c2.2,2.2,5.1,2.9,7.4,3.3h1.3l0.1,0c0.1,0,0.1-0.1,0.2-0.1c0.1,0,0.2-0.1,0.3-0.1
				c5.6-0.7,10.1-3.6,13.3-8.7c0.9-1.4,1.7-2.3,3.5-2.7c6-1.4,10.5-5.5,14.9-9.5c0.2-0.2,0.3-0.4,0.5-0.6c0.1-0.2,0.2-0.3,0.4-0.4
				c0.4-0.4,0.8-0.7,1.2-0.8c3.5-0.9,7.2-2.2,10.3-4.7c4.9-3.9,7.4-9.3,9-13.6c0.1-0.2,0.2-0.6,0.5-0.8c1.2-0.9,2.4-1.7,3.5-2.5
				c1.6-1.1,3.2-2.2,4.7-3.4c2.6-1.9,4.4-4.5,5.5-7.8c0.1-0.3,0.2-0.6,0.5-0.8c0.7-0.8,1.3-1.6,2-2.5c1.4-1.7,2.8-3.4,4.1-5.2
				c1.4-2,3-3,5.2-3.3l2.4-0.3c4.1-0.6,8.3-1.1,12.4-2c5.2-1,10.4-2.2,15.4-3.3c3.1-0.7,6.2-1.4,9.3-2.1c3-0.6,6-1.3,9-1.9
				c4.8-1,9.7-2,14.6-3.1c2.1-0.5,4.1-1.3,6-2.1c0.5-0.2,1-0.4,1.5-0.6c0.5-0.2,1-0.6,1.1-1.1C364.9,205,364.9,204.6,364.7,204.1z
				 M140.8,263.4c-3.9-3.2-6-7.5-6.4-12.8c-0.1-1,0.2-1.7,1-2.2c0.6-0.4,1.1-1.1,1.5-1.7c0.1-0.2,0.2-0.3,0.3-0.5
				c4.8-6.6,11.1-11.4,18.9-14.3c0.9-0.4,2-0.5,2.9-0.6c0.4,0,0.8-0.1,1.1-0.2c4.3,0.3,7.6,2.1,10.2,5.6c0.7,0.9,0.8,2.2,0.2,3.4
				l-0.4,0.9c-0.9,1.9-1.8,4-2.9,5.7c-2.1,3.1-4.4,6.2-6.6,9.2c-0.6,0.8-1.2,1.6-1.8,2.4c-2.3,3.1-5.6,4.6-9.9,5.8
				c-1.1,0.3-2.2,0.5-3.7,0.7C143.7,265,142.2,264.5,140.8,263.4z M128.2,248.2c-0.5,0-1,0-1.5-0.1c-6.4-1-10.4-5.2-11.7-12.2
				c-0.3-1.5,0.2-2.9,1.5-4c2.4-2.1,5.4-2.9,8.8-2.2c4,0.7,7.3,2.8,9.6,6.2c1.2,1.7,1.7,3.4,1.5,5.4c-0.1,1.9-1.1,3.8-2.7,5.1
				C132.2,247.5,130.3,248.2,128.2,248.2z M175.6,271.3c-1.9,1-4,1.6-6.1,1.7c-3.4,0-6-1.3-8.2-4.2c-0.8-1.1-1.4-2.4-2-3.7
				c-0.2-0.4-0.3-0.7-0.5-1.1c-0.1-0.2,0-0.7,0.2-0.9c0.9-1.2,1.9-2.3,2.8-3.5c1.4-1.6,2.8-3.3,4.1-5.1c2.4-3.2,5.5-7.4,7.5-12.3
				c0.3-0.7,0.5-1.5,0.6-2.2c0.1-0.5,0.2-0.9,0.3-1.4c0.1-0.3,0.3-0.9,0.6-1.2c2.1-1.9,4.5-2.8,7.1-2.8c1.6,0,3.2,0.4,5,1.1
				c3.9,1.6,6.1,4.8,6.5,9.1c0.1,1-0.2,2-0.5,2.8c-1.9,5.4-4.4,9.7-7.3,13.3c-0.7,0.9-1.4,1.7-2.1,2.6c-0.9,1.1-1.8,2.3-2.7,3.4
				C179.3,268.8,177.5,270.3,175.6,271.3z M201.5,275c-1.6,2.7-4.1,3.7-7.2,2.9c-4.6-1.1-8.7-3.4-12.2-6.9c0.7-0.8,1.3-1.6,2-2.4
				c1.7-2.1,3.3-4,4.8-6.1c1.6-2.2,3-4.6,4.3-6.9l0.9-1.5c0.3-0.6,0.6-0.7,1.1-0.7c3.1,0.2,5.4,1.6,6.8,4.2
				C205,263.5,204.9,269.3,201.5,275z"/>
			<path class="st0" d="M135,235.9c-2.4-3.4-5.6-5.5-9.6-6.2c-3.4-0.6-6.4,0.1-8.8,2.2c-1.2,1.1-1.8,2.5-1.5,4
				c1.3,7,5.3,11.2,11.7,12.2c0.5,0.1,1,0.1,1.5,0.1c2,0,4-0.7,5.5-1.9c1.6-1.3,2.6-3.1,2.7-5.1C136.7,239.3,136.2,237.6,135,235.9z
				 M135.8,241.1L135.8,241.1c-0.1,1.8-1,3.4-2.4,4.6c-1.7,1.4-4.1,2-6.4,1.6c-7.6-1.2-10.2-6.9-11.1-11.6c-0.2-1.2,0.2-2.4,1.2-3.3
				c1.7-1.5,3.8-2.3,6.1-2.3c0.7,0,1.4,0.1,2.1,0.2c3.9,0.7,6.9,2.7,9.2,5.9C135.5,237.9,135.9,239.4,135.8,241.1z M135,235.9
				c-2.4-3.4-5.6-5.5-9.6-6.2c-3.4-0.6-6.4,0.1-8.8,2.2c-1.2,1.1-1.8,2.5-1.5,4c1.3,7,5.3,11.2,11.7,12.2c0.5,0.1,1,0.1,1.5,0.1
				c2,0,4-0.7,5.5-1.9c1.6-1.3,2.6-3.1,2.7-5.1C136.7,239.3,136.2,237.6,135,235.9z M135.8,241.1L135.8,241.1
				c-0.1,1.8-1,3.4-2.4,4.6c-1.7,1.4-4.1,2-6.4,1.6c-7.6-1.2-10.2-6.9-11.1-11.6c-0.2-1.2,0.2-2.4,1.2-3.3c1.7-1.5,3.8-2.3,6.1-2.3
				c0.7,0,1.4,0.1,2.1,0.2c3.9,0.7,6.9,2.7,9.2,5.9C135.5,237.9,135.9,239.4,135.8,241.1z M135,235.9c-2.4-3.4-5.6-5.5-9.6-6.2
				c-3.4-0.6-6.4,0.1-8.8,2.2c-1.2,1.1-1.8,2.5-1.5,4c1.3,7,5.3,11.2,11.7,12.2c0.5,0.1,1,0.1,1.5,0.1c2,0,4-0.7,5.5-1.9
				c1.6-1.3,2.6-3.1,2.7-5.1C136.7,239.3,136.2,237.6,135,235.9z M135.8,241.1L135.8,241.1c-0.1,1.8-1,3.4-2.4,4.6
				c-1.7,1.4-4.1,2-6.4,1.6c-7.6-1.2-10.2-6.9-11.1-11.6c-0.2-1.2,0.2-2.4,1.2-3.3c1.7-1.5,3.8-2.3,6.1-2.3c0.7,0,1.4,0.1,2.1,0.2
				c3.9,0.7,6.9,2.7,9.2,5.9C135.5,237.9,135.9,239.4,135.8,241.1z M135,235.9c-2.4-3.4-5.6-5.5-9.6-6.2c-3.4-0.6-6.4,0.1-8.8,2.2
				c-1.2,1.1-1.8,2.5-1.5,4c1.3,7,5.3,11.2,11.7,12.2c0.5,0.1,1,0.1,1.5,0.1c2,0,4-0.7,5.5-1.9c1.6-1.3,2.6-3.1,2.7-5.1
				C136.7,239.3,136.2,237.6,135,235.9z M135.8,241.1L135.8,241.1c-0.1,1.8-1,3.4-2.4,4.6c-1.7,1.4-4.1,2-6.4,1.6
				c-7.6-1.2-10.2-6.9-11.1-11.6c-0.2-1.2,0.2-2.4,1.2-3.3c1.7-1.5,3.8-2.3,6.1-2.3c0.7,0,1.4,0.1,2.1,0.2c3.9,0.7,6.9,2.7,9.2,5.9
				C135.5,237.9,135.9,239.4,135.8,241.1z M135,235.9c-2.4-3.4-5.6-5.5-9.6-6.2c-3.4-0.6-6.4,0.1-8.8,2.2c-1.2,1.1-1.8,2.5-1.5,4
				c1.3,7,5.3,11.2,11.7,12.2c0.5,0.1,1,0.1,1.5,0.1c2,0,4-0.7,5.5-1.9c1.6-1.3,2.6-3.1,2.7-5.1C136.7,239.3,136.2,237.6,135,235.9z
				 M135.8,241.1L135.8,241.1c-0.1,1.8-1,3.4-2.4,4.6c-1.7,1.4-4.1,2-6.4,1.6c-7.6-1.2-10.2-6.9-11.1-11.6c-0.2-1.2,0.2-2.4,1.2-3.3
				c1.7-1.5,3.8-2.3,6.1-2.3c0.7,0,1.4,0.1,2.1,0.2c3.9,0.7,6.9,2.7,9.2,5.9C135.5,237.9,135.9,239.4,135.8,241.1z"/>
		</g>
	</g>
</g>
</svg>
