<?xml version="1.0" encoding="utf-8"?>
<!-- Generator: Adobe Illustrator 27.3.1, SVG Export Plug-In . SVG Version: 6.00 Build 0)  -->
<svg version="1.1" id="Layer_1" xmlns="http://www.w3.org/2000/svg" xmlns:xlink="http://www.w3.org/1999/xlink" x="0px" y="0px"
	 viewBox="0 0 2834.6 2834.6" style="enable-background:new 0 0 2834.6 2834.6;" xml:space="preserve">
<style type="text/css">
	.st0{fill:#30313D;}
</style>
<g>
	<path class="st0" d="M466.7,2137c4.2-22.5,6.8-45.5,13-67.4c43.9-156.2,100.3-308.4,150.6-462.5
		c52.3-160.3,101.1-321.8,151.6-482.7c10.6-33.8,22.7-67,45.9-94.6c29-34.8,68.4-47.8,111.7-52.8c70.8-8.1,141.8-4.1,212.7-2.7
		c1.8,0,3.6,0,6.2,0c-37.8-64.5-42.2-132.6-23.6-202.7c18.3-68.7,49.2-130.3,108.4-173.6c100.3-73.5,211.9-72.9,329.9-7.6
		c133.2,93.8,165,218.9,116.6,367.2c20.8,0,44.1,0.3,67.4-0.1c55.4-0.8,110.6-0.5,164.9,12.5c42.8,10.2,72.6,34.5,90.7,75.7
		c31.8,72.2,56.2,147,79,222.2c67.5,222.5,150.7,439.6,225.8,659.4c16.9,49.4,32.1,99.3,47.1,149.3c3.9,12.9,4,26.9,5.9,40.3
		c0,7.3,0,14.7,0,22c-0.4,2.4-0.9,4.9-1.1,7.3c-3,44.2-22,79.4-60.3,102.3c-15.8,9.5-33.1,17.5-50.7,23
		c-59.6,18.6-121.4,22.6-183.2,22.8c-106.9,0.4-213.9-0.9-320.8-2.5c-196.6-3-393.2-6.2-589.7-10.3c-74.9-1.6-149.9-4.6-224.7-9.4
		c-85.8-5.5-171.5-5-257.3-2.7c-40,1.1-80,3.6-119.5-4.7c-43.3-9.1-76.5-30.7-90-75.2c-3.6-11.8-4.5-24.4-6.7-36.6
		C466.7,2147.6,466.7,2142.3,466.7,2137z M1596.6,2249.1c0,0.6,0,1.3,0,1.9c154.1,1.4,308.3,2.9,462.4,4.1
		c65,0.5,129.5-3.8,192.2-22.9c58.1-17.7,81.4-50.3,78.8-110.6c-1.8-40.6-13.5-78.9-26.7-116.9c-88.5-255-183.5-507.8-262.5-766.1
		c-18.5-60.5-42.5-119.3-64.9-178.6c-10.2-27-31.1-43.3-59.1-50.5c-44.3-11.5-89.6-13.1-134.9-12.5c-39.3,0.6-78.6,3-117.8,4.7
		c-10.6,0.5-19.3-3.2-25.4-12c-5.9-8.6-4.3-17.1,0.5-25.8c5.8-10.6,12.6-21.1,16.4-32.5c31.5-95,18.4-182.1-47.3-259.6
		c-43.3-51.1-101.1-75.6-165-86.7c-77.8-13.6-145.6,11.2-199.7,65.9c-53.6,54.1-78.1,123.1-79.1,199.3
		c-0.6,45.5,13.6,86.9,41.8,122.9c6.8,8.7,10.3,17.6,5.3,27.6c-4.9,9.8-14.1,15-24.9,14.8c-35.1-0.7-70.3-2.3-105.4-3.1
		c-50.8-1.2-101.6-1.8-152.1,6.4c-38.8,6.3-69.5,23.7-86.5,60.5c-7.8,16.9-15.4,34-21,51.7c-43.5,138.5-85.5,277.5-129.9,415.7
		c-54.2,168.6-110.6,336.6-165.6,504.9c-10.3,31.5-19.9,63.2-19.5,97c0.4,33.1,12.3,58.8,45,71.1c8.1,3,16.5,6.8,24.8,7.1
		c40.4,1.5,80.8,2.3,121.2,2.7c70.3,0.7,140.6-0.6,210.9,1.5c82.1,2.5,164,9.5,246.1,11.4C1302,2245.9,1449.3,2247,1596.6,2249.1z"
		/>
	<path class="st0" d="M1658,1782.6c-13.8,12.9-25,25.4-38.2,35.1c-57,42-177.1,30.8-211.3-76.5c-19.9-62.4-14.4-123.4,32.1-174.1
		c55.1-60.2,156.3-58.6,205.3,1.8c4.4,5.5,8.3,11.5,13.3,18.4c0-12.2,0-23.1,0-34c0.1-15,5.4-21.3,18.2-21.5
		c13.1-0.2,20.1,6.5,20.1,21.2c-0.1,104.6,0.5,209.3-1.3,313.9c-0.7,41.8-12,81.5-43.7,112.1c-30.1,29.1-67.2,39.4-108,38.5
		c-46-1-86-16.2-117.9-50.4c-11.7-12.6-13-21.3-4.1-29.7c11.3-10.7,23.5-10.4,34.9,1.9c15.9,17.1,34.8,28.8,57.6,34
		c21.9,5,44,5.8,65.8,0.1c41.6-10.9,63.5-40.9,69.5-80.9C1655.5,1856.6,1655.5,1819.8,1658,1782.6z M1657.9,1681.2
		c-1.4-10.9-1.8-22-4.3-32.6c-9.7-41.4-33.5-71.2-75.5-82.4c-41.1-10.9-78.3-2.1-107.3,30.5c-28.6,32.1-33.3,70.8-27.1,111.6
		c12.3,80.9,103.6,120.5,168,72.6C1644.8,1756.3,1656.6,1721.3,1657.9,1681.2z"/>
	<path class="st0" d="M1154.5,1695.8c0,35.5,0,67.3,0,99.1c0,17.2,0.1,34.3,0,51.5c-0.1,13.6-6.7,20-20.5,20.1
		c-14.3,0.2-21.2-5.9-21.9-19.4c0-0.8,0-1.7,0-2.5c0-153.6,0-307.3,0-460.9c0-15.2,6-21.6,20.3-21.9c15.9-0.3,22.2,5.8,22.2,21.8
		c0,92.7,0,185.3,0,278c0,2,0,3.9,0,7.2c5.2-4.6,9.5-8.3,13.8-12.1c42.8-37.9,85.5-75.9,128.2-113.8c9.1-8,18.8-14.5,31.8-13
		c12.8,1.5,19.3,13.7,12.4,24.5c-3.1,4.8-7.2,9.2-11.6,12.9c-43.8,37.5-87.8,74.8-131.7,112.2c-1.4,1.2-2.7,2.4-4.1,3.7
		c19,19.1,37.7,38,56.5,56.8c33.4,33.3,67,66.4,100,100.1c3.8,3.9,7.2,12.2,5.5,16.4c-2.1,5.1-9.2,10.2-14.9,11.4
		c-11.7,2.6-22-2.4-30.5-11.1c-49.8-51.1-99.7-102-149.6-153C1158.8,1702.1,1157.7,1700.1,1154.5,1695.8z"/>
	<path class="st0" d="M1433.2,677.7c73-4.7,146.8,77.2,145,153.2c-2.1,88.9-70.5,161.9-155.9,162c-83.7,0.1-155.4-70.9-155.5-153.9
		C1266.7,747.1,1338.2,677.8,1433.2,677.7z M1538.1,831.1c3.2-54.1-51.8-115.1-104.3-114c-72.4,1.6-127.1,51.6-127.2,119.8
		c-0.1,63,53.2,116.3,116.1,116.3C1485.7,953.1,1538,897.7,1538.1,831.1z"/>
</g>
</svg>
