<?xml version="1.0" encoding="utf-8"?>
<!-- Generator: Adobe Illustrator 26.4.1, SVG Export Plug-In . SVG Version: 6.00 Build 0)  -->
<svg version="1.1" id="Logo_nebeneinander" xmlns="http://www.w3.org/2000/svg" xmlns:xlink="http://www.w3.org/1999/xlink" x="0px"
	 y="0px" viewBox="0 0 834.2 184.4" style="enable-background:new 0 0 834.2 184.4;" xml:space="preserve">
<style type="text/css">
	.st0{fill:#30313D;}
	.st1{fill:#E9D08B;}
</style>
<path class="st0" d="M808.3,88.5c1.7,3.2,3.3,6.2,4.9,9.2c5.9,11,11.8,22.1,17.8,33.1c0.5,1,1,2,1.1,3.1c0.3,1.9-0.8,3.2-2.7,3.3
	c-0.7,0-1.3,0-2,0c-2.4,0-4.2-1.1-5.3-3.2c-7.7-14.8-15.5-29.5-23.2-44.3c-0.4-0.7-0.8-1-1.6-1c-8.8,0-17.6,0-26.5,0
	c-1,0-1.2,0.3-1.2,1.2c0,13.9,0,27.8,0,41.7c0,0.3,0,0.7,0,1c-0.1,3.8-3.1,5.7-6.6,4.2c-1.4-0.6-2-1.7-2.2-3.1
	c-0.1-0.8-0.1-1.5-0.1-2.3c0-30,0-60,0-89.9c0-0.2,0-0.5,0-0.7c0.1-3.8,1.5-5.1,5.2-5.1c13.5,0,27,0,40.5,0c4.8,0,9.4,0.8,13.8,2.6
	c6.7,2.8,11,7.7,12.8,14.7c1.6,6.1,1.6,12.3,0,18.4c-2.2,8.7-8.1,13.7-16.7,16C814,87.9,811.3,88.3,808.3,88.5L808.3,88.5z
	 M789.5,80c4.6,0,9.2,0,13.8,0c3.2,0,6.4-0.2,9.5-0.9c5.9-1.5,10.1-4.8,11.6-10.9c1-3.9,1-7.8,0.1-11.7c-1.2-5.3-4.4-8.9-9.5-10.7
	c-2.8-1-5.7-1.5-8.6-1.5c-11.9-0.1-23.8,0-35.8-0.1c-0.8,0-0.9,0.3-0.9,1c0,11.3,0,22.6,0,33.9c0,1,0.3,1.1,1.2,1.1
	C777,80,783.2,80,789.5,80L789.5,80z"/>
<path class="st0" d="M450.8,138.9c-11.5,0-21.8-3.3-30.3-11.2c-6.8-6.2-11.2-13.9-13.5-22.7c-3.8-14.3-3.7-28.5,1.6-42.4
	c5-13.1,13.9-22.7,27.5-26.9c13.8-4.3,27.2-3.2,39.6,4.7c9.6,6.1,15.5,15.1,18.8,25.8c2.6,8.4,3.2,17,2.6,25.7
	c-0.5,7.7-2.2,15.2-5.7,22.1c-7.7,15.2-20.1,23.6-37.2,24.8C453,139,451.9,138.9,450.8,138.9L450.8,138.9z M413.7,86.4
	c0.1,4,0.3,8.3,1.2,12.4c1.7,8.1,4.9,15.5,10.8,21.3c9.8,9.6,21.7,12,34.7,8.9c11-2.6,18.4-9.8,23-19.9c2.8-6,4-12.3,4.3-18.8
	c0.4-8.6-0.3-17.1-3.6-25.2c-6.7-16.6-21.3-24.6-38.5-22.5c-12.2,1.6-21,8.2-26.7,19.1C415,69.4,413.8,77.7,413.7,86.4L413.7,86.4z"
	/>
<path class="st0" d="M262.4,86.3c0,15.3,0,30.7,0,46c0,0.7-0.1,1.4-0.2,2.1c0,0.3-0.1,0.5-0.3,0.8c-0.8,1.6-2.8,2.3-5.5,1.9
	c-1.7-0.3-2.8-1.4-3-3.2c-0.1-0.5,0-1.1,0-1.6c0-14.2,0-28.5,0-42.7c0-1.1-0.2-1.3-1.3-1.3c-18.1,0-36.2,0-54.3,0
	c-1,0-1.3,0.3-1.2,1.3c0,14.4,0,28.8,0,43.2c0,2.5-0.9,3.9-2.9,4.3c-1,0.2-2.1,0.2-3.2,0c-1.6-0.3-2.5-1.4-2.7-3
	c-0.1-0.7-0.1-1.4-0.1-2.1c0-30.3,0-60.6,0-90.9c0-0.1,0-0.2,0-0.4c-0.1-4.4,2.1-5.5,6.3-4.7c1.2,0.2,2.1,1.1,2.4,2.4
	c0.2,0.7,0.2,1.5,0.2,2.2c0,12.7,0,25.5,0,38.2c0,1.1,0.3,1.3,1.3,1.3c18,0,36.1,0,54.1,0c1.1,0,1.4-0.3,1.4-1.4
	c0-12.8,0-25.5,0-38.3c0-2.5,0.7-3.7,2.4-4.2c1.4-0.5,2.9-0.4,4.3,0c1.2,0.4,1.9,1.2,2.2,2.4c0.2,0.7,0.2,1.4,0.2,2.1
	C262.4,55.7,262.4,71,262.4,86.3L262.4,86.3z"/>
<path class="st0" d="M286.4,86.3c0-14.9,0-29.8,0-44.7c0-4.8,1.2-6,5.9-6c17.3,0,34.6,0,52,0c0.4,0,0.8,0,1.2,0
	c3.7,0.3,4.5,2.7,3.9,5.7c-0.3,1.6-1.6,2.3-3.1,2.6c-0.6,0.1-1.1,0.1-1.7,0.1c-16,0-32,0-48,0c-1,0-1.2,0.3-1.2,1.3
	c0,11.4,0,22.8,0,34.3c0,1,0.2,1.3,1.2,1.3c14.3,0,28.7,0,43,0c0.4,0,0.7,0,1.1,0c2.7,0.2,4.1,1.7,4.1,4.3c0,2.8-1.3,4.2-4.1,4.4
	c-0.5,0-0.9,0-1.4,0c-14.2,0-28.5,0-42.8,0c-1,0-1.3,0.2-1.3,1.3c0,12.2,0,24.3,0,36.5c0,1,0.3,1.2,1.3,1.2c16.5,0,33,0,49.5,0
	c0.3,0,0.6,0,1,0c2.8,0.1,4.3,1.6,4.3,4.3c0,2.8-1.5,4.3-4.4,4.3c-8.2,0-16.4,0-24.6,0c-10.3,0-20.7,0-31,0c-3.3,0-4.7-1.2-4.9-4.6
	c0-0.5,0-0.9,0-1.3C286.3,116.2,286.3,101.3,286.4,86.3L286.4,86.3z"/>
<path class="st0" d="M677.2,86.3c0-14.9,0-29.8,0-44.7c0-4.8,1.2-6,5.9-6c17.3,0,34.6,0,52,0c0.4,0,0.8,0,1.2,0
	c3.7,0.3,4.5,2.7,3.9,5.7c-0.3,1.6-1.6,2.3-3.1,2.6c-0.6,0.1-1.1,0.1-1.7,0.1c-16,0-32,0-48,0c-1,0-1.2,0.3-1.2,1.3
	c0,11.4,0,22.8,0,34.3c0,1,0.2,1.3,1.2,1.3c14.3,0,28.7,0,43,0c0.4,0,0.7,0,1.1,0c2.7,0.2,4.1,1.7,4.1,4.3c0,2.8-1.3,4.2-4.1,4.4
	c-0.5,0-0.9,0-1.3,0c-14.2,0-28.5,0-42.8,0c-1,0-1.3,0.2-1.3,1.3c0,12.2,0,24.3,0,36.5c0,1,0.3,1.2,1.3,1.2c16.5,0,33,0,49.5,0
	c0.3,0,0.7,0,1,0c2.8,0.1,4.3,1.6,4.3,4.3c0,2.8-1.5,4.3-4.4,4.3c-8.2,0-16.4,0-24.6,0c-10.3,0-20.7,0-31,0c-3.3,0-4.7-1.2-4.9-4.6
	c0-0.5,0-0.9,0-1.3C677.2,116.2,677.2,101.3,677.2,86.3L677.2,86.3z"/>
<path class="st0" d="M585.5,137.1c-3.4,0-4.6-0.8-5.8-3.9c-3.3-8.5-6.7-16.9-10-25.4c-0.4-0.9-0.8-1.2-1.8-1.2
	c-14.2,0-28.5,0-42.7,0c-1,0-1.4,0.3-1.8,1.2c-3.5,8.7-7,17.5-10.4,26.2c-0.9,2.2-2.3,3.2-4.7,3.2c-0.7,0-1.3,0-2,0
	c-2-0.1-3-1.3-2.8-3.3c0.1-0.8,0.3-1.5,0.6-2.2c12.3-30.6,24.6-61.3,36.9-91.9c1.4-3.5,3.7-4.7,7.4-3.8c1.5,0.4,2.5,1.3,3.1,2.7
	c12.5,30.9,24.9,61.8,37.4,92.8c0.3,0.9,0.7,1.8,0.7,2.7c0.1,1.8-0.7,2.9-2.5,3C586.6,137.1,586.1,137.1,585.5,137.1L585.5,137.1z
	 M527,97.9h39c-6.5-16.5-12.9-32.9-19.3-49.5C540,65,533.5,81.4,527,97.9L527,97.9z"/>
<g>
	<path class="st1" d="M32.9,9.6c1,3.3,1.9,6.5,2.9,9.8c2.3,7.9,5,15.6,7.8,23.4c0.5,1.4,0.9,2.8,1.5,4.1c1.1,2.1,0.3,4-0.1,6
		c-1.2,6.3-2.1,12.7-3.1,19.1c-1.4,8.5-2.7,16.9-5.2,25.2c-0.6,1.9-1.3,3.8-2.6,5.6c-0.9-1.3-1.4-2.7-2-4c-4-8.8-7.7-17.7-10.7-26.9
		c-1-3.1-1.8-6.2-2.3-9.5c-0.1-0.7,0.1-1.4,0.3-2c4.5-11.2,7.9-22.6,10.1-34.5c0.9-5,1.6-10.1,2-15.2c0-0.5,0.1-0.9,0.5-1.2
		L32.9,9.6L32.9,9.6z"/>
	<path class="st1" d="M50.1,57.7c1.3,3.3,2.5,6.4,3.7,9.4c2.8,6.7,5.7,13.3,8.5,20c2.6,6.2,4.8,12.5,5.7,19.2
		c1.8,13.2-1.1,25.3-9.7,35.8c-5.1,6.3-11.7,10.3-19.7,11.8c-0.7,0.1-1.4,0.2-2.2,0.3c-0.9,0.1-1.4,0-1-1.2
		c1.1-4.1,2.1-8.2,2.9-12.3c0.7-3.5,1.1-7,1.4-10.6c0.4-5-0.3-10.1-0.1-15.1c0.3-6.1,1.5-11.9,3.3-17.7c2.6-8.5,4.6-17.2,5.8-26
		C49.5,66.9,49.8,62.5,50.1,57.7L50.1,57.7z"/>
	<path class="st1" d="M15.4,68.9c0.4,0.3,0.4,0.5,0.4,0.8c-0.1,8.1,2.5,15.5,6,22.7c2.8,5.6,5.9,11.1,8.1,17
		c1.8,4.8,3.1,9.7,3.6,14.9c0.3,2.9,0.5,5.8,0.4,8.7c-0.3,6.2-1.1,12.4-2.5,18.5c-0.6,2.5-0.6,2.5-3.2,1.8
		c-9.4-2.6-16.6-8.2-21.6-16.6c-3.9-6.6-6.1-13.8-6.5-21.5c-0.6-8.9,1.3-17.4,4.8-25.5c3-7,7-13.5,10.4-20.3
		C15.2,69.1,15.3,69,15.4,68.9L15.4,68.9z"/>
</g>
<path class="st0" d="M137.3,89c0,14.4,0,28.8,0,43.2c0,4-2.4,5.5-6.1,4.8c-1.7-0.3-2.8-1.5-3-3.3c-0.1-0.7-0.1-1.4-0.1-2.1
	c0-28.7,0-57.3,0-86c0-1.3-0.3-1.5-1.5-1.5c-9,0-18,0-26.9,0c-0.5,0-1.1,0-1.6-0.1c-2.3-0.4-3.4-1.9-3.3-4.4
	c0.1-2.3,1.3-3.6,3.6-3.9c0.5-0.1,1.1-0.1,1.6-0.1c21.8,0,43.6,0,65.4,0c0.5,0,0.9,0,1.3,0c3.1,0.3,4.7,2.6,3.8,5.6
	c-0.5,1.8-2,2.8-4.4,2.8c-3.8,0-7.7,0-11.5,0c-5.4,0-10.7,0-16,0c-1,0-1.3,0.2-1.3,1.2C137.3,59.9,137.3,74.4,137.3,89L137.3,89z"/>
<path class="st0" d="M626.8,89c0,14.4,0,28.8,0,43.2c0,3.9-2.3,5.5-6.2,4.7c-1.7-0.4-2.6-1.6-2.9-3.3c-0.1-0.7-0.1-1.4-0.1-2.1
	c0-28.6,0-57.3,0-85.9c0-1.1-0.5-1.6-1.6-1.6c-8.9,0-17.9,0-26.8,0c-0.6,0-1.2,0-1.8-0.2c-2.2-0.5-3.2-1.9-3-4.3
	c0.1-2.3,1.2-3.6,3.5-3.9c0.6-0.1,1.1-0.1,1.7-0.1c21.8,0,43.6,0,65.4,0c0.5,0,0.9,0,1.3,0.1c3.1,0.3,4.7,2.6,3.8,5.6
	c-0.5,1.8-2,2.8-4.4,2.8c-4.1,0-8.2,0-12.2,0c-5.1,0-10.2,0-15.3,0c-1,0-1.3,0.2-1.3,1.2C626.9,59.9,626.9,74.4,626.8,89L626.8,89z"
	/>
</svg>
